<svg version="1.1" viewBox="0.0 0.0 944.0 285.0" fill="none" stroke="none" stroke-linecap="square" stroke-miterlimit="10" width="944" height="285" xmlns:xlink="http://www.w3.org/1999/xlink" xmlns="http://www.w3.org/2000/svg"><path fill="#ffffff" d="M0 0L944.0 0L944.0 285.0L0 285.0L0 0Z" fill-rule="nonzero"/><path stroke="#cccccc" stroke-width="1.0" stroke-linecap="butt" d="M73.5 263.5L929.5 263.5" fill-rule="nonzero"/><path stroke="#333333" stroke-width="1.0" stroke-linecap="butt" d="M73.5 194.5L929.5 194.5" fill-rule="nonzero"/><path stroke="#cccccc" stroke-width="1.0" stroke-linecap="butt" d="M73.5 124.5L929.5 124.5" fill-rule="nonzero"/><path stroke="#cccccc" stroke-width="1.0" stroke-linecap="butt" d="M73.5 54.5L929.5 54.5" fill-rule="nonzero"/><clipPath id="id_0"><path d="M73.25 54.75L929.75 54.75L929.75 263.75L73.25 263.75L73.25 54.75Z" clip-rule="nonzero"/></clipPath><path stroke="#4285f4" stroke-width="2.0" stroke-linecap="butt" clip-path="url(#id_0)" d="M92.71591 54.75C92.71591 54.75 118.670456 247.49445 131.64772 263.75C144.625 280.00555 157.60228 187.11667 170.57954 152.28334C183.55682 117.45 196.53409 38.494446 209.51137 54.75C222.48863 71.005554 235.46591 224.27222 248.44318 249.81667C261.42044 275.3611 274.39774 228.91667 287.375 208.01666C300.35226 187.11667 313.32956 149.9611 326.30682 124.416664C339.2841 98.87222 352.26135 31.527779 365.23865 54.75C378.2159 77.97222 391.19318 263.75 404.17044 263.75C417.14774 263.75 430.125 54.75 443.10226 54.75C456.07956 54.75 469.05682 263.75 482.0341 263.75C495.01135 263.75 507.98865 54.75 520.9659 54.75C533.9432 54.75 546.9205 247.49445 559.8977 263.75C572.875 280.00555 585.8523 187.11667 598.8295 152.28334C611.8068 117.45 624.7841 38.494446 637.76135 54.75C650.73865 71.005554 663.7159 224.27222 676.6932 249.81667C689.6705 275.3611 702.6477 228.91667 715.625 208.01666C728.6023 187.11667 741.5795 149.9611 754.5568 124.416664C767.5341 98.87222 780.51135 31.527779 793.48865 54.75C806.4659 77.97222 819.4432 263.75 832.4205 263.75C845.3977 263.75 858.375 54.75 871.3523 54.75C884.3295 54.75 910.2841 263.75 910.2841 263.75" fill-rule="nonzero"/><path fill="#000000" fill-opacity="0.0" clip-path="url(#id_0)" d="M95.71591 54.75C95.71591 56.406853 94.372765 57.75 92.71591 57.75C91.05905 57.75 89.71591 56.406853 89.71591 54.75C89.71591 53.093147 91.05905 51.75 92.71591 51.75C94.372765 51.75 95.71591 53.093147 95.71591 54.75Z" fill-rule="nonzero"/><path fill="#000000" fill-opacity="0.0" clip-path="url(#id_0)" d="M134.64772 263.75C134.64772 265.40686 133.30458 266.75 131.64772 266.75C129.99088 266.75 128.64772 265.40686 128.64772 263.75C128.64772 262.09314 129.99088 260.75 131.64772 260.75C133.30458 260.75 134.64772 262.09314 134.64772 263.75Z" fill-rule="nonzero"/><path fill="#000000" fill-opacity="0.0" clip-path="url(#id_0)" d="M173.57954 152.28334C173.57954 153.94019 172.2364 155.28334 170.57954 155.28334C168.92268 155.28334 167.57954 153.94019 167.57954 152.28334C167.57954 150.62648 168.92268 149.28334 170.57954 149.28334C172.2364 149.28334 173.57954 150.62648 173.57954 152.28334Z" fill-rule="nonzero"/><path fill="#000000" fill-opacity="0.0" clip-path="url(#id_0)" d="M212.51137 54.75C212.51137 56.406853 211.16821 57.75 209.51137 57.75C207.8545 57.75 206.51137 56.406853 206.51137 54.75C206.51137 53.093147 207.8545 51.75 209.51137 51.75C211.16821 51.75 212.51137 53.093147 212.51137 54.75Z" fill-rule="nonzero"/><path fill="#000000" fill-opacity="0.0" clip-path="url(#id_0)" d="M251.44318 249.81667C251.44318 251.47353 250.10004 252.81667 248.44318 252.81667C246.78633 252.81667 245.44318 251.47353 245.44318 249.81667C245.44318 248.1598 246.78633 246.81667 248.44318 246.81667C250.10004 246.81667 251.44318 248.1598 251.44318 249.81667Z" fill-rule="nonzero"/><path fill="#000000" fill-opacity="0.0" clip-path="url(#id_0)" d="M290.375 208.01666C290.375 209.67352 289.03186 211.01666 287.375 211.01666C285.71814 211.01666 284.375 209.67352 284.375 208.01666C284.375 206.35982 285.71814 205.01666 287.375 205.01666C289.03186 205.01666 290.375 206.35982 290.375 208.01666Z" fill-rule="nonzero"/><path fill="#000000" fill-opacity="0.0" clip-path="url(#id_0)" d="M329.30682 124.416664C329.30682 126.073524 327.96368 127.416664 326.30682 127.416664C324.64996 127.416664 323.30682 126.073524 323.30682 124.416664C323.30682 122.75981 324.64996 121.416664 326.30682 121.416664C327.96368 121.416664 329.30682 122.75981 329.30682 124.416664Z" fill-rule="nonzero"/><path fill="#000000" fill-opacity="0.0" clip-path="url(#id_0)" d="M368.23865 54.75C368.23865 56.406853 366.89548 57.75 365.23865 57.75C363.5818 57.75 362.23865 56.406853 362.23865 54.75C362.23865 53.093147 363.5818 51.75 365.23865 51.75C366.89548 51.75 368.23865 53.093147 368.23865 54.75Z" fill-rule="nonzero"/><path fill="#000000" fill-opacity="0.0" clip-path="url(#id_0)" d="M407.17044 263.75C407.17044 265.40686 405.8273 266.75 404.17044 266.75C402.5136 266.75 401.17044 265.40686 401.17044 263.75C401.17044 262.09314 402.5136 260.75 404.17044 260.75C405.8273 260.75 407.17044 262.09314 407.17044 263.75Z" fill-rule="nonzero"/><path fill="#000000" fill-opacity="0.0" clip-path="url(#id_0)" d="M446.10226 54.75C446.10226 56.406853 444.75912 57.75 443.10226 57.75C441.4454 57.75 440.10226 56.406853 440.10226 54.75C440.10226 53.093147 441.4454 51.75 443.10226 51.75C444.75912 51.75 446.10226 53.093147 446.10226 54.75Z" fill-rule="nonzero"/><path fill="#000000" fill-opacity="0.0" clip-path="url(#id_0)" d="M485.0341 263.75C485.0341 265.40686 483.69095 266.75 482.0341 266.75C480.37723 266.75 479.0341 265.40686 479.0341 263.75C479.0341 262.09314 480.37723 260.75 482.0341 260.75C483.69095 260.75 485.0341 262.09314 485.0341 263.75Z" fill-rule="nonzero"/><path fill="#000000" fill-opacity="0.0" clip-path="url(#id_0)" d="M523.9659 54.75C523.9659 56.406853 522.62274 57.75 520.9659 57.75C519.3091 57.75 517.9659 56.406853 517.9659 54.75C517.9659 53.093147 519.3091 51.75 520.9659 51.75C522.62274 51.75 523.9659 53.093147 523.9659 54.75Z" fill-rule="nonzero"/><path fill="#000000" fill-opacity="0.0" clip-path="url(#id_0)" d="M562.8977 263.75C562.8977 265.40686 561.55457 266.75 559.8977 266.75C558.24084 266.75 556.8977 265.40686 556.8977 263.75C556.8977 262.09314 558.24084 260.75 559.8977 260.75C561.55457 260.75 562.8977 262.09314 562.8977 263.75Z" fill-rule="nonzero"/><path fill="#000000" fill-opacity="0.0" clip-path="url(#id_0)" d="M601.8295 152.28334C601.8295 153.94019 600.4864 155.28334 598.8295 155.28334C597.17267 155.28334 595.8295 153.94019 595.8295 152.28334C595.8295 150.62648 597.17267 149.28334 598.8295 149.28334C600.4864 149.28334 601.8295 150.62648 601.8295 152.28334Z" fill-rule="nonzero"/><path fill="#000000" fill-opacity="0.0" clip-path="url(#id_0)" d="M640.76135 54.75C640.76135 56.406853 639.4182 57.75 637.76135 57.75C636.1045 57.75 634.76135 56.406853 634.76135 54.75C634.76135 53.093147 636.1045 51.75 637.76135 51.75C639.4182 51.75 640.76135 53.093147 640.76135 54.75Z" fill-rule="nonzero"/><path fill="#000000" fill-opacity="0.0" clip-path="url(#id_0)" d="M679.6932 249.81667C679.6932 251.47353 678.35004 252.81667 676.6932 252.81667C675.0363 252.81667 673.6932 251.47353 673.6932 249.81667C673.6932 248.1598 675.0363 246.81667 676.6932 246.81667C678.35004 246.81667 679.6932 248.1598 679.6932 249.81667Z" fill-rule="nonzero"/><path fill="#000000" fill-opacity="0.0" clip-path="url(#id_0)" d="M718.625 208.01666C718.625 209.67352 717.28186 211.01666 715.625 211.01666C713.96814 211.01666 712.625 209.67352 712.625 208.01666C712.625 206.35982 713.96814 205.01666 715.625 205.01666C717.28186 205.01666 718.625 206.35982 718.625 208.01666Z" fill-rule="nonzero"/><path fill="#000000" fill-opacity="0.0" clip-path="url(#id_0)" d="M757.5568 124.416664C757.5568 126.073524 756.2137 127.416664 754.5568 127.416664C752.89996 127.416664 751.5568 126.073524 751.5568 124.416664C751.5568 122.75981 752.89996 121.416664 754.5568 121.416664C756.2137 121.416664 757.5568 122.75981 757.5568 124.416664Z" fill-rule="nonzero"/><path fill="#000000" fill-opacity="0.0" clip-path="url(#id_0)" d="M796.48865 54.75C796.48865 56.406853 795.1455 57.75 793.48865 57.75C791.8318 57.75 790.48865 56.406853 790.48865 54.75C790.48865 53.093147 791.8318 51.75 793.48865 51.75C795.1455 51.75 796.48865 53.093147 796.48865 54.75Z" fill-rule="nonzero"/><path fill="#000000" fill-opacity="0.0" clip-path="url(#id_0)" d="M835.4205 263.75C835.4205 265.40686 834.07733 266.75 832.4205 266.75C830.7636 266.75 829.4205 265.40686 829.4205 263.75C829.4205 262.09314 830.7636 260.75 832.4205 260.75C834.07733 260.75 835.4205 262.09314 835.4205 263.75Z" fill-rule="nonzero"/><path fill="#000000" fill-opacity="0.0" clip-path="url(#id_0)" d="M874.3523 54.75C874.3523 56.406853 873.00916 57.75 871.3523 57.75C869.69543 57.75 868.3523 56.406853 868.3523 54.75C868.3523 53.093147 869.69543 51.75 871.3523 51.75C873.00916 51.75 874.3523 53.093147 874.3523 54.75Z" fill-rule="nonzero"/><path fill="#000000" fill-opacity="0.0" clip-path="url(#id_0)" d="M913.2841 263.75C913.2841 265.40686 911.9409 266.75 910.2841 266.75C908.62726 266.75 907.2841 265.40686 907.2841 263.75C907.2841 262.09314 908.62726 260.75 910.2841 260.75C911.9409 260.75 913.2841 262.09314 913.2841 263.75Z" fill-rule="nonzero"/><path fill="#000000" d="M25.25 187.375L16.65625 187.375L16.65625 186.23438L24.234375 186.23438L24.234375 182.0L25.25 182.0L25.25 187.375ZM22.140625 180.84375Q20.40625 180.84375 19.578125 179.89062Q18.890625 179.09375 18.890625 177.9375Q18.890625 176.65625 19.734375 175.84375Q20.5625 175.01562 22.046875 175.01562Q23.25 175.01562 23.9375 175.375Q24.625 175.73438 25.015625 176.4375Q25.390625 177.125 25.390625 177.9375Q25.390625 179.23438 24.5625 180.04688Q23.71875 180.84375 22.140625 180.84375ZM22.140625 179.76562Q23.328125 179.76562 23.921875 179.25Q24.515625 178.71875 24.515625 177.9375Q24.515625 177.14062 23.921875 176.625Q23.328125 176.10938 22.109375 176.10938Q20.953125 176.10938 20.359375 176.64062Q19.765625 177.15625 19.765625 177.9375Q19.765625 178.71875 20.359375 179.25Q20.9375 179.76562 22.140625 179.76562ZM25.25 172.3125L19.03125 174.21875L19.03125 173.125L22.625 172.14062L23.953125 171.76562Q23.859375 171.73438 22.671875 171.4375L19.03125 170.45312L19.03125 169.375L22.640625 168.4375L23.828125 168.125L22.625 167.76562L19.03125 166.70312L19.03125 165.67188L25.25 167.625L25.25 168.71875L21.515625 169.70312L20.46875 169.95312L25.25 171.20312L25.25 172.3125ZM27.78125 161.14062L16.515625 161.14062L16.515625 160.23438L27.78125 160.23438L27.78125 161.14062ZM25.25 155.28125L16.65625 155.28125L16.65625 154.15625L20.1875 154.15625L20.1875 149.6875L16.65625 149.6875L16.65625 148.54688L25.25 148.54688L25.25 149.6875L21.203125 149.6875L21.203125 154.15625L25.25 154.15625L25.25 155.28125ZM17.875 146.45312L16.65625 146.45312L16.65625 145.39062L17.875 145.39062L17.875 146.45312ZM25.25 146.45312L19.03125 146.45312L19.03125 145.39062L25.25 145.39062L25.25 146.45312ZM25.765625 143.65625L25.921875 142.625Q26.390625 142.5625 26.609375 142.26562Q26.90625 141.875 26.90625 141.20312Q26.90625 140.46875 26.609375 140.07812Q26.3125 139.67188 25.796875 139.53125Q25.46875 139.4375 24.4375 139.45312Q25.25 140.14062 25.25 141.17188Q25.25 142.45312 24.328125 143.15625Q23.390625 143.85938 22.109375 143.85938Q21.21875 143.85938 20.46875 143.54688Q19.703125 143.21875 19.296875 142.60938Q18.890625 142.0 18.890625 141.17188Q18.890625 140.0625 19.78125 139.34375L19.03125 139.34375L19.03125 138.375L24.40625 138.375Q25.859375 138.375 26.46875 138.67188Q27.078125 138.96875 27.421875 139.60938Q27.78125 140.25 27.78125 141.1875Q27.78125 142.29688 27.28125 142.98438Q26.78125 143.67188 25.765625 143.65625ZM22.03125 142.78125Q23.25 142.78125 23.8125 142.29688Q24.375 141.8125 24.375 141.07812Q24.375 140.34375 23.8125 139.85938Q23.25 139.35938 22.0625 139.35938Q20.921875 139.35938 20.34375 139.875Q19.765625 140.375 19.765625 141.09375Q19.765625 141.79688 20.34375 142.29688Q20.90625 142.78125 22.03125 142.78125ZM25.25 136.45312L16.65625 136.45312L16.65625 135.40625L19.734375 135.40625Q18.890625 134.67188 18.890625 133.54688Q18.890625 132.84375 19.171875 132.34375Q19.4375 131.82812 19.921875 131.60938Q20.390625 131.39062 21.3125 131.39062L25.25 131.39062L25.25 132.4375L21.3125 132.4375Q20.515625 132.4375 20.15625 132.78125Q19.796875 133.125 19.796875 133.75Q19.796875 134.21875 20.046875 134.64062Q20.28125 135.04688 20.703125 135.23438Q21.109375 135.40625 21.84375 135.40625L25.25 135.40625L25.25 136.45312Z" fill-rule="nonzero"/><path fill="#000000" d="M56.625 265.17188L56.625 264.10938L59.875 264.10938L59.875 265.17188L56.625 265.17188ZM60.75 265.5L61.859375 265.40625Q61.984375 266.21875 62.421875 266.625Q62.875 267.03125 63.515625 267.03125Q64.265625 267.03125 64.796875 266.45312Q65.328125 265.875 65.328125 264.9375Q65.328125 264.03125 64.8125 263.51562Q64.3125 262.98438 63.484375 262.98438Q62.984375 262.98438 62.5625 263.21875Q62.15625 263.45312 61.921875 263.8125L60.9375 263.6875L61.765625 259.28125L66.046875 259.28125L66.046875 260.28125L62.609375 260.28125L62.15625 262.59375Q62.921875 262.04688 63.765625 262.04688Q64.890625 262.04688 65.65625 262.82812Q66.4375 263.60938 66.4375 264.84375Q66.4375 266.0 65.765625 266.85938Q64.9375 267.89062 63.515625 267.89062Q62.34375 267.89062 61.59375 267.23438Q60.859375 266.57812 60.75 265.5Z" fill-rule="nonzero"/><path fill="#000000" d="M60.75 193.84895Q60.75 192.3177 61.0625 191.39583Q61.375 190.45833 61.984375 189.95833Q62.609375 189.45833 63.546875 189.45833Q64.234375 189.45833 64.75 189.73958Q65.28125 190.02083 65.625 190.55208Q65.96875 191.0677 66.15625 191.8177Q66.34375 192.5677 66.34375 193.84895Q66.34375 195.36458 66.03125 196.28645Q65.734375 197.20833 65.109375 197.72395Q64.5 198.22395 63.546875 198.22395Q62.3125 198.22395 61.59375 197.33333Q60.75 196.27083 60.75 193.84895ZM61.828125 193.84895Q61.828125 195.95833 62.328125 196.66145Q62.828125 197.36458 63.546875 197.36458Q64.28125 197.36458 64.765625 196.66145Q65.265625 195.95833 65.265625 193.84895Q65.265625 191.72395 64.765625 191.03645Q64.28125 190.33333 63.53125 190.33333Q62.8125 190.33333 62.375 190.9427Q61.828125 191.72395 61.828125 193.84895Z" fill-rule="nonzero"/><path fill="#000000" d="M60.75 126.16667L61.859375 126.07292Q61.984375 126.88542 62.421875 127.29167Q62.875 127.69792 63.515625 127.69792Q64.265625 127.69792 64.796875 127.1198Q65.328125 126.54167 65.328125 125.60417Q65.328125 124.69792 64.8125 124.1823Q64.3125 123.65105 63.484375 123.65105Q62.984375 123.65105 62.5625 123.88542Q62.15625 124.1198 61.921875 124.47917L60.9375 124.35417L61.765625 119.94792L66.046875 119.94792L66.046875 120.94792L62.609375 120.94792L62.15625 123.26042Q62.921875 122.71355 63.765625 122.71355Q64.890625 122.71355 65.65625 123.4948Q66.4375 124.27605 66.4375 125.51042Q66.4375 126.66667 65.765625 127.52605Q64.9375 128.5573 63.515625 128.5573Q62.34375 128.5573 61.59375 127.90105Q60.859375 127.2448 60.75 126.16667Z" fill-rule="nonzero"/><path fill="#000000" d="M57.71875 58.75L56.671875 58.75L56.671875 52.03125Q56.28125 52.390625 55.65625 52.765625Q55.046875 53.125 54.5625 53.296875L54.5625 52.28125Q55.4375 51.859375 56.09375 51.28125Q56.765625 50.6875 57.046875 50.125L57.71875 50.125L57.71875 58.75ZM60.75 54.515625Q60.75 52.984375 61.0625 52.0625Q61.375 51.125 61.984375 50.625Q62.609375 50.125 63.546875 50.125Q64.234375 50.125 64.75 50.40625Q65.28125 50.6875 65.625 51.21875Q65.96875 51.734375 66.15625 52.484375Q66.34375 53.234375 66.34375 54.515625Q66.34375 56.03125 66.03125 56.953125Q65.734375 57.875 65.109375 58.390625Q64.5 58.890625 63.546875 58.890625Q62.3125 58.890625 61.59375 58.0Q60.75 56.9375 60.75 54.515625ZM61.828125 54.515625Q61.828125 56.625 62.328125 57.328125Q62.828125 58.03125 63.546875 58.03125Q64.28125 58.03125 64.765625 57.328125Q65.265625 56.625 65.265625 54.515625Q65.265625 52.390625 64.765625 51.703125Q64.28125 51.0 63.53125 51.0Q62.8125 51.0 62.375 51.609375Q61.828125 52.390625 61.828125 54.515625Z" fill-rule="nonzero"/><path fill="#757575" d="M15.734375 33.25L15.734375 18.9375L18.59375 18.9375L21.96875 29.0625Q22.4375 30.484375 22.65625 31.1875Q22.90625 30.40625 23.421875 28.890625L26.84375 18.9375L29.390625 18.9375L29.390625 33.25L27.578125 33.25L27.578125 21.265625L23.40625 33.25L21.703125 33.25L17.5625 21.0625L17.5625 33.25L15.734375 33.25ZM31.921875 28.0625Q31.921875 25.1875 33.515625 23.796875Q34.859375 22.640625 36.78125 22.640625Q38.921875 22.640625 40.265625 24.046875Q41.625 25.453125 41.625 27.921875Q41.625 29.921875 41.03125 31.078125Q40.4375 32.21875 39.28125 32.859375Q38.140625 33.484375 36.78125 33.484375Q34.59375 33.484375 33.25 32.09375Q31.921875 30.6875 31.921875 28.0625ZM33.71875 28.0625Q33.71875 30.0625 34.578125 31.046875Q35.453125 32.03125 36.78125 32.03125Q38.09375 32.03125 38.953125 31.046875Q39.828125 30.046875 39.828125 28.0Q39.828125 26.078125 38.953125 25.09375Q38.078125 24.09375 36.78125 24.09375Q35.453125 24.09375 34.578125 25.09375Q33.71875 26.078125 33.71875 28.0625ZM47.40625 31.671875L47.65625 33.234375Q46.921875 33.390625 46.328125 33.390625Q45.375 33.390625 44.84375 33.09375Q44.328125 32.78125 44.109375 32.296875Q43.890625 31.796875 43.890625 30.21875L43.890625 24.25L42.609375 24.25L42.609375 22.875L43.890625 22.875L43.890625 20.3125L45.640625 19.25L45.640625 22.875L47.40625 22.875L47.40625 24.25L45.640625 24.25L45.640625 30.3125Q45.640625 31.0625 45.734375 31.28125Q45.828125 31.484375 46.03125 31.625Q46.25 31.75 46.640625 31.75Q46.921875 31.75 47.40625 31.671875ZM49.578125 20.953125L49.578125 18.9375L51.34375 18.9375L51.34375 20.953125L49.578125 20.953125ZM49.578125 33.25L49.578125 22.875L51.34375 22.875L51.34375 33.25L49.578125 33.25ZM56.453125 33.25L52.5 22.875L54.359375 22.875L56.59375 29.09375Q56.953125 30.09375 57.25 31.171875Q57.484375 30.359375 57.90625 29.203125L60.203125 22.875L62.015625 22.875L58.09375 33.25L56.453125 33.25ZM70.34375 31.96875Q69.359375 32.796875 68.453125 33.140625Q67.546875 33.484375 66.515625 33.484375Q64.8125 33.484375 63.890625 32.65625Q62.96875 31.8125 62.96875 30.515625Q62.96875 29.75 63.3125 29.125Q63.671875 28.5 64.234375 28.125Q64.796875 27.734375 65.5 27.53125Q66.015625 27.40625 67.0625 27.265625Q69.1875 27.015625 70.1875 26.671875Q70.203125 26.3125 70.203125 26.203125Q70.203125 25.140625 69.703125 24.6875Q69.03125 24.09375 67.703125 24.09375Q66.453125 24.09375 65.859375 24.53125Q65.28125 24.96875 65.0 26.078125L63.28125 25.84375Q63.515625 24.734375 64.046875 24.0625Q64.578125 23.375 65.59375 23.015625Q66.609375 22.640625 67.953125 22.640625Q69.28125 22.640625 70.109375 22.953125Q70.9375 23.265625 71.328125 23.75Q71.71875 24.21875 71.875 24.9375Q71.96875 25.390625 71.96875 26.5625L71.96875 28.90625Q71.96875 31.359375 72.078125 32.015625Q72.1875 32.65625 72.53125 33.25L70.6875 33.25Q70.421875 32.703125 70.34375 31.96875ZM70.1875 28.046875Q69.234375 28.4375 67.3125 28.703125Q66.234375 28.859375 65.78125 29.0625Q65.34375 29.25 65.09375 29.625Q64.84375 30.0 64.84375 30.46875Q64.84375 31.171875 65.375 31.640625Q65.90625 32.109375 66.9375 32.109375Q67.953125 32.109375 68.734375 31.671875Q69.53125 31.21875 69.90625 30.453125Q70.1875 29.84375 70.1875 28.6875L70.1875 28.046875ZM78.40625 31.671875L78.65625 33.234375Q77.921875 33.390625 77.328125 33.390625Q76.375 33.390625 75.84375 33.09375Q75.328125 32.78125 75.109375 32.296875Q74.890625 31.796875 74.890625 30.21875L74.890625 24.25L73.609375 24.25L73.609375 22.875L74.890625 22.875L74.890625 20.3125L76.640625 19.25L76.640625 22.875L78.40625 22.875L78.40625 24.25L76.640625 24.25L76.640625 30.3125Q76.640625 31.0625 76.734375 31.28125Q76.828125 31.484375 77.03125 31.625Q77.25 31.75 77.640625 31.75Q77.921875 31.75 78.40625 31.671875ZM80.578125 20.953125L80.578125 18.9375L82.34375 18.9375L82.34375 20.953125L80.578125 20.953125ZM80.578125 33.25L80.578125 22.875L82.34375 22.875L82.34375 33.25L80.578125 33.25ZM83.921875 28.0625Q83.921875 25.1875 85.515625 23.796875Q86.859375 22.640625 88.78125 22.640625Q90.921875 22.640625 92.265625 24.046875Q93.625 25.453125 93.625 27.921875Q93.625 29.921875 93.03125 31.078125Q92.4375 32.21875 91.28125 32.859375Q90.140625 33.484375 88.78125 33.484375Q86.59375 33.484375 85.25 32.09375Q83.921875 30.6875 83.921875 28.0625ZM85.71875 28.0625Q85.71875 30.0625 86.578125 31.046875Q87.453125 32.03125 88.78125 32.03125Q90.09375 32.03125 90.953125 31.046875Q91.828125 30.046875 91.828125 28.0Q91.828125 26.078125 90.953125 25.09375Q90.078125 24.09375 88.78125 24.09375Q87.453125 24.09375 86.578125 25.09375Q85.71875 26.078125 85.71875 28.0625ZM95.5625 33.25L95.5625 22.875L97.15625 22.875L97.15625 24.359375Q98.296875 22.640625 100.453125 22.640625Q101.390625 22.640625 102.171875 22.984375Q102.96875 23.3125 103.359375 23.859375Q103.75 24.40625 103.90625 25.15625Q104.0 25.65625 104.0 26.875L104.0 33.25L102.234375 33.25L102.234375 26.9375Q102.234375 25.859375 102.03125 25.328125Q101.828125 24.796875 101.296875 24.484375Q100.78125 24.171875 100.078125 24.171875Q98.953125 24.171875 98.140625 24.890625Q97.328125 25.59375 97.328125 27.578125L97.328125 33.25L95.5625 33.25ZM112.53125 33.25L112.53125 18.9375L114.28125 18.9375L114.28125 33.25L112.53125 33.25ZM123.671875 29.90625L125.484375 30.140625Q125.0625 31.71875 123.890625 32.609375Q122.734375 33.484375 120.921875 33.484375Q118.65625 33.484375 117.3125 32.09375Q115.984375 30.6875 115.984375 28.15625Q115.984375 25.53125 117.328125 24.09375Q118.671875 22.640625 120.828125 22.640625Q122.90625 22.640625 124.21875 24.0625Q125.546875 25.46875 125.546875 28.046875Q125.546875 28.203125 125.53125 28.515625L117.796875 28.515625Q117.890625 30.21875 118.765625 31.125Q119.640625 32.03125 120.9375 32.03125Q121.90625 32.03125 122.578125 31.53125Q123.265625 31.015625 123.671875 29.90625ZM117.890625 27.0625L123.6875 27.0625Q123.578125 25.765625 123.03125 25.109375Q122.1875 24.09375 120.84375 24.09375Q119.640625 24.09375 118.8125 24.90625Q117.984375 25.703125 117.890625 27.0625ZM130.45312 33.25L126.5 22.875L128.35938 22.875L130.59375 29.09375Q130.95312 30.09375 131.25 31.171875Q131.48438 30.359375 131.90625 29.203125L134.20312 22.875L136.01562 22.875L132.09375 33.25L130.45312 33.25ZM144.67188 29.90625L146.48438 30.140625Q146.0625 31.71875 144.89062 32.609375Q143.73438 33.484375 141.92188 33.484375Q139.65625 33.484375 138.3125 32.09375Q136.98438 30.6875 136.98438 28.15625Q136.98438 25.53125 138.32812 24.09375Q139.67188 22.640625 141.82812 22.640625Q143.90625 22.640625 145.21875 24.0625Q146.54688 25.46875 146.54688 28.046875Q146.54688 28.203125 146.53125 28.515625L138.79688 28.515625Q138.89062 30.21875 139.76562 31.125Q140.64062 32.03125 141.9375 32.03125Q142.90625 32.03125 143.57812 31.53125Q144.26562 31.015625 144.67188 29.90625ZM138.89062 27.0625L144.6875 27.0625Q144.57812 25.765625 144.03125 25.109375Q143.1875 24.09375 141.84375 24.09375Q140.64062 24.09375 139.8125 24.90625Q138.98438 25.703125 138.89062 27.0625ZM148.53125 33.25L148.53125 18.9375L150.28125 18.9375L150.28125 33.25L148.53125 33.25ZM151.85938 30.15625L153.60938 29.875Q153.75 30.921875 154.42188 31.484375Q155.09375 32.03125 156.29688 32.03125Q157.5 32.03125 158.07812 31.546875Q158.67188 31.046875 158.67188 30.390625Q158.67188 29.796875 158.15625 29.453125Q157.79688 29.21875 156.35938 28.859375Q154.42188 28.359375 153.67188 28.015625Q152.9375 27.65625 152.54688 27.03125Q152.15625 26.390625 152.15625 25.625Q152.15625 24.9375 152.46875 24.34375Q152.79688 23.75 153.34375 23.359375Q153.75 23.0625 154.45312 22.859375Q155.17188 22.640625 155.98438 22.640625Q157.20312 22.640625 158.125 23.0Q159.04688 23.34375 159.48438 23.953125Q159.92188 24.546875 160.09375 25.546875L158.375 25.78125Q158.25 24.984375 157.6875 24.546875Q157.125 24.09375 156.10938 24.09375Q154.89062 24.09375 154.375 24.5Q153.85938 24.890625 153.85938 25.421875Q153.85938 25.765625 154.07812 26.046875Q154.28125 26.328125 154.75 26.515625Q155.01562 26.609375 156.29688 26.953125Q158.17188 27.453125 158.90625 27.78125Q159.64062 28.09375 160.0625 28.703125Q160.48438 29.296875 160.48438 30.203125Q160.48438 31.078125 159.96875 31.859375Q159.45312 32.640625 158.48438 33.0625Q157.51562 33.484375 156.29688 33.484375Q154.28125 33.484375 153.21875 32.640625Q152.15625 31.796875 151.85938 30.15625Z" fill-rule="nonzero"/></svg>