<svg version="1.1" viewBox="0.0 0.0 944.0 285.0" fill="none" stroke="none" stroke-linecap="square" stroke-miterlimit="10" width="944" height="285" xmlns:xlink="http://www.w3.org/1999/xlink" xmlns="http://www.w3.org/2000/svg"><path fill="#ffffff" d="M0 0L944.0 0L944.0 285.0L0 285.0L0 0Z" fill-rule="nonzero"/><path stroke="#cccccc" stroke-width="1.0" stroke-linecap="butt" d="M41.5 263.5L929.5 263.5" fill-rule="nonzero"/><path stroke="#333333" stroke-width="1.0" stroke-linecap="butt" d="M41.5 190.5L929.5 190.5" fill-rule="nonzero"/><path stroke="#cccccc" stroke-width="1.0" stroke-linecap="butt" d="M41.5 117.5L929.5 117.5" fill-rule="nonzero"/><path stroke="#cccccc" stroke-width="1.0" stroke-linecap="butt" d="M41.5 44.5L929.5 44.5" fill-rule="nonzero"/><clipPath id="id_0"><path d="M41.25 44.75L929.75 44.75L929.75 263.75L41.25 263.75L41.25 44.75Z" clip-rule="nonzero"/></clipPath><path stroke="#c9daf8" stroke-width="1.0" stroke-linecap="butt" stroke-dasharray="1.0,2.0" clip-path="url(#id_0)" d="M61.44318 44.75C61.44318 44.75 88.367424 246.71666 101.829544 263.75C115.291664 280.78333 128.75378 183.45 142.21591 146.95C155.67802 110.45 169.14015 27.716667 182.60228 44.75C196.06439 61.783333 209.52652 222.38333 222.98863 249.15C236.45076 275.91666 249.91287 227.25 263.375 205.35C276.83713 183.45 290.29926 144.51666 303.76135 117.75C317.22348 90.98333 330.6856 20.416666 344.14774 44.75C357.60986 69.083336 371.07196 263.75 384.5341 263.75C397.99622 263.75 411.45834 44.75 424.92044 44.75C438.38257 44.75 451.8447 263.75 465.30682 263.75C478.76895 263.75 492.23105 44.75 505.69318 44.75C519.1553 44.75 532.61743 246.71666 546.0795 263.75C559.5417 280.78333 573.0038 183.45 586.4659 146.95C599.92804 110.45 613.39014 27.716667 626.8523 44.75C640.3144 61.783333 653.7765 222.38333 667.23865 249.15C680.70074 275.91666 694.1629 227.25 707.625 205.35C721.0871 183.45 734.54926 144.51666 748.01135 117.75C761.4735 90.98333 774.9356 20.416666 788.3977 44.75C801.85986 69.083336 815.32196 263.75 828.7841 263.75C842.2462 263.75 855.7083 44.75 869.1705 44.75C882.63257 44.75 909.5568 263.75 909.5568 263.75" fill-rule="nonzero"/><path stroke="#f4cccc" stroke-width="1.0" stroke-linecap="butt" stroke-dasharray="1.0,2.0" clip-path="url(#id_0)" d="M61.44318 205.35C61.44318 205.35 88.367424 139.65 101.829544 146.95C115.291664 154.25 128.75378 266.18332 142.21591 249.15C155.67802 232.11667 169.14015 59.35 182.60228 44.75C196.06439 30.15 209.52652 161.55 222.98863 161.55C236.45076 161.55 249.91287 32.583332 263.375 44.75C276.83713 56.916668 290.29926 217.51666 303.76135 234.55C317.22348 251.58333 330.6856 166.41667 344.14774 146.95C357.60986 127.48333 371.07196 134.78334 384.5341 117.75C397.99622 100.71667 411.45834 27.716667 424.92044 44.75C438.38257 61.783333 451.8447 205.35 465.30682 219.95C478.76895 234.55 492.23105 142.08333 505.69318 132.35C519.1553 122.61667 532.61743 176.15 546.0795 161.55C559.5417 146.95 573.0038 35.016666 586.4659 44.75C599.92804 54.483334 613.39014 219.95 626.8523 219.95C640.3144 219.95 653.7765 54.483334 667.23865 44.75C680.70074 35.016666 694.1629 151.81667 707.625 161.55C721.0871 171.28334 734.54926 93.416664 748.01135 103.15C761.4735 112.88333 774.9356 193.18333 788.3977 219.95C801.85986 246.71666 815.32196 275.91666 828.7841 263.75C842.2462 251.58333 855.7083 163.98334 869.1705 146.95C882.63257 129.91667 909.5568 161.55 909.5568 161.55" fill-rule="nonzero"/><path stroke="#fff2cc" stroke-width="1.0" stroke-linecap="butt" stroke-dasharray="1.0,2.0" clip-path="url(#id_0)" d="M61.44318 146.95C61.44318 146.95 88.367424 100.71667 101.829544 88.55C115.291664 76.38333 128.75378 52.05 142.21591 73.95C155.67802 95.85 169.14015 210.21666 182.60228 219.95C196.06439 229.68333 209.52652 156.68333 222.98863 132.35C236.45076 108.01667 249.91287 81.25 263.375 73.95C276.83713 66.65 290.29926 59.35 303.76135 88.55C317.22348 117.75 330.6856 222.38333 344.14774 249.15C357.60986 275.91666 371.07196 268.61667 384.5341 249.15C397.99622 229.68333 411.45834 151.81667 424.92044 132.35C438.38257 112.88333 451.8447 139.65 465.30682 132.35C478.76895 125.05 492.23105 98.28333 505.69318 88.55C519.1553 78.816666 532.61743 52.05 546.0795 73.95C559.5417 95.85 573.0038 193.18333 586.4659 219.95C599.92804 246.71666 613.39014 244.28334 626.8523 234.55C640.3144 224.81667 653.7765 183.45 667.23865 161.55C680.70074 139.65 694.1629 103.15 707.625 103.15C721.0871 103.15 734.54926 163.98334 748.01135 161.55C761.4735 159.11667 774.9356 108.01667 788.3977 88.55C801.85986 69.083336 815.32196 44.75 828.7841 44.75C842.2462 44.75 855.7083 83.683334 869.1705 88.55C882.63257 93.416664 909.5568 73.95 909.5568 73.95" fill-rule="nonzero"/><path stroke="#ea4335" stroke-width="2.0" stroke-linecap="butt" clip-path="url(#id_0)" d="M61.44318 151.81667C61.44318 151.81667 88.367424 175.33888 101.829544 185.88333C115.291664 196.42778 128.75378 238.60556 142.21591 215.08333C155.67802 191.56111 169.14015 48.805557 182.60228 44.75C196.06439 40.694443 209.52652 181.82777 222.98863 190.75C236.45076 199.67223 249.91287 97.47222 263.375 98.28333C276.83713 99.094444 290.29926 193.18333 303.76135 195.61667C317.22348 198.05 330.6856 117.75 344.14774 112.88333C357.60986 108.01667 371.07196 177.77222 384.5341 166.41667C397.99622 155.06111 411.45834 33.394444 424.92044 44.75C438.38257 56.105556 451.8447 224.81667 465.30682 234.55C478.76895 244.28334 492.23105 109.638885 505.69318 103.15C519.1553 96.66111 532.61743 199.67223 546.0795 195.61667C559.5417 191.56111 573.0038 84.494446 586.4659 78.816666C599.92804 73.138885 613.39014 155.87222 626.8523 161.55C640.3144 167.22778 653.7765 110.45 667.23865 112.88333C680.70074 115.316666 694.1629 176.9611 707.625 176.15C721.0871 175.33888 734.54926 110.45 748.01135 108.01667C761.4735 105.583336 774.9356 135.59445 788.3977 161.55C801.85986 187.50555 815.32196 271.8611 828.7841 263.75C842.2462 255.63889 855.7083 124.23889 869.1705 112.88333C882.63257 101.52778 909.5568 195.61667 909.5568 195.61667" fill-rule="nonzero"/><path fill="#000000" fill-opacity="0.0" clip-path="url(#id_0)" d="M64.443184 44.75C64.443184 46.406853 63.100037 47.75 61.44318 47.75C59.786327 47.75 58.44318 46.406853 58.44318 44.75C58.44318 43.093147 59.786327 41.75 61.44318 41.75C63.100037 41.75 64.443184 43.093147 64.443184 44.75Z" fill-rule="nonzero"/><path fill="#000000" fill-opacity="0.0" clip-path="url(#id_0)" d="M104.829544 263.75C104.829544 265.40686 103.4864 266.75 101.829544 266.75C100.17269 266.75 98.829544 265.40686 98.829544 263.75C98.829544 262.09314 100.17269 260.75 101.829544 260.75C103.4864 260.75 104.829544 262.09314 104.829544 263.75Z" fill-rule="nonzero"/><path fill="#000000" fill-opacity="0.0" clip-path="url(#id_0)" d="M145.21591 146.95C145.21591 148.60686 143.87276 149.95 142.21591 149.95C140.55905 149.95 139.21591 148.60686 139.21591 146.95C139.21591 145.29315 140.55905 143.95 142.21591 143.95C143.87276 143.95 145.21591 145.29315 145.21591 146.95Z" fill-rule="nonzero"/><path fill="#000000" fill-opacity="0.0" clip-path="url(#id_0)" d="M185.60228 44.75C185.60228 46.406853 184.25912 47.75 182.60228 47.75C180.94542 47.75 179.60228 46.406853 179.60228 44.75C179.60228 43.093147 180.94542 41.75 182.60228 41.75C184.25912 41.75 185.60228 43.093147 185.60228 44.75Z" fill-rule="nonzero"/><path fill="#000000" fill-opacity="0.0" clip-path="url(#id_0)" d="M225.98863 249.15C225.98863 250.80685 224.6455 252.15 222.98863 252.15C221.33179 252.15 219.98863 250.80685 219.98863 249.15C219.98863 247.49315 221.33179 246.15 222.98863 246.15C224.6455 246.15 225.98863 247.49315 225.98863 249.15Z" fill-rule="nonzero"/><path fill="#000000" fill-opacity="0.0" clip-path="url(#id_0)" d="M266.375 205.35C266.375 207.00685 265.03186 208.35 263.375 208.35C261.71814 208.35 260.375 207.00685 260.375 205.35C260.375 203.69315 261.71814 202.35 263.375 202.35C265.03186 202.35 266.375 203.69315 266.375 205.35Z" fill-rule="nonzero"/><path fill="#000000" fill-opacity="0.0" clip-path="url(#id_0)" d="M306.76135 117.75C306.76135 119.40685 305.4182 120.75 303.76135 120.75C302.10452 120.75 300.76135 119.40685 300.76135 117.75C300.76135 116.09315 302.10452 114.75 303.76135 114.75C305.4182 114.75 306.76135 116.09315 306.76135 117.75Z" fill-rule="nonzero"/><path fill="#000000" fill-opacity="0.0" clip-path="url(#id_0)" d="M347.14774 44.75C347.14774 46.406853 345.8046 47.75 344.14774 47.75C342.49088 47.75 341.14774 46.406853 341.14774 44.75C341.14774 43.093147 342.49088 41.75 344.14774 41.75C345.8046 41.75 347.14774 43.093147 347.14774 44.75Z" fill-rule="nonzero"/><path fill="#000000" fill-opacity="0.0" clip-path="url(#id_0)" d="M387.5341 263.75C387.5341 265.40686 386.19095 266.75 384.5341 266.75C382.87723 266.75 381.5341 265.40686 381.5341 263.75C381.5341 262.09314 382.87723 260.75 384.5341 260.75C386.19095 260.75 387.5341 262.09314 387.5341 263.75Z" fill-rule="nonzero"/><path fill="#000000" fill-opacity="0.0" clip-path="url(#id_0)" d="M427.92044 44.75C427.92044 46.406853 426.5773 47.75 424.92044 47.75C423.2636 47.75 421.92044 46.406853 421.92044 44.75C421.92044 43.093147 423.2636 41.75 424.92044 41.75C426.5773 41.75 427.92044 43.093147 427.92044 44.75Z" fill-rule="nonzero"/><path fill="#000000" fill-opacity="0.0" clip-path="url(#id_0)" d="M468.30682 263.75C468.30682 265.40686 466.96368 266.75 465.30682 266.75C463.64996 266.75 462.30682 265.40686 462.30682 263.75C462.30682 262.09314 463.64996 260.75 465.30682 260.75C466.96368 260.75 468.30682 262.09314 468.30682 263.75Z" fill-rule="nonzero"/><path fill="#000000" fill-opacity="0.0" clip-path="url(#id_0)" d="M508.69318 44.75C508.69318 46.406853 507.35004 47.75 505.69318 47.75C504.03632 47.75 502.69318 46.406853 502.69318 44.75C502.69318 43.093147 504.03632 41.75 505.69318 41.75C507.35004 41.75 508.69318 43.093147 508.69318 44.75Z" fill-rule="nonzero"/><path fill="#000000" fill-opacity="0.0" clip-path="url(#id_0)" d="M549.0795 263.75C549.0795 265.40686 547.7364 266.75 546.0795 266.75C544.42267 266.75 543.0795 265.40686 543.0795 263.75C543.0795 262.09314 544.42267 260.75 546.0795 260.75C547.7364 260.75 549.0795 262.09314 549.0795 263.75Z" fill-rule="nonzero"/><path fill="#000000" fill-opacity="0.0" clip-path="url(#id_0)" d="M589.4659 146.95C589.4659 148.60686 588.12274 149.95 586.4659 149.95C584.8091 149.95 583.4659 148.60686 583.4659 146.95C583.4659 145.29315 584.8091 143.95 586.4659 143.95C588.12274 143.95 589.4659 145.29315 589.4659 146.95Z" fill-rule="nonzero"/><path fill="#000000" fill-opacity="0.0" clip-path="url(#id_0)" d="M629.8523 44.75C629.8523 46.406853 628.50916 47.75 626.8523 47.75C625.19543 47.75 623.8523 46.406853 623.8523 44.75C623.8523 43.093147 625.19543 41.75 626.8523 41.75C628.50916 41.75 629.8523 43.093147 629.8523 44.75Z" fill-rule="nonzero"/><path fill="#000000" fill-opacity="0.0" clip-path="url(#id_0)" d="M670.23865 249.15C670.23865 250.80685 668.8955 252.15 667.23865 252.15C665.5818 252.15 664.23865 250.80685 664.23865 249.15C664.23865 247.49315 665.5818 246.15 667.23865 246.15C668.8955 246.15 670.23865 247.49315 670.23865 249.15Z" fill-rule="nonzero"/><path fill="#000000" fill-opacity="0.0" clip-path="url(#id_0)" d="M710.625 205.35C710.625 207.00685 709.28186 208.35 707.625 208.35C705.96814 208.35 704.625 207.00685 704.625 205.35C704.625 203.69315 705.96814 202.35 707.625 202.35C709.28186 202.35 710.625 203.69315 710.625 205.35Z" fill-rule="nonzero"/><path fill="#000000" fill-opacity="0.0" clip-path="url(#id_0)" d="M751.01135 117.75C751.01135 119.40685 749.6682 120.75 748.01135 120.75C746.3545 120.75 745.01135 119.40685 745.01135 117.75C745.01135 116.09315 746.3545 114.75 748.01135 114.75C749.6682 114.75 751.01135 116.09315 751.01135 117.75Z" fill-rule="nonzero"/><path fill="#000000" fill-opacity="0.0" clip-path="url(#id_0)" d="M791.3977 44.75C791.3977 46.406853 790.05457 47.75 788.3977 47.75C786.74084 47.75 785.3977 46.406853 785.3977 44.75C785.3977 43.093147 786.74084 41.75 788.3977 41.75C790.05457 41.75 791.3977 43.093147 791.3977 44.75Z" fill-rule="nonzero"/><path fill="#000000" fill-opacity="0.0" clip-path="url(#id_0)" d="M831.7841 263.75C831.7841 265.40686 830.4409 266.75 828.7841 266.75C827.12726 266.75 825.7841 265.40686 825.7841 263.75C825.7841 262.09314 827.12726 260.75 828.7841 260.75C830.4409 260.75 831.7841 262.09314 831.7841 263.75Z" fill-rule="nonzero"/><path fill="#000000" fill-opacity="0.0" clip-path="url(#id_0)" d="M872.1705 44.75C872.1705 46.406853 870.82733 47.75 869.1705 47.75C867.5136 47.75 866.1705 46.406853 866.1705 44.75C866.1705 43.093147 867.5136 41.75 869.1705 41.75C870.82733 41.75 872.1705 43.093147 872.1705 44.75Z" fill-rule="nonzero"/><path fill="#000000" fill-opacity="0.0" clip-path="url(#id_0)" d="M912.5568 263.75C912.5568 265.40686 911.2137 266.75 909.5568 266.75C907.89996 266.75 906.5568 265.40686 906.5568 263.75C906.5568 262.09314 907.89996 260.75 909.5568 260.75C911.2137 260.75 912.5568 262.09314 912.5568 263.75Z" fill-rule="nonzero"/><path fill="#000000" fill-opacity="0.0" clip-path="url(#id_0)" d="M64.443184 205.35C64.443184 207.00685 63.100037 208.35 61.44318 208.35C59.786327 208.35 58.44318 207.00685 58.44318 205.35C58.44318 203.69315 59.786327 202.35 61.44318 202.35C63.100037 202.35 64.443184 203.69315 64.443184 205.35Z" fill-rule="nonzero"/><path fill="#000000" fill-opacity="0.0" clip-path="url(#id_0)" d="M104.829544 146.95C104.829544 148.60686 103.4864 149.95 101.829544 149.95C100.17269 149.95 98.829544 148.60686 98.829544 146.95C98.829544 145.29315 100.17269 143.95 101.829544 143.95C103.4864 143.95 104.829544 145.29315 104.829544 146.95Z" fill-rule="nonzero"/><path fill="#000000" fill-opacity="0.0" clip-path="url(#id_0)" d="M145.21591 249.15C145.21591 250.80685 143.87276 252.15 142.21591 252.15C140.55905 252.15 139.21591 250.80685 139.21591 249.15C139.21591 247.49315 140.55905 246.15 142.21591 246.15C143.87276 246.15 145.21591 247.49315 145.21591 249.15Z" fill-rule="nonzero"/><path fill="#000000" fill-opacity="0.0" clip-path="url(#id_0)" d="M185.60228 44.75C185.60228 46.406853 184.25912 47.75 182.60228 47.75C180.94542 47.75 179.60228 46.406853 179.60228 44.75C179.60228 43.093147 180.94542 41.75 182.60228 41.75C184.25912 41.75 185.60228 43.093147 185.60228 44.75Z" fill-rule="nonzero"/><path fill="#000000" fill-opacity="0.0" clip-path="url(#id_0)" d="M225.98863 161.55C225.98863 163.20685 224.6455 164.55 222.98863 164.55C221.33179 164.55 219.98863 163.20685 219.98863 161.55C219.98863 159.89314 221.33179 158.55 222.98863 158.55C224.6455 158.55 225.98863 159.89314 225.98863 161.55Z" fill-rule="nonzero"/><path fill="#000000" fill-opacity="0.0" clip-path="url(#id_0)" d="M266.375 44.75C266.375 46.406853 265.03186 47.75 263.375 47.75C261.71814 47.75 260.375 46.406853 260.375 44.75C260.375 43.093147 261.71814 41.75 263.375 41.75C265.03186 41.75 266.375 43.093147 266.375 44.75Z" fill-rule="nonzero"/><path fill="#000000" fill-opacity="0.0" clip-path="url(#id_0)" d="M306.76135 234.55C306.76135 236.20685 305.4182 237.55 303.76135 237.55C302.10452 237.55 300.76135 236.20685 300.76135 234.55C300.76135 232.89314 302.10452 231.55 303.76135 231.55C305.4182 231.55 306.76135 232.89314 306.76135 234.55Z" fill-rule="nonzero"/><path fill="#000000" fill-opacity="0.0" clip-path="url(#id_0)" d="M347.14774 146.95C347.14774 148.60686 345.8046 149.95 344.14774 149.95C342.49088 149.95 341.14774 148.60686 341.14774 146.95C341.14774 145.29315 342.49088 143.95 344.14774 143.95C345.8046 143.95 347.14774 145.29315 347.14774 146.95Z" fill-rule="nonzero"/><path fill="#000000" fill-opacity="0.0" clip-path="url(#id_0)" d="M387.5341 117.75C387.5341 119.40685 386.19095 120.75 384.5341 120.75C382.87723 120.75 381.5341 119.40685 381.5341 117.75C381.5341 116.09315 382.87723 114.75 384.5341 114.75C386.19095 114.75 387.5341 116.09315 387.5341 117.75Z" fill-rule="nonzero"/><path fill="#000000" fill-opacity="0.0" clip-path="url(#id_0)" d="M427.92044 44.75C427.92044 46.406853 426.5773 47.75 424.92044 47.75C423.2636 47.75 421.92044 46.406853 421.92044 44.75C421.92044 43.093147 423.2636 41.75 424.92044 41.75C426.5773 41.75 427.92044 43.093147 427.92044 44.75Z" fill-rule="nonzero"/><path fill="#000000" fill-opacity="0.0" clip-path="url(#id_0)" d="M468.30682 219.95C468.30682 221.60686 466.96368 222.95 465.30682 222.95C463.64996 222.95 462.30682 221.60686 462.30682 219.95C462.30682 218.29315 463.64996 216.95 465.30682 216.95C466.96368 216.95 468.30682 218.29315 468.30682 219.95Z" fill-rule="nonzero"/><path fill="#000000" fill-opacity="0.0" clip-path="url(#id_0)" d="M508.69318 132.35C508.69318 134.00685 507.35004 135.35 505.69318 135.35C504.03632 135.35 502.69318 134.00685 502.69318 132.35C502.69318 130.69315 504.03632 129.35 505.69318 129.35C507.35004 129.35 508.69318 130.69315 508.69318 132.35Z" fill-rule="nonzero"/><path fill="#000000" fill-opacity="0.0" clip-path="url(#id_0)" d="M549.0795 161.55C549.0795 163.20685 547.7364 164.55 546.0795 164.55C544.42267 164.55 543.0795 163.20685 543.0795 161.55C543.0795 159.89314 544.42267 158.55 546.0795 158.55C547.7364 158.55 549.0795 159.89314 549.0795 161.55Z" fill-rule="nonzero"/><path fill="#000000" fill-opacity="0.0" clip-path="url(#id_0)" d="M589.4659 44.75C589.4659 46.406853 588.12274 47.75 586.4659 47.75C584.8091 47.75 583.4659 46.406853 583.4659 44.75C583.4659 43.093147 584.8091 41.75 586.4659 41.75C588.12274 41.75 589.4659 43.093147 589.4659 44.75Z" fill-rule="nonzero"/><path fill="#000000" fill-opacity="0.0" clip-path="url(#id_0)" d="M629.8523 219.95C629.8523 221.60686 628.50916 222.95 626.8523 222.95C625.19543 222.95 623.8523 221.60686 623.8523 219.95C623.8523 218.29315 625.19543 216.95 626.8523 216.95C628.50916 216.95 629.8523 218.29315 629.8523 219.95Z" fill-rule="nonzero"/><path fill="#000000" fill-opacity="0.0" clip-path="url(#id_0)" d="M670.23865 44.75C670.23865 46.406853 668.8955 47.75 667.23865 47.75C665.5818 47.75 664.23865 46.406853 664.23865 44.75C664.23865 43.093147 665.5818 41.75 667.23865 41.75C668.8955 41.75 670.23865 43.093147 670.23865 44.75Z" fill-rule="nonzero"/><path fill="#000000" fill-opacity="0.0" clip-path="url(#id_0)" d="M710.625 161.55C710.625 163.20685 709.28186 164.55 707.625 164.55C705.96814 164.55 704.625 163.20685 704.625 161.55C704.625 159.89314 705.96814 158.55 707.625 158.55C709.28186 158.55 710.625 159.89314 710.625 161.55Z" fill-rule="nonzero"/><path fill="#000000" fill-opacity="0.0" clip-path="url(#id_0)" d="M751.01135 103.15C751.01135 104.806854 749.6682 106.15 748.01135 106.15C746.3545 106.15 745.01135 104.806854 745.01135 103.15C745.01135 101.49315 746.3545 100.15 748.01135 100.15C749.6682 100.15 751.01135 101.49315 751.01135 103.15Z" fill-rule="nonzero"/><path fill="#000000" fill-opacity="0.0" clip-path="url(#id_0)" d="M791.3977 219.95C791.3977 221.60686 790.05457 222.95 788.3977 222.95C786.74084 222.95 785.3977 221.60686 785.3977 219.95C785.3977 218.29315 786.74084 216.95 788.3977 216.95C790.05457 216.95 791.3977 218.29315 791.3977 219.95Z" fill-rule="nonzero"/><path fill="#000000" fill-opacity="0.0" clip-path="url(#id_0)" d="M831.7841 263.75C831.7841 265.40686 830.4409 266.75 828.7841 266.75C827.12726 266.75 825.7841 265.40686 825.7841 263.75C825.7841 262.09314 827.12726 260.75 828.7841 260.75C830.4409 260.75 831.7841 262.09314 831.7841 263.75Z" fill-rule="nonzero"/><path fill="#000000" fill-opacity="0.0" clip-path="url(#id_0)" d="M872.1705 146.95C872.1705 148.60686 870.82733 149.95 869.1705 149.95C867.5136 149.95 866.1705 148.60686 866.1705 146.95C866.1705 145.29315 867.5136 143.95 869.1705 143.95C870.82733 143.95 872.1705 145.29315 872.1705 146.95Z" fill-rule="nonzero"/><path fill="#000000" fill-opacity="0.0" clip-path="url(#id_0)" d="M912.5568 161.55C912.5568 163.20685 911.2137 164.55 909.5568 164.55C907.89996 164.55 906.5568 163.20685 906.5568 161.55C906.5568 159.89314 907.89996 158.55 909.5568 158.55C911.2137 158.55 912.5568 159.89314 912.5568 161.55Z" fill-rule="nonzero"/><path fill="#000000" fill-opacity="0.0" clip-path="url(#id_0)" d="M64.443184 146.95C64.443184 148.60686 63.100037 149.95 61.44318 149.95C59.786327 149.95 58.44318 148.60686 58.44318 146.95C58.44318 145.29315 59.786327 143.95 61.44318 143.95C63.100037 143.95 64.443184 145.29315 64.443184 146.95Z" fill-rule="nonzero"/><path fill="#000000" fill-opacity="0.0" clip-path="url(#id_0)" d="M104.829544 88.55C104.829544 90.206856 103.4864 91.55 101.829544 91.55C100.17269 91.55 98.829544 90.206856 98.829544 88.55C98.829544 86.89314 100.17269 85.55 101.829544 85.55C103.4864 85.55 104.829544 86.89314 104.829544 88.55Z" fill-rule="nonzero"/><path fill="#000000" fill-opacity="0.0" clip-path="url(#id_0)" d="M145.21591 73.95C145.21591 75.60686 143.87276 76.95 142.21591 76.95C140.55905 76.95 139.21591 75.60686 139.21591 73.95C139.21591 72.293144 140.55905 70.95 142.21591 70.95C143.87276 70.95 145.21591 72.293144 145.21591 73.95Z" fill-rule="nonzero"/><path fill="#000000" fill-opacity="0.0" clip-path="url(#id_0)" d="M185.60228 219.95C185.60228 221.60686 184.25912 222.95 182.60228 222.95C180.94542 222.95 179.60228 221.60686 179.60228 219.95C179.60228 218.29315 180.94542 216.95 182.60228 216.95C184.25912 216.95 185.60228 218.29315 185.60228 219.95Z" fill-rule="nonzero"/><path fill="#000000" fill-opacity="0.0" clip-path="url(#id_0)" d="M225.98863 132.35C225.98863 134.00685 224.6455 135.35 222.98863 135.35C221.33179 135.35 219.98863 134.00685 219.98863 132.35C219.98863 130.69315 221.33179 129.35 222.98863 129.35C224.6455 129.35 225.98863 130.69315 225.98863 132.35Z" fill-rule="nonzero"/><path fill="#000000" fill-opacity="0.0" clip-path="url(#id_0)" d="M266.375 73.95C266.375 75.60686 265.03186 76.95 263.375 76.95C261.71814 76.95 260.375 75.60686 260.375 73.95C260.375 72.293144 261.71814 70.95 263.375 70.95C265.03186 70.95 266.375 72.293144 266.375 73.95Z" fill-rule="nonzero"/><path fill="#000000" fill-opacity="0.0" clip-path="url(#id_0)" d="M306.76135 88.55C306.76135 90.206856 305.4182 91.55 303.76135 91.55C302.10452 91.55 300.76135 90.206856 300.76135 88.55C300.76135 86.89314 302.10452 85.55 303.76135 85.55C305.4182 85.55 306.76135 86.89314 306.76135 88.55Z" fill-rule="nonzero"/><path fill="#000000" fill-opacity="0.0" clip-path="url(#id_0)" d="M347.14774 249.15C347.14774 250.80685 345.8046 252.15 344.14774 252.15C342.49088 252.15 341.14774 250.80685 341.14774 249.15C341.14774 247.49315 342.49088 246.15 344.14774 246.15C345.8046 246.15 347.14774 247.49315 347.14774 249.15Z" fill-rule="nonzero"/><path fill="#000000" fill-opacity="0.0" clip-path="url(#id_0)" d="M387.5341 249.15C387.5341 250.80685 386.19095 252.15 384.5341 252.15C382.87723 252.15 381.5341 250.80685 381.5341 249.15C381.5341 247.49315 382.87723 246.15 384.5341 246.15C386.19095 246.15 387.5341 247.49315 387.5341 249.15Z" fill-rule="nonzero"/><path fill="#000000" fill-opacity="0.0" clip-path="url(#id_0)" d="M427.92044 132.35C427.92044 134.00685 426.5773 135.35 424.92044 135.35C423.2636 135.35 421.92044 134.00685 421.92044 132.35C421.92044 130.69315 423.2636 129.35 424.92044 129.35C426.5773 129.35 427.92044 130.69315 427.92044 132.35Z" fill-rule="nonzero"/><path fill="#000000" fill-opacity="0.0" clip-path="url(#id_0)" d="M468.30682 132.35C468.30682 134.00685 466.96368 135.35 465.30682 135.35C463.64996 135.35 462.30682 134.00685 462.30682 132.35C462.30682 130.69315 463.64996 129.35 465.30682 129.35C466.96368 129.35 468.30682 130.69315 468.30682 132.35Z" fill-rule="nonzero"/><path fill="#000000" fill-opacity="0.0" clip-path="url(#id_0)" d="M508.69318 88.55C508.69318 90.206856 507.35004 91.55 505.69318 91.55C504.03632 91.55 502.69318 90.206856 502.69318 88.55C502.69318 86.89314 504.03632 85.55 505.69318 85.55C507.35004 85.55 508.69318 86.89314 508.69318 88.55Z" fill-rule="nonzero"/><path fill="#000000" fill-opacity="0.0" clip-path="url(#id_0)" d="M549.0795 73.95C549.0795 75.60686 547.7364 76.95 546.0795 76.95C544.42267 76.95 543.0795 75.60686 543.0795 73.95C543.0795 72.293144 544.42267 70.95 546.0795 70.95C547.7364 70.95 549.0795 72.293144 549.0795 73.95Z" fill-rule="nonzero"/><path fill="#000000" fill-opacity="0.0" clip-path="url(#id_0)" d="M589.4659 219.95C589.4659 221.60686 588.12274 222.95 586.4659 222.95C584.8091 222.95 583.4659 221.60686 583.4659 219.95C583.4659 218.29315 584.8091 216.95 586.4659 216.95C588.12274 216.95 589.4659 218.29315 589.4659 219.95Z" fill-rule="nonzero"/><path fill="#000000" fill-opacity="0.0" clip-path="url(#id_0)" d="M629.8523 234.55C629.8523 236.20685 628.50916 237.55 626.8523 237.55C625.19543 237.55 623.8523 236.20685 623.8523 234.55C623.8523 232.89314 625.19543 231.55 626.8523 231.55C628.50916 231.55 629.8523 232.89314 629.8523 234.55Z" fill-rule="nonzero"/><path fill="#000000" fill-opacity="0.0" clip-path="url(#id_0)" d="M670.23865 161.55C670.23865 163.20685 668.8955 164.55 667.23865 164.55C665.5818 164.55 664.23865 163.20685 664.23865 161.55C664.23865 159.89314 665.5818 158.55 667.23865 158.55C668.8955 158.55 670.23865 159.89314 670.23865 161.55Z" fill-rule="nonzero"/><path fill="#000000" fill-opacity="0.0" clip-path="url(#id_0)" d="M710.625 103.15C710.625 104.806854 709.28186 106.15 707.625 106.15C705.96814 106.15 704.625 104.806854 704.625 103.15C704.625 101.49315 705.96814 100.15 707.625 100.15C709.28186 100.15 710.625 101.49315 710.625 103.15Z" fill-rule="nonzero"/><path fill="#000000" fill-opacity="0.0" clip-path="url(#id_0)" d="M751.01135 161.55C751.01135 163.20685 749.6682 164.55 748.01135 164.55C746.3545 164.55 745.01135 163.20685 745.01135 161.55C745.01135 159.89314 746.3545 158.55 748.01135 158.55C749.6682 158.55 751.01135 159.89314 751.01135 161.55Z" fill-rule="nonzero"/><path fill="#000000" fill-opacity="0.0" clip-path="url(#id_0)" d="M791.3977 88.55C791.3977 90.206856 790.05457 91.55 788.3977 91.55C786.74084 91.55 785.3977 90.206856 785.3977 88.55C785.3977 86.89314 786.74084 85.55 788.3977 85.55C790.05457 85.55 791.3977 86.89314 791.3977 88.55Z" fill-rule="nonzero"/><path fill="#000000" fill-opacity="0.0" clip-path="url(#id_0)" d="M831.7841 44.75C831.7841 46.406853 830.4409 47.75 828.7841 47.75C827.12726 47.75 825.7841 46.406853 825.7841 44.75C825.7841 43.093147 827.12726 41.75 828.7841 41.75C830.4409 41.75 831.7841 43.093147 831.7841 44.75Z" fill-rule="nonzero"/><path fill="#000000" fill-opacity="0.0" clip-path="url(#id_0)" d="M872.1705 88.55C872.1705 90.206856 870.82733 91.55 869.1705 91.55C867.5136 91.55 866.1705 90.206856 866.1705 88.55C866.1705 86.89314 867.5136 85.55 869.1705 85.55C870.82733 85.55 872.1705 86.89314 872.1705 88.55Z" fill-rule="nonzero"/><path fill="#000000" fill-opacity="0.0" clip-path="url(#id_0)" d="M912.5568 73.95C912.5568 75.60686 911.2137 76.95 909.5568 76.95C907.89996 76.95 906.5568 75.60686 906.5568 73.95C906.5568 72.293144 907.89996 70.95 909.5568 70.95C911.2137 70.95 912.5568 72.293144 912.5568 73.95Z" fill-rule="nonzero"/><path fill="#000000" fill-opacity="0.0" clip-path="url(#id_0)" d="M64.443184 151.81667C64.443184 153.47353 63.100037 154.81667 61.44318 154.81667C59.786327 154.81667 58.44318 153.47353 58.44318 151.81667C58.44318 150.1598 59.786327 148.81667 61.44318 148.81667C63.100037 148.81667 64.443184 150.1598 64.443184 151.81667Z" fill-rule="nonzero"/><path fill="#000000" fill-opacity="0.0" clip-path="url(#id_0)" d="M104.829544 185.88333C104.829544 187.54019 103.4864 188.88333 101.829544 188.88333C100.17269 188.88333 98.829544 187.54019 98.829544 185.88333C98.829544 184.22649 100.17269 182.88333 101.829544 182.88333C103.4864 182.88333 104.829544 184.22649 104.829544 185.88333Z" fill-rule="nonzero"/><path fill="#000000" fill-opacity="0.0" clip-path="url(#id_0)" d="M145.21591 215.08333C145.21591 216.74019 143.87276 218.08333 142.21591 218.08333C140.55905 218.08333 139.21591 216.74019 139.21591 215.08333C139.21591 213.42648 140.55905 212.08333 142.21591 212.08333C143.87276 212.08333 145.21591 213.42648 145.21591 215.08333Z" fill-rule="nonzero"/><path fill="#000000" fill-opacity="0.0" clip-path="url(#id_0)" d="M185.60228 44.75C185.60228 46.406853 184.25912 47.75 182.60228 47.75C180.94542 47.75 179.60228 46.406853 179.60228 44.75C179.60228 43.093147 180.94542 41.75 182.60228 41.75C184.25912 41.75 185.60228 43.093147 185.60228 44.75Z" fill-rule="nonzero"/><path fill="#000000" fill-opacity="0.0" clip-path="url(#id_0)" d="M225.98863 190.75C225.98863 192.40686 224.6455 193.75 222.98863 193.75C221.33179 193.75 219.98863 192.40686 219.98863 190.75C219.98863 189.09314 221.33179 187.75 222.98863 187.75C224.6455 187.75 225.98863 189.09314 225.98863 190.75Z" fill-rule="nonzero"/><path fill="#000000" fill-opacity="0.0" clip-path="url(#id_0)" d="M266.375 98.28333C266.375 99.940186 265.03186 101.28333 263.375 101.28333C261.71814 101.28333 260.375 99.940186 260.375 98.28333C260.375 96.62648 261.71814 95.28333 263.375 95.28333C265.03186 95.28333 266.375 96.62648 266.375 98.28333Z" fill-rule="nonzero"/><path fill="#000000" fill-opacity="0.0" clip-path="url(#id_0)" d="M306.76135 195.61667C306.76135 197.27351 305.4182 198.61667 303.76135 198.61667C302.10452 198.61667 300.76135 197.27351 300.76135 195.61667C300.76135 193.95981 302.10452 192.61667 303.76135 192.61667C305.4182 192.61667 306.76135 193.95981 306.76135 195.61667Z" fill-rule="nonzero"/><path fill="#000000" fill-opacity="0.0" clip-path="url(#id_0)" d="M347.14774 112.88333C347.14774 114.540184 345.8046 115.88333 344.14774 115.88333C342.49088 115.88333 341.14774 114.540184 341.14774 112.88333C341.14774 111.22648 342.49088 109.88333 344.14774 109.88333C345.8046 109.88333 347.14774 111.22648 347.14774 112.88333Z" fill-rule="nonzero"/><path fill="#000000" fill-opacity="0.0" clip-path="url(#id_0)" d="M387.5341 166.41667C387.5341 168.07352 386.19095 169.41667 384.5341 169.41667C382.87723 169.41667 381.5341 168.07352 381.5341 166.41667C381.5341 164.75981 382.87723 163.41667 384.5341 163.41667C386.19095 163.41667 387.5341 164.75981 387.5341 166.41667Z" fill-rule="nonzero"/><path fill="#000000" fill-opacity="0.0" clip-path="url(#id_0)" d="M427.92044 44.75C427.92044 46.406853 426.5773 47.75 424.92044 47.75C423.2636 47.75 421.92044 46.406853 421.92044 44.75C421.92044 43.093147 423.2636 41.75 424.92044 41.75C426.5773 41.75 427.92044 43.093147 427.92044 44.75Z" fill-rule="nonzero"/><path fill="#000000" fill-opacity="0.0" clip-path="url(#id_0)" d="M468.30682 234.55C468.30682 236.20685 466.96368 237.55 465.30682 237.55C463.64996 237.55 462.30682 236.20685 462.30682 234.55C462.30682 232.89314 463.64996 231.55 465.30682 231.55C466.96368 231.55 468.30682 232.89314 468.30682 234.55Z" fill-rule="nonzero"/><path fill="#000000" fill-opacity="0.0" clip-path="url(#id_0)" d="M508.69318 103.15C508.69318 104.806854 507.35004 106.15 505.69318 106.15C504.03632 106.15 502.69318 104.806854 502.69318 103.15C502.69318 101.49315 504.03632 100.15 505.69318 100.15C507.35004 100.15 508.69318 101.49315 508.69318 103.15Z" fill-rule="nonzero"/><path fill="#000000" fill-opacity="0.0" clip-path="url(#id_0)" d="M549.0795 195.61667C549.0795 197.27351 547.7364 198.61667 546.0795 198.61667C544.42267 198.61667 543.0795 197.27351 543.0795 195.61667C543.0795 193.95981 544.42267 192.61667 546.0795 192.61667C547.7364 192.61667 549.0795 193.95981 549.0795 195.61667Z" fill-rule="nonzero"/><path fill="#000000" fill-opacity="0.0" clip-path="url(#id_0)" d="M589.4659 78.816666C589.4659 80.47352 588.12274 81.816666 586.4659 81.816666C584.8091 81.816666 583.4659 80.47352 583.4659 78.816666C583.4659 77.15981 584.8091 75.816666 586.4659 75.816666C588.12274 75.816666 589.4659 77.15981 589.4659 78.816666Z" fill-rule="nonzero"/><path fill="#000000" fill-opacity="0.0" clip-path="url(#id_0)" d="M629.8523 161.55C629.8523 163.20685 628.50916 164.55 626.8523 164.55C625.19543 164.55 623.8523 163.20685 623.8523 161.55C623.8523 159.89314 625.19543 158.55 626.8523 158.55C628.50916 158.55 629.8523 159.89314 629.8523 161.55Z" fill-rule="nonzero"/><path fill="#000000" fill-opacity="0.0" clip-path="url(#id_0)" d="M670.23865 112.88333C670.23865 114.540184 668.8955 115.88333 667.23865 115.88333C665.5818 115.88333 664.23865 114.540184 664.23865 112.88333C664.23865 111.22648 665.5818 109.88333 667.23865 109.88333C668.8955 109.88333 670.23865 111.22648 670.23865 112.88333Z" fill-rule="nonzero"/><path fill="#000000" fill-opacity="0.0" clip-path="url(#id_0)" d="M710.625 176.15C710.625 177.80685 709.28186 179.15 707.625 179.15C705.96814 179.15 704.625 177.80685 704.625 176.15C704.625 174.49315 705.96814 173.15 707.625 173.15C709.28186 173.15 710.625 174.49315 710.625 176.15Z" fill-rule="nonzero"/><path fill="#000000" fill-opacity="0.0" clip-path="url(#id_0)" d="M751.01135 108.01667C751.01135 109.67352 749.6682 111.01667 748.01135 111.01667C746.3545 111.01667 745.01135 109.67352 745.01135 108.01667C745.01135 106.35981 746.3545 105.01667 748.01135 105.01667C749.6682 105.01667 751.01135 106.35981 751.01135 108.01667Z" fill-rule="nonzero"/><path fill="#000000" fill-opacity="0.0" clip-path="url(#id_0)" d="M791.3977 161.55C791.3977 163.20685 790.05457 164.55 788.3977 164.55C786.74084 164.55 785.3977 163.20685 785.3977 161.55C785.3977 159.89314 786.74084 158.55 788.3977 158.55C790.05457 158.55 791.3977 159.89314 791.3977 161.55Z" fill-rule="nonzero"/><path fill="#000000" fill-opacity="0.0" clip-path="url(#id_0)" d="M831.7841 263.75C831.7841 265.40686 830.4409 266.75 828.7841 266.75C827.12726 266.75 825.7841 265.40686 825.7841 263.75C825.7841 262.09314 827.12726 260.75 828.7841 260.75C830.4409 260.75 831.7841 262.09314 831.7841 263.75Z" fill-rule="nonzero"/><path fill="#000000" fill-opacity="0.0" clip-path="url(#id_0)" d="M872.1705 112.88333C872.1705 114.540184 870.82733 115.88333 869.1705 115.88333C867.5136 115.88333 866.1705 114.540184 866.1705 112.88333C866.1705 111.22648 867.5136 109.88333 869.1705 109.88333C870.82733 109.88333 872.1705 111.22648 872.1705 112.88333Z" fill-rule="nonzero"/><path fill="#000000" fill-opacity="0.0" clip-path="url(#id_0)" d="M912.5568 195.61667C912.5568 197.27351 911.2137 198.61667 909.5568 198.61667C907.89996 198.61667 906.5568 197.27351 906.5568 195.61667C906.5568 193.95981 907.89996 192.61667 909.5568 192.61667C911.2137 192.61667 912.5568 193.95981 912.5568 195.61667Z" fill-rule="nonzero"/><path fill="#000000" d="M24.625 265.17188L24.625 264.10938L27.875 264.10938L27.875 265.17188L24.625 265.17188ZM28.75 265.5L29.859375 265.40625Q29.984375 266.21875 30.421875 266.625Q30.875 267.03125 31.515625 267.03125Q32.265625 267.03125 32.796875 266.45312Q33.328125 265.875 33.328125 264.9375Q33.328125 264.03125 32.8125 263.51562Q32.3125 262.98438 31.484375 262.98438Q30.984375 262.98438 30.5625 263.21875Q30.15625 263.45312 29.921875 263.8125L28.9375 263.6875L29.765625 259.28125L34.046875 259.28125L34.046875 260.28125L30.609375 260.28125L30.15625 262.59375Q30.921875 262.04688 31.765625 262.04688Q32.890625 262.04688 33.65625 262.82812Q34.4375 263.60938 34.4375 264.84375Q34.4375 266.0 33.765625 266.85938Q32.9375 267.89062 31.515625 267.89062Q30.34375 267.89062 29.59375 267.23438Q28.859375 266.57812 28.75 265.5Z" fill-rule="nonzero"/><path fill="#000000" d="M28.75 190.51562Q28.75 188.98438 29.0625 188.0625Q29.375 187.125 29.984375 186.625Q30.609375 186.125 31.546875 186.125Q32.234375 186.125 32.75 186.40625Q33.28125 186.6875 33.625 187.21875Q33.96875 187.73438 34.15625 188.48438Q34.34375 189.23438 34.34375 190.51562Q34.34375 192.03125 34.03125 192.95312Q33.734375 193.875 33.109375 194.39062Q32.5 194.89062 31.546875 194.89062Q30.3125 194.89062 29.59375 194.0Q28.75 192.9375 28.75 190.51562ZM29.828125 190.51562Q29.828125 192.625 30.328125 193.32812Q30.828125 194.03125 31.546875 194.03125Q32.28125 194.03125 32.765625 193.32812Q33.265625 192.625 33.265625 190.51562Q33.265625 188.39062 32.765625 187.70312Q32.28125 187.0 31.53125 187.0Q30.8125 187.0 30.375 187.60938Q29.828125 188.39062 29.828125 190.51562Z" fill-rule="nonzero"/><path fill="#000000" d="M28.75 119.5L29.859375 119.40625Q29.984375 120.21875 30.421875 120.625Q30.875 121.03125 31.515625 121.03125Q32.265625 121.03125 32.796875 120.453125Q33.328125 119.875 33.328125 118.9375Q33.328125 118.03125 32.8125 117.515625Q32.3125 116.984375 31.484375 116.984375Q30.984375 116.984375 30.5625 117.21875Q30.15625 117.453125 29.921875 117.8125L28.9375 117.6875L29.765625 113.28125L34.046875 113.28125L34.046875 114.28125L30.609375 114.28125L30.15625 116.59375Q30.921875 116.046875 31.765625 116.046875Q32.890625 116.046875 33.65625 116.828125Q34.4375 117.609375 34.4375 118.84375Q34.4375 120.0 33.765625 120.859375Q32.9375 121.890625 31.515625 121.890625Q30.34375 121.890625 29.59375 121.234375Q28.859375 120.578125 28.75 119.5Z" fill-rule="nonzero"/><path fill="#000000" d="M25.71875 48.75L24.671875 48.75L24.671875 42.03125Q24.28125 42.390625 23.65625 42.765625Q23.046875 43.125 22.5625 43.296875L22.5625 42.28125Q23.4375 41.859375 24.09375 41.28125Q24.765625 40.6875 25.046875 40.125L25.71875 40.125L25.71875 48.75ZM28.75 44.515625Q28.75 42.984375 29.0625 42.0625Q29.375 41.125 29.984375 40.625Q30.609375 40.125 31.546875 40.125Q32.234375 40.125 32.75 40.40625Q33.28125 40.6875 33.625 41.21875Q33.96875 41.734375 34.15625 42.484375Q34.34375 43.234375 34.34375 44.515625Q34.34375 46.03125 34.03125 46.953125Q33.734375 47.875 33.109375 48.390625Q32.5 48.890625 31.546875 48.890625Q30.3125 48.890625 29.59375 48.0Q28.75 46.9375 28.75 44.515625ZM29.828125 44.515625Q29.828125 46.625 30.328125 47.328125Q30.828125 48.03125 31.546875 48.03125Q32.28125 48.03125 32.765625 47.328125Q33.265625 46.625 33.265625 44.515625Q33.265625 42.390625 32.765625 41.703125Q32.28125 41.0 31.53125 41.0Q30.8125 41.0 30.375 41.609375Q29.828125 42.390625 29.828125 44.515625Z" fill-rule="nonzero"/><path stroke="#c9daf8" stroke-width="4.0" stroke-linecap="butt" stroke-dasharray="4.0,5.0" d="M313.5 21.25L326.5 21.25" fill-rule="nonzero"/><path fill="#1a1a1a" d="M335.39062 25.25L335.39062 16.65625L337.10938 16.65625L339.14062 22.734375Q339.42188 23.59375 339.54688 24.015625Q339.6875 23.546875 340.0 22.640625L342.0625 16.65625L343.59375 16.65625L343.59375 25.25L342.5 25.25L342.5 18.0625L340.0 25.25L338.96875 25.25L336.48438 17.9375L336.48438 25.25L335.39062 25.25ZM349.54688 23.25L350.64062 23.375Q350.39062 24.328125 349.6875 24.859375Q348.98438 25.390625 347.90625 25.390625Q346.54688 25.390625 345.73438 24.546875Q344.9375 23.703125 344.9375 22.1875Q344.9375 20.625 345.75 19.765625Q346.5625 18.890625 347.84375 18.890625Q349.09375 18.890625 349.875 19.734375Q350.67188 20.578125 350.67188 22.125Q350.67188 22.21875 350.67188 22.40625L346.03125 22.40625Q346.09375 23.4375 346.60938 23.984375Q347.125 24.515625 347.90625 24.515625Q348.48438 24.515625 348.89062 24.21875Q349.3125 23.90625 349.54688 23.25ZM346.09375 21.546875L349.5625 21.546875Q349.5 20.75 349.17188 20.359375Q348.65625 19.75 347.85938 19.75Q347.125 19.75 346.625 20.234375Q346.14062 20.71875 346.09375 21.546875Z" fill-rule="nonzero"/><path stroke="#f4cccc" stroke-width="4.0" stroke-linecap="butt" stroke-dasharray="4.0,5.0" d="M367.5 21.25L380.5 21.25" fill-rule="nonzero"/><path fill="#1a1a1a" d="M389.04688 22.484375L390.10938 22.390625Q390.1875 23.046875 390.46875 23.453125Q390.75 23.859375 391.32812 24.125Q391.92188 24.375 392.65625 24.375Q393.29688 24.375 393.79688 24.1875Q394.29688 23.984375 394.53125 23.65625Q394.78125 23.3125 394.78125 22.921875Q394.78125 22.515625 394.54688 22.21875Q394.3125 21.90625 393.78125 21.703125Q393.42188 21.5625 392.23438 21.28125Q391.0625 21.0 390.59375 20.75Q389.96875 20.421875 389.67188 19.953125Q389.375 19.46875 389.375 18.875Q389.375 18.234375 389.73438 17.671875Q390.10938 17.09375 390.8125 16.8125Q391.53125 16.515625 392.39062 16.515625Q393.34375 16.515625 394.07812 16.828125Q394.8125 17.125 395.20312 17.734375Q395.59375 18.328125 395.625 19.078125L394.53125 19.15625Q394.4375 18.34375 393.92188 17.9375Q393.42188 17.515625 392.4375 17.515625Q391.40625 17.515625 390.9375 17.890625Q390.46875 18.265625 390.46875 18.796875Q390.46875 19.265625 390.79688 19.5625Q391.125 19.859375 392.5 20.171875Q393.89062 20.484375 394.40625 20.71875Q395.15625 21.078125 395.51562 21.609375Q395.875 22.125 395.875 22.828125Q395.875 23.515625 395.48438 24.125Q395.09375 24.71875 394.35938 25.0625Q393.625 25.390625 392.70312 25.390625Q391.53125 25.390625 390.73438 25.0625Q389.95312 24.71875 389.5 24.03125Q389.0625 23.34375 389.04688 22.484375ZM399.59375 24.3125L399.75 25.234375Q399.29688 25.328125 398.95312 25.328125Q398.375 25.328125 398.0625 25.15625Q397.75 24.96875 397.60938 24.671875Q397.48438 24.375 397.48438 23.421875L397.48438 19.84375L396.71875 19.84375L396.71875 19.03125L397.48438 19.03125L397.48438 17.484375L398.53125 16.859375L398.53125 19.03125L399.59375 19.03125L399.59375 19.84375L398.53125 19.84375L398.53125 23.484375Q398.53125 23.9375 398.57812 24.0625Q398.64062 24.1875 398.76562 24.265625Q398.89062 24.34375 399.125 24.34375Q399.3125 24.34375 399.59375 24.3125ZM400.29688 17.875L400.29688 16.65625L401.35938 16.65625L401.35938 17.875L400.29688 17.875ZM400.29688 25.25L400.29688 19.03125L401.35938 19.03125L401.35938 25.25L400.29688 25.25ZM403.29688 25.25L403.29688 19.03125L404.23438 19.03125L404.23438 19.90625Q404.92188 18.890625 406.21875 18.890625Q406.78125 18.890625 407.25 19.09375Q407.73438 19.296875 407.96875 19.625Q408.20312 19.953125 408.29688 20.390625Q408.34375 20.6875 408.34375 21.421875L408.34375 25.25L407.29688 25.25L407.29688 21.46875Q407.29688 20.8125 407.17188 20.5Q407.04688 20.1875 406.73438 20.0Q406.42188 19.796875 406.0 19.796875Q405.32812 19.796875 404.82812 20.234375Q404.34375 20.65625 404.34375 21.84375L404.34375 25.25L403.29688 25.25ZM414.54688 23.25L415.64062 23.375Q415.39062 24.328125 414.6875 24.859375Q413.98438 25.390625 412.90625 25.390625Q411.54688 25.390625 410.73438 24.546875Q409.9375 23.703125 409.9375 22.1875Q409.9375 20.625 410.75 19.765625Q411.5625 18.890625 412.84375 18.890625Q414.09375 18.890625 414.875 19.734375Q415.67188 20.578125 415.67188 22.125Q415.67188 22.21875 415.67188 22.40625L411.03125 22.40625Q411.09375 23.4375 411.60938 23.984375Q412.125 24.515625 412.90625 24.515625Q413.48438 24.515625 413.89062 24.21875Q414.3125 23.90625 414.54688 23.25ZM411.09375 21.546875L414.5625 21.546875Q414.5 20.75 414.17188 20.359375Q413.65625 19.75 412.85938 19.75Q412.125 19.75 411.625 20.234375Q411.14062 20.71875 411.09375 21.546875Z" fill-rule="nonzero"/><path stroke="#fff2cc" stroke-width="4.0" stroke-linecap="butt" stroke-dasharray="4.0,5.0" d="M432.5 21.25L445.5 21.25" fill-rule="nonzero"/><path fill="#1a1a1a" d="M454.04688 22.484375L455.10938 22.390625Q455.1875 23.046875 455.46875 23.453125Q455.75 23.859375 456.32812 24.125Q456.92188 24.375 457.65625 24.375Q458.29688 24.375 458.79688 24.1875Q459.29688 23.984375 459.53125 23.65625Q459.78125 23.3125 459.78125 22.921875Q459.78125 22.515625 459.54688 22.21875Q459.3125 21.90625 458.78125 21.703125Q458.42188 21.5625 457.23438 21.28125Q456.0625 21.0 455.59375 20.75Q454.96875 20.421875 454.67188 19.953125Q454.375 19.46875 454.375 18.875Q454.375 18.234375 454.73438 17.671875Q455.10938 17.09375 455.8125 16.8125Q456.53125 16.515625 457.39062 16.515625Q458.34375 16.515625 459.07812 16.828125Q459.8125 17.125 460.20312 17.734375Q460.59375 18.328125 460.625 19.078125L459.53125 19.15625Q459.4375 18.34375 458.92188 17.9375Q458.42188 17.515625 457.4375 17.515625Q456.40625 17.515625 455.9375 17.890625Q455.46875 18.265625 455.46875 18.796875Q455.46875 19.265625 455.79688 19.5625Q456.125 19.859375 457.5 20.171875Q458.89062 20.484375 459.40625 20.71875Q460.15625 21.078125 460.51562 21.609375Q460.875 22.125 460.875 22.828125Q460.875 23.515625 460.48438 24.125Q460.09375 24.71875 459.35938 25.0625Q458.625 25.390625 457.70312 25.390625Q456.53125 25.390625 455.73438 25.0625Q454.95312 24.71875 454.5 24.03125Q454.0625 23.34375 454.04688 22.484375ZM466.89062 19.390625L467.46875 18.640625L468.03125 19.0625L467.40625 19.859375Q467.76562 20.375 467.90625 20.78125Q468.09375 21.359375 468.09375 22.140625Q468.09375 23.90625 467.09375 24.734375Q466.29688 25.390625 465.15625 25.390625Q464.23438 25.390625 463.51562 24.921875L462.90625 25.71875L462.34375 25.296875L462.98438 24.46875Q462.64062 24.078125 462.48438 23.671875Q462.25 23.03125 462.25 22.21875Q462.25 20.46875 463.10938 19.6875Q463.98438 18.890625 465.14062 18.890625Q465.625 18.890625 466.01562 19.015625Q466.42188 19.125 466.89062 19.390625ZM466.29688 20.171875Q465.76562 19.765625 465.17188 19.765625Q464.39062 19.765625 463.85938 20.359375Q463.34375 20.953125 463.34375 22.140625Q463.34375 23.015625 463.64062 23.609375L466.29688 20.171875ZM466.73438 20.734375L464.10938 24.15625Q464.5625 24.515625 465.14062 24.515625Q465.95312 24.515625 466.48438 23.921875Q467.01562 23.328125 467.01562 22.125Q467.01562 21.6875 466.9375 21.359375Q466.89062 21.109375 466.73438 20.734375ZM469.28125 25.25L469.28125 19.03125L470.23438 19.03125L470.23438 19.96875Q470.59375 19.3125 470.89062 19.109375Q471.20312 18.890625 471.57812 18.890625Q472.10938 18.890625 472.65625 19.21875L472.29688 20.203125Q471.90625 19.96875 471.53125 19.96875Q471.17188 19.96875 470.89062 20.1875Q470.625 20.390625 470.51562 20.765625Q470.32812 21.328125 470.32812 21.984375L470.32812 25.25L469.28125 25.25ZM477.54688 23.25L478.64062 23.375Q478.39062 24.328125 477.6875 24.859375Q476.98438 25.390625 475.90625 25.390625Q474.54688 25.390625 473.73438 24.546875Q472.9375 23.703125 472.9375 22.1875Q472.9375 20.625 473.75 19.765625Q474.5625 18.890625 475.84375 18.890625Q477.09375 18.890625 477.875 19.734375Q478.67188 20.578125 478.67188 22.125Q478.67188 22.21875 478.67188 22.40625L474.03125 22.40625Q474.09375 23.4375 474.60938 23.984375Q475.125 24.515625 475.90625 24.515625Q476.48438 24.515625 476.89062 24.21875Q477.3125 23.90625 477.54688 23.25ZM474.09375 21.546875L477.5625 21.546875Q477.5 20.75 477.17188 20.359375Q476.65625 19.75 475.85938 19.75Q475.125 19.75 474.625 20.234375Q474.14062 20.71875 474.09375 21.546875ZM480.29688 25.25L480.29688 19.03125L481.23438 19.03125L481.23438 19.90625Q481.92188 18.890625 483.21875 18.890625Q483.78125 18.890625 484.25 19.09375Q484.73438 19.296875 484.96875 19.625Q485.20312 19.953125 485.29688 20.390625Q485.34375 20.6875 485.34375 21.421875L485.34375 25.25L484.29688 25.25L484.29688 21.46875Q484.29688 20.8125 484.17188 20.5Q484.04688 20.1875 483.73438 20.0Q483.42188 19.796875 483.0 19.796875Q482.32812 19.796875 481.82812 20.234375Q481.34375 20.65625 481.34375 21.84375L481.34375 25.25L480.29688 25.25Z" fill-rule="nonzero"/><path stroke="#ea4335" stroke-width="4.0" stroke-linecap="butt" d="M502.5 21.25L514.5 21.25" fill-rule="nonzero"/><path fill="#1a1a1a" d="M522.4844 25.25L525.78125 16.65625L527.0 16.65625L530.5156 25.25L529.2344 25.25L528.21875 22.640625L524.6406 22.640625L523.6875 25.25L522.4844 25.25ZM524.96875 21.71875L527.875 21.71875L526.9844 19.34375Q526.5625 18.265625 526.375 17.5625Q526.2031 18.390625 525.90625 19.203125L524.96875 21.71875ZM533.0156 25.25L530.65625 19.03125L531.7656 19.03125L533.1094 22.75Q533.3125 23.359375 533.5 24.0Q533.6406 23.515625 533.8906 22.828125L535.28125 19.03125L536.3594 19.03125L534.0 25.25L533.0156 25.25ZM541.5469 23.25L542.6406 23.375Q542.3906 24.328125 541.6875 24.859375Q540.9844 25.390625 539.90625 25.390625Q538.5469 25.390625 537.7344 24.546875Q536.9375 23.703125 536.9375 22.1875Q536.9375 20.625 537.75 19.765625Q538.5625 18.890625 539.84375 18.890625Q541.09375 18.890625 541.875 19.734375Q542.6719 20.578125 542.6719 22.125Q542.6719 22.21875 542.6719 22.40625L538.03125 22.40625Q538.09375 23.4375 538.6094 23.984375Q539.125 24.515625 539.90625 24.515625Q540.4844 24.515625 540.8906 24.21875Q541.3125 23.90625 541.5469 23.25ZM538.09375 21.546875L541.5625 21.546875Q541.5 20.75 541.1719 20.359375Q540.65625 19.75 539.8594 19.75Q539.125 19.75 538.625 20.234375Q538.1406 20.71875 538.09375 21.546875ZM544.28125 25.25L544.28125 19.03125L545.2344 19.03125L545.2344 19.96875Q545.59375 19.3125 545.8906 19.109375Q546.2031 18.890625 546.5781 18.890625Q547.1094 18.890625 547.65625 19.21875L547.2969 20.203125Q546.90625 19.96875 546.53125 19.96875Q546.1719 19.96875 545.8906 20.1875Q545.625 20.390625 545.5156 20.765625Q545.3281 21.328125 545.3281 21.984375L545.3281 25.25L544.28125 25.25ZM552.3594 24.484375Q551.7656 24.984375 551.21875 25.1875Q550.6875 25.390625 550.0625 25.390625Q549.03125 25.390625 548.4844 24.890625Q547.9375 24.390625 547.9375 23.609375Q547.9375 23.15625 548.1406 22.78125Q548.34375 22.390625 548.6875 22.171875Q549.03125 21.9375 549.4531 21.828125Q549.75 21.734375 550.3906 21.65625Q551.65625 21.515625 552.2656 21.296875Q552.2656 21.078125 552.2656 21.03125Q552.2656 20.375 551.96875 20.109375Q551.5625 19.765625 550.7656 19.765625Q550.03125 19.765625 549.6719 20.03125Q549.3125 20.28125 549.1406 20.9375L548.1094 20.796875Q548.25 20.140625 548.5781 19.734375Q548.90625 19.328125 549.5156 19.109375Q550.125 18.890625 550.9219 18.890625Q551.71875 18.890625 552.21875 19.078125Q552.71875 19.265625 552.9531 19.546875Q553.1875 19.828125 553.28125 20.265625Q553.3281 20.53125 553.3281 21.234375L553.3281 22.640625Q553.3281 24.109375 553.3906 24.5Q553.46875 24.890625 553.6719 25.25L552.5625 25.25Q552.40625 24.921875 552.3594 24.484375ZM552.2656 22.125Q551.6875 22.359375 550.5469 22.53125Q549.8906 22.625 549.625 22.75Q549.3594 22.859375 549.2031 23.078125Q549.0625 23.296875 549.0625 23.578125Q549.0625 24.0 549.375 24.28125Q549.7031 24.5625 550.3125 24.5625Q550.9219 24.5625 551.3906 24.296875Q551.875 24.03125 552.09375 23.5625Q552.2656 23.203125 552.2656 22.515625L552.2656 22.125ZM555.09375 25.765625L556.125 25.921875Q556.1875 26.390625 556.4844 26.609375Q556.875 26.90625 557.5469 26.90625Q558.28125 26.90625 558.6719 26.609375Q559.0781 26.3125 559.21875 25.796875Q559.3125 25.46875 559.2969 24.4375Q558.6094 25.25 557.5781 25.25Q556.2969 25.25 555.59375 24.328125Q554.8906 23.390625 554.8906 22.109375Q554.8906 21.21875 555.2031 20.46875Q555.53125 19.703125 556.1406 19.296875Q556.75 18.890625 557.5781 18.890625Q558.6875 18.890625 559.40625 19.78125L559.40625 19.03125L560.375 19.03125L560.375 24.40625Q560.375 25.859375 560.0781 26.46875Q559.78125 27.078125 559.1406 27.421875Q558.5 27.78125 557.5625 27.78125Q556.4531 27.78125 555.7656 27.28125Q555.0781 26.78125 555.09375 25.765625ZM555.96875 22.03125Q555.96875 23.25 556.4531 23.8125Q556.9375 24.375 557.6719 24.375Q558.40625 24.375 558.8906 23.8125Q559.3906 23.25 559.3906 22.0625Q559.3906 20.921875 558.875 20.34375Q558.375 19.765625 557.65625 19.765625Q556.9531 19.765625 556.4531 20.34375Q555.96875 20.90625 555.96875 22.03125ZM566.5469 23.25L567.6406 23.375Q567.3906 24.328125 566.6875 24.859375Q565.9844 25.390625 564.90625 25.390625Q563.5469 25.390625 562.7344 24.546875Q561.9375 23.703125 561.9375 22.1875Q561.9375 20.625 562.75 19.765625Q563.5625 18.890625 564.84375 18.890625Q566.09375 18.890625 566.875 19.734375Q567.6719 20.578125 567.6719 22.125Q567.6719 22.21875 567.6719 22.40625L563.03125 22.40625Q563.09375 23.4375 563.6094 23.984375Q564.125 24.515625 564.90625 24.515625Q565.4844 24.515625 565.8906 24.21875Q566.3125 23.90625 566.5469 23.25ZM563.09375 21.546875L566.5625 21.546875Q566.5 20.75 566.1719 20.359375Q565.65625 19.75 564.8594 19.75Q564.125 19.75 563.625 20.234375Q563.1406 20.71875 563.09375 21.546875ZM571.5 25.390625L573.9844 16.515625L574.8281 16.515625L572.34375 25.390625L571.5 25.390625ZM580.6094 25.25L580.6094 17.671875L577.78125 17.671875L577.78125 16.65625L584.59375 16.65625L584.59375 17.671875L581.75 17.671875L581.75 25.25L580.6094 25.25ZM589.5469 23.25L590.6406 23.375Q590.3906 24.328125 589.6875 24.859375Q588.9844 25.390625 587.90625 25.390625Q586.5469 25.390625 585.7344 24.546875Q584.9375 23.703125 584.9375 22.1875Q584.9375 20.625 585.75 19.765625Q586.5625 18.890625 587.84375 18.890625Q589.09375 18.890625 589.875 19.734375Q590.6719 20.578125 590.6719 22.125Q590.6719 22.21875 590.6719 22.40625L586.03125 22.40625Q586.09375 23.4375 586.6094 23.984375Q587.125 24.515625 587.90625 24.515625Q588.4844 24.515625 588.8906 24.21875Q589.3125 23.90625 589.5469 23.25ZM586.09375 21.546875L589.5625 21.546875Q589.5 20.75 589.1719 20.359375Q588.65625 19.75 587.8594 19.75Q587.125 19.75 586.625 20.234375Q586.1406 20.71875 586.09375 21.546875ZM596.3594 24.484375Q595.7656 24.984375 595.21875 25.1875Q594.6875 25.390625 594.0625 25.390625Q593.03125 25.390625 592.4844 24.890625Q591.9375 24.390625 591.9375 23.609375Q591.9375 23.15625 592.1406 22.78125Q592.34375 22.390625 592.6875 22.171875Q593.03125 21.9375 593.4531 21.828125Q593.75 21.734375 594.3906 21.65625Q595.65625 21.515625 596.2656 21.296875Q596.2656 21.078125 596.2656 21.03125Q596.2656 20.375 595.96875 20.109375Q595.5625 19.765625 594.7656 19.765625Q594.03125 19.765625 593.6719 20.03125Q593.3125 20.28125 593.1406 20.9375L592.1094 20.796875Q592.25 20.140625 592.5781 19.734375Q592.90625 19.328125 593.5156 19.109375Q594.125 18.890625 594.9219 18.890625Q595.71875 18.890625 596.21875 19.078125Q596.71875 19.265625 596.9531 19.546875Q597.1875 19.828125 597.28125 20.265625Q597.3281 20.53125 597.3281 21.234375L597.3281 22.640625Q597.3281 24.109375 597.3906 24.5Q597.46875 24.890625 597.6719 25.25L596.5625 25.25Q596.40625 24.921875 596.3594 24.484375ZM596.2656 22.125Q595.6875 22.359375 594.5469 22.53125Q593.8906 22.625 593.625 22.75Q593.3594 22.859375 593.2031 23.078125Q593.0625 23.296875 593.0625 23.578125Q593.0625 24.0 593.375 24.28125Q593.7031 24.5625 594.3125 24.5625Q594.9219 24.5625 595.3906 24.296875Q595.875 24.03125 596.09375 23.5625Q596.2656 23.203125 596.2656 22.515625L596.2656 22.125ZM599.2969 25.25L599.2969 19.03125L600.2344 19.03125L600.2344 19.90625Q600.53125 19.4375 601.0156 19.171875Q601.5 18.890625 602.125 18.890625Q602.8125 18.890625 603.25 19.171875Q603.7031 19.453125 603.875 19.96875Q604.625 18.890625 605.7969 18.890625Q606.7344 18.890625 607.21875 19.40625Q607.71875 19.90625 607.71875 20.984375L607.71875 25.25L606.6719 25.25L606.6719 21.328125Q606.6719 20.703125 606.5625 20.421875Q606.46875 20.140625 606.2031 19.96875Q605.9375 19.796875 605.5625 19.796875Q604.90625 19.796875 604.46875 20.234375Q604.0469 20.671875 604.0469 21.640625L604.0469 25.25L602.9844 25.25L602.9844 21.203125Q602.9844 20.5 602.71875 20.15625Q602.46875 19.796875 601.8906 19.796875Q601.4375 19.796875 601.0625 20.03125Q600.6875 20.265625 600.5156 20.71875Q600.34375 21.171875 600.34375 22.015625L600.34375 25.25L599.2969 25.25ZM612.2656 25.25L612.2656 16.65625L613.3281 16.65625L613.3281 25.25L612.2656 25.25ZM614.90625 22.140625Q614.90625 20.40625 615.8594 19.578125Q616.65625 18.890625 617.8125 18.890625Q619.09375 18.890625 619.90625 19.734375Q620.7344 20.5625 620.7344 22.046875Q620.7344 23.25 620.375 23.9375Q620.0156 24.625 619.3125 25.015625Q618.625 25.390625 617.8125 25.390625Q616.5156 25.390625 615.7031 24.5625Q614.90625 23.71875 614.90625 22.140625ZM615.9844 22.140625Q615.9844 23.328125 616.5 23.921875Q617.03125 24.515625 617.8125 24.515625Q618.6094 24.515625 619.125 23.921875Q619.6406 23.328125 619.6406 22.109375Q619.6406 20.953125 619.1094 20.359375Q618.59375 19.765625 617.8125 19.765625Q617.03125 19.765625 616.5 20.359375Q615.9844 20.9375 615.9844 22.140625ZM623.4375 25.25L621.53125 19.03125L622.625 19.03125L623.6094 22.625L623.9844 23.953125Q624.0156 23.859375 624.3125 22.671875L625.2969 19.03125L626.375 19.03125L627.3125 22.640625L627.625 23.828125L627.9844 22.625L629.0469 19.03125L630.0781 19.03125L628.125 25.25L627.03125 25.25L626.0469 21.515625L625.7969 20.46875L624.5469 25.25L623.4375 25.25Z" fill-rule="nonzero"/></svg>