<svg version="1.1" viewBox="0.0 0.0 944.0 285.0" fill="none" stroke="none" stroke-linecap="square" stroke-miterlimit="10" width="944" height="285" xmlns:xlink="http://www.w3.org/1999/xlink" xmlns="http://www.w3.org/2000/svg"><path fill="#ffffff" d="M0 0L944.0 0L944.0 285.0L0 285.0L0 0Z" fill-rule="nonzero"/><path stroke="#cccccc" stroke-width="1.0" stroke-linecap="butt" d="M73.5 263.5L929.5 263.5" fill-rule="nonzero"/><path stroke="#333333" stroke-width="1.0" stroke-linecap="butt" d="M73.5 201.5L929.5 201.5" fill-rule="nonzero"/><path stroke="#cccccc" stroke-width="1.0" stroke-linecap="butt" d="M73.5 140.5L929.5 140.5" fill-rule="nonzero"/><path stroke="#cccccc" stroke-width="1.0" stroke-linecap="butt" d="M73.5 78.5L929.5 78.5" fill-rule="nonzero"/><clipPath id="id_0"><path d="M73.25 78.25L929.75 78.25L929.75 263.75L73.25 263.75L73.25 78.25Z" clip-rule="nonzero"/></clipPath><path stroke="#4285f4" stroke-width="2.0" stroke-linecap="butt" clip-path="url(#id_0)" d="M92.71591 78.25C92.71591 78.25 118.670456 249.32222 131.64772 263.75C144.625 278.17776 157.60228 195.73334 170.57954 164.81667C183.55682 133.9 196.53409 63.822224 209.51137 78.25C222.48863 92.67778 235.46591 228.7111 248.44318 251.38333C261.42044 274.05554 274.39774 232.83333 287.375 214.28334C300.35226 195.73334 313.32956 162.75555 326.30682 140.08333C339.2841 117.41111 352.26135 57.63889 365.23865 78.25C378.2159 98.861115 391.19318 263.75 404.17044 263.75C417.14774 263.75 430.125 78.25 443.10226 78.25C456.07956 78.25 469.05682 263.75 482.0341 263.75C495.01135 263.75 507.98865 78.25 520.9659 78.25C533.9432 78.25 546.9205 249.32222 559.8977 263.75C572.875 278.17776 585.8523 195.73334 598.8295 164.81667C611.8068 133.9 624.7841 63.822224 637.76135 78.25C650.73865 92.67778 663.7159 228.7111 676.6932 251.38333C689.6705 274.05554 702.6477 232.83333 715.625 214.28334C728.6023 195.73334 741.5795 162.75555 754.5568 140.08333C767.5341 117.41111 780.51135 57.63889 793.48865 78.25C806.4659 98.861115 819.4432 263.75 832.4205 263.75C845.3977 263.75 858.375 78.25 871.3523 78.25C884.3295 78.25 910.2841 263.75 910.2841 263.75" fill-rule="nonzero"/><path stroke="#ea4335" stroke-width="2.0" stroke-linecap="butt" clip-path="url(#id_0)" d="M92.71591 214.28334C92.71591 214.28334 118.670456 158.63333 131.64772 164.81667C144.625 171.0 157.60228 265.8111 170.57954 251.38333C183.55682 236.95555 196.53409 90.61667 209.51137 78.25C222.48863 65.88333 235.46591 177.18333 248.44318 177.18333C261.42044 177.18333 274.39774 67.94444 287.375 78.25C300.35226 88.55556 313.32956 224.58888 326.30682 239.01666C339.2841 253.44444 352.26135 181.30556 365.23865 164.81667C378.2159 148.32777 391.19318 154.51111 404.17044 140.08333C417.14774 125.655556 430.125 63.822224 443.10226 78.25C456.07956 92.67778 469.05682 214.28334 482.0341 226.65C495.01135 239.01666 507.98865 160.69444 520.9659 152.45C533.9432 144.20555 546.9205 189.55 559.8977 177.18333C572.875 164.81667 585.8523 70.005554 598.8295 78.25C611.8068 86.494446 624.7841 226.65 637.76135 226.65C650.73865 226.65 663.7159 86.494446 676.6932 78.25C689.6705 70.005554 702.6477 168.93889 715.625 177.18333C728.6023 185.42778 741.5795 119.47222 754.5568 127.71667C767.5341 135.9611 780.51135 203.97778 793.48865 226.65C806.4659 249.32222 819.4432 274.05554 832.4205 263.75C845.3977 253.44444 858.375 179.24445 871.3523 164.81667C884.3295 150.38889 910.2841 177.18333 910.2841 177.18333" fill-rule="nonzero"/><path stroke="#fbbc04" stroke-width="2.0" stroke-linecap="butt" clip-path="url(#id_0)" d="M92.71591 164.81667C92.71591 164.81667 118.670456 125.655556 131.64772 115.35C144.625 105.04444 157.60228 84.433334 170.57954 102.98333C183.55682 121.53333 196.53409 218.40555 209.51137 226.65C222.48863 234.89444 235.46591 173.06111 248.44318 152.45C261.42044 131.83888 274.39774 109.166664 287.375 102.98333C300.35226 96.8 313.32956 90.61667 326.30682 115.35C339.2841 140.08333 352.26135 228.7111 365.23865 251.38333C378.2159 274.05554 391.19318 267.87222 404.17044 251.38333C417.14774 234.89444 430.125 168.93889 443.10226 152.45C456.07956 135.9611 469.05682 158.63333 482.0341 152.45C495.01135 146.26666 507.98865 123.594444 520.9659 115.35C533.9432 107.10555 546.9205 84.433334 559.8977 102.98333C572.875 121.53333 585.8523 203.97778 598.8295 226.65C611.8068 249.32222 624.7841 247.26111 637.76135 239.01666C650.73865 230.77222 663.7159 195.73334 676.6932 177.18333C689.6705 158.63333 702.6477 127.71667 715.625 127.71667C728.6023 127.71667 741.5795 179.24445 754.5568 177.18333C767.5341 175.12222 780.51135 131.83888 793.48865 115.35C806.4659 98.861115 819.4432 78.25 832.4205 78.25C845.3977 78.25 858.375 111.227776 871.3523 115.35C884.3295 119.47222 910.2841 102.98333 910.2841 102.98333" fill-rule="nonzero"/><path fill="#000000" fill-opacity="0.0" clip-path="url(#id_0)" d="M95.71591 78.25C95.71591 79.90685 94.372765 81.25 92.71591 81.25C91.05905 81.25 89.71591 79.90685 89.71591 78.25C89.71591 76.59315 91.05905 75.25 92.71591 75.25C94.372765 75.25 95.71591 76.59315 95.71591 78.25Z" fill-rule="nonzero"/><path fill="#000000" fill-opacity="0.0" clip-path="url(#id_0)" d="M134.64772 263.75C134.64772 265.40686 133.30458 266.75 131.64772 266.75C129.99088 266.75 128.64772 265.40686 128.64772 263.75C128.64772 262.09314 129.99088 260.75 131.64772 260.75C133.30458 260.75 134.64772 262.09314 134.64772 263.75Z" fill-rule="nonzero"/><path fill="#000000" fill-opacity="0.0" clip-path="url(#id_0)" d="M173.57954 164.81667C173.57954 166.47353 172.2364 167.81667 170.57954 167.81667C168.92268 167.81667 167.57954 166.47353 167.57954 164.81667C167.57954 163.1598 168.92268 161.81667 170.57954 161.81667C172.2364 161.81667 173.57954 163.1598 173.57954 164.81667Z" fill-rule="nonzero"/><path fill="#000000" fill-opacity="0.0" clip-path="url(#id_0)" d="M212.51137 78.25C212.51137 79.90685 211.16821 81.25 209.51137 81.25C207.8545 81.25 206.51137 79.90685 206.51137 78.25C206.51137 76.59315 207.8545 75.25 209.51137 75.25C211.16821 75.25 212.51137 76.59315 212.51137 78.25Z" fill-rule="nonzero"/><path fill="#000000" fill-opacity="0.0" clip-path="url(#id_0)" d="M251.44318 251.38333C251.44318 253.04019 250.10004 254.38333 248.44318 254.38333C246.78633 254.38333 245.44318 253.04019 245.44318 251.38333C245.44318 249.72649 246.78633 248.38333 248.44318 248.38333C250.10004 248.38333 251.44318 249.72649 251.44318 251.38333Z" fill-rule="nonzero"/><path fill="#000000" fill-opacity="0.0" clip-path="url(#id_0)" d="M290.375 214.28334C290.375 215.94019 289.03186 217.28334 287.375 217.28334C285.71814 217.28334 284.375 215.94019 284.375 214.28334C284.375 212.62648 285.71814 211.28334 287.375 211.28334C289.03186 211.28334 290.375 212.62648 290.375 214.28334Z" fill-rule="nonzero"/><path fill="#000000" fill-opacity="0.0" clip-path="url(#id_0)" d="M329.30682 140.08333C329.30682 141.74019 327.96368 143.08333 326.30682 143.08333C324.64996 143.08333 323.30682 141.74019 323.30682 140.08333C323.30682 138.42648 324.64996 137.08333 326.30682 137.08333C327.96368 137.08333 329.30682 138.42648 329.30682 140.08333Z" fill-rule="nonzero"/><path fill="#000000" fill-opacity="0.0" clip-path="url(#id_0)" d="M368.23865 78.25C368.23865 79.90685 366.89548 81.25 365.23865 81.25C363.5818 81.25 362.23865 79.90685 362.23865 78.25C362.23865 76.59315 363.5818 75.25 365.23865 75.25C366.89548 75.25 368.23865 76.59315 368.23865 78.25Z" fill-rule="nonzero"/><path fill="#000000" fill-opacity="0.0" clip-path="url(#id_0)" d="M407.17044 263.75C407.17044 265.40686 405.8273 266.75 404.17044 266.75C402.5136 266.75 401.17044 265.40686 401.17044 263.75C401.17044 262.09314 402.5136 260.75 404.17044 260.75C405.8273 260.75 407.17044 262.09314 407.17044 263.75Z" fill-rule="nonzero"/><path fill="#000000" fill-opacity="0.0" clip-path="url(#id_0)" d="M446.10226 78.25C446.10226 79.90685 444.75912 81.25 443.10226 81.25C441.4454 81.25 440.10226 79.90685 440.10226 78.25C440.10226 76.59315 441.4454 75.25 443.10226 75.25C444.75912 75.25 446.10226 76.59315 446.10226 78.25Z" fill-rule="nonzero"/><path fill="#000000" fill-opacity="0.0" clip-path="url(#id_0)" d="M485.0341 263.75C485.0341 265.40686 483.69095 266.75 482.0341 266.75C480.37723 266.75 479.0341 265.40686 479.0341 263.75C479.0341 262.09314 480.37723 260.75 482.0341 260.75C483.69095 260.75 485.0341 262.09314 485.0341 263.75Z" fill-rule="nonzero"/><path fill="#000000" fill-opacity="0.0" clip-path="url(#id_0)" d="M523.9659 78.25C523.9659 79.90685 522.62274 81.25 520.9659 81.25C519.3091 81.25 517.9659 79.90685 517.9659 78.25C517.9659 76.59315 519.3091 75.25 520.9659 75.25C522.62274 75.25 523.9659 76.59315 523.9659 78.25Z" fill-rule="nonzero"/><path fill="#000000" fill-opacity="0.0" clip-path="url(#id_0)" d="M562.8977 263.75C562.8977 265.40686 561.55457 266.75 559.8977 266.75C558.24084 266.75 556.8977 265.40686 556.8977 263.75C556.8977 262.09314 558.24084 260.75 559.8977 260.75C561.55457 260.75 562.8977 262.09314 562.8977 263.75Z" fill-rule="nonzero"/><path fill="#000000" fill-opacity="0.0" clip-path="url(#id_0)" d="M601.8295 164.81667C601.8295 166.47353 600.4864 167.81667 598.8295 167.81667C597.17267 167.81667 595.8295 166.47353 595.8295 164.81667C595.8295 163.1598 597.17267 161.81667 598.8295 161.81667C600.4864 161.81667 601.8295 163.1598 601.8295 164.81667Z" fill-rule="nonzero"/><path fill="#000000" fill-opacity="0.0" clip-path="url(#id_0)" d="M640.76135 78.25C640.76135 79.90685 639.4182 81.25 637.76135 81.25C636.1045 81.25 634.76135 79.90685 634.76135 78.25C634.76135 76.59315 636.1045 75.25 637.76135 75.25C639.4182 75.25 640.76135 76.59315 640.76135 78.25Z" fill-rule="nonzero"/><path fill="#000000" fill-opacity="0.0" clip-path="url(#id_0)" d="M679.6932 251.38333C679.6932 253.04019 678.35004 254.38333 676.6932 254.38333C675.0363 254.38333 673.6932 253.04019 673.6932 251.38333C673.6932 249.72649 675.0363 248.38333 676.6932 248.38333C678.35004 248.38333 679.6932 249.72649 679.6932 251.38333Z" fill-rule="nonzero"/><path fill="#000000" fill-opacity="0.0" clip-path="url(#id_0)" d="M718.625 214.28334C718.625 215.94019 717.28186 217.28334 715.625 217.28334C713.96814 217.28334 712.625 215.94019 712.625 214.28334C712.625 212.62648 713.96814 211.28334 715.625 211.28334C717.28186 211.28334 718.625 212.62648 718.625 214.28334Z" fill-rule="nonzero"/><path fill="#000000" fill-opacity="0.0" clip-path="url(#id_0)" d="M757.5568 140.08333C757.5568 141.74019 756.2137 143.08333 754.5568 143.08333C752.89996 143.08333 751.5568 141.74019 751.5568 140.08333C751.5568 138.42648 752.89996 137.08333 754.5568 137.08333C756.2137 137.08333 757.5568 138.42648 757.5568 140.08333Z" fill-rule="nonzero"/><path fill="#000000" fill-opacity="0.0" clip-path="url(#id_0)" d="M796.48865 78.25C796.48865 79.90685 795.1455 81.25 793.48865 81.25C791.8318 81.25 790.48865 79.90685 790.48865 78.25C790.48865 76.59315 791.8318 75.25 793.48865 75.25C795.1455 75.25 796.48865 76.59315 796.48865 78.25Z" fill-rule="nonzero"/><path fill="#000000" fill-opacity="0.0" clip-path="url(#id_0)" d="M835.4205 263.75C835.4205 265.40686 834.07733 266.75 832.4205 266.75C830.7636 266.75 829.4205 265.40686 829.4205 263.75C829.4205 262.09314 830.7636 260.75 832.4205 260.75C834.07733 260.75 835.4205 262.09314 835.4205 263.75Z" fill-rule="nonzero"/><path fill="#000000" fill-opacity="0.0" clip-path="url(#id_0)" d="M874.3523 78.25C874.3523 79.90685 873.00916 81.25 871.3523 81.25C869.69543 81.25 868.3523 79.90685 868.3523 78.25C868.3523 76.59315 869.69543 75.25 871.3523 75.25C873.00916 75.25 874.3523 76.59315 874.3523 78.25Z" fill-rule="nonzero"/><path fill="#000000" fill-opacity="0.0" clip-path="url(#id_0)" d="M913.2841 263.75C913.2841 265.40686 911.9409 266.75 910.2841 266.75C908.62726 266.75 907.2841 265.40686 907.2841 263.75C907.2841 262.09314 908.62726 260.75 910.2841 260.75C911.9409 260.75 913.2841 262.09314 913.2841 263.75Z" fill-rule="nonzero"/><path fill="#000000" fill-opacity="0.0" clip-path="url(#id_0)" d="M95.71591 214.28334C95.71591 215.94019 94.372765 217.28334 92.71591 217.28334C91.05905 217.28334 89.71591 215.94019 89.71591 214.28334C89.71591 212.62648 91.05905 211.28334 92.71591 211.28334C94.372765 211.28334 95.71591 212.62648 95.71591 214.28334Z" fill-rule="nonzero"/><path fill="#000000" fill-opacity="0.0" clip-path="url(#id_0)" d="M134.64772 164.81667C134.64772 166.47353 133.30458 167.81667 131.64772 167.81667C129.99088 167.81667 128.64772 166.47353 128.64772 164.81667C128.64772 163.1598 129.99088 161.81667 131.64772 161.81667C133.30458 161.81667 134.64772 163.1598 134.64772 164.81667Z" fill-rule="nonzero"/><path fill="#000000" fill-opacity="0.0" clip-path="url(#id_0)" d="M173.57954 251.38333C173.57954 253.04019 172.2364 254.38333 170.57954 254.38333C168.92268 254.38333 167.57954 253.04019 167.57954 251.38333C167.57954 249.72649 168.92268 248.38333 170.57954 248.38333C172.2364 248.38333 173.57954 249.72649 173.57954 251.38333Z" fill-rule="nonzero"/><path fill="#000000" fill-opacity="0.0" clip-path="url(#id_0)" d="M212.51137 78.25C212.51137 79.90685 211.16821 81.25 209.51137 81.25C207.8545 81.25 206.51137 79.90685 206.51137 78.25C206.51137 76.59315 207.8545 75.25 209.51137 75.25C211.16821 75.25 212.51137 76.59315 212.51137 78.25Z" fill-rule="nonzero"/><path fill="#000000" fill-opacity="0.0" clip-path="url(#id_0)" d="M251.44318 177.18333C251.44318 178.8402 250.10004 180.18333 248.44318 180.18333C246.78633 180.18333 245.44318 178.8402 245.44318 177.18333C245.44318 175.52647 246.78633 174.18333 248.44318 174.18333C250.10004 174.18333 251.44318 175.52647 251.44318 177.18333Z" fill-rule="nonzero"/><path fill="#000000" fill-opacity="0.0" clip-path="url(#id_0)" d="M290.375 78.25C290.375 79.90685 289.03186 81.25 287.375 81.25C285.71814 81.25 284.375 79.90685 284.375 78.25C284.375 76.59315 285.71814 75.25 287.375 75.25C289.03186 75.25 290.375 76.59315 290.375 78.25Z" fill-rule="nonzero"/><path fill="#000000" fill-opacity="0.0" clip-path="url(#id_0)" d="M329.30682 239.01666C329.30682 240.67352 327.96368 242.01666 326.30682 242.01666C324.64996 242.01666 323.30682 240.67352 323.30682 239.01666C323.30682 237.35982 324.64996 236.01666 326.30682 236.01666C327.96368 236.01666 329.30682 237.35982 329.30682 239.01666Z" fill-rule="nonzero"/><path fill="#000000" fill-opacity="0.0" clip-path="url(#id_0)" d="M368.23865 164.81667C368.23865 166.47353 366.89548 167.81667 365.23865 167.81667C363.5818 167.81667 362.23865 166.47353 362.23865 164.81667C362.23865 163.1598 363.5818 161.81667 365.23865 161.81667C366.89548 161.81667 368.23865 163.1598 368.23865 164.81667Z" fill-rule="nonzero"/><path fill="#000000" fill-opacity="0.0" clip-path="url(#id_0)" d="M407.17044 140.08333C407.17044 141.74019 405.8273 143.08333 404.17044 143.08333C402.5136 143.08333 401.17044 141.74019 401.17044 140.08333C401.17044 138.42648 402.5136 137.08333 404.17044 137.08333C405.8273 137.08333 407.17044 138.42648 407.17044 140.08333Z" fill-rule="nonzero"/><path fill="#000000" fill-opacity="0.0" clip-path="url(#id_0)" d="M446.10226 78.25C446.10226 79.90685 444.75912 81.25 443.10226 81.25C441.4454 81.25 440.10226 79.90685 440.10226 78.25C440.10226 76.59315 441.4454 75.25 443.10226 75.25C444.75912 75.25 446.10226 76.59315 446.10226 78.25Z" fill-rule="nonzero"/><path fill="#000000" fill-opacity="0.0" clip-path="url(#id_0)" d="M485.0341 226.65C485.0341 228.30685 483.69095 229.65 482.0341 229.65C480.37723 229.65 479.0341 228.30685 479.0341 226.65C479.0341 224.99315 480.37723 223.65 482.0341 223.65C483.69095 223.65 485.0341 224.99315 485.0341 226.65Z" fill-rule="nonzero"/><path fill="#000000" fill-opacity="0.0" clip-path="url(#id_0)" d="M523.9659 152.45C523.9659 154.10686 522.62274 155.45 520.9659 155.45C519.3091 155.45 517.9659 154.10686 517.9659 152.45C517.9659 150.79315 519.3091 149.45 520.9659 149.45C522.62274 149.45 523.9659 150.79315 523.9659 152.45Z" fill-rule="nonzero"/><path fill="#000000" fill-opacity="0.0" clip-path="url(#id_0)" d="M562.8977 177.18333C562.8977 178.8402 561.55457 180.18333 559.8977 180.18333C558.24084 180.18333 556.8977 178.8402 556.8977 177.18333C556.8977 175.52647 558.24084 174.18333 559.8977 174.18333C561.55457 174.18333 562.8977 175.52647 562.8977 177.18333Z" fill-rule="nonzero"/><path fill="#000000" fill-opacity="0.0" clip-path="url(#id_0)" d="M601.8295 78.25C601.8295 79.90685 600.4864 81.25 598.8295 81.25C597.17267 81.25 595.8295 79.90685 595.8295 78.25C595.8295 76.59315 597.17267 75.25 598.8295 75.25C600.4864 75.25 601.8295 76.59315 601.8295 78.25Z" fill-rule="nonzero"/><path fill="#000000" fill-opacity="0.0" clip-path="url(#id_0)" d="M640.76135 226.65C640.76135 228.30685 639.4182 229.65 637.76135 229.65C636.1045 229.65 634.76135 228.30685 634.76135 226.65C634.76135 224.99315 636.1045 223.65 637.76135 223.65C639.4182 223.65 640.76135 224.99315 640.76135 226.65Z" fill-rule="nonzero"/><path fill="#000000" fill-opacity="0.0" clip-path="url(#id_0)" d="M679.6932 78.25C679.6932 79.90685 678.35004 81.25 676.6932 81.25C675.0363 81.25 673.6932 79.90685 673.6932 78.25C673.6932 76.59315 675.0363 75.25 676.6932 75.25C678.35004 75.25 679.6932 76.59315 679.6932 78.25Z" fill-rule="nonzero"/><path fill="#000000" fill-opacity="0.0" clip-path="url(#id_0)" d="M718.625 177.18333C718.625 178.8402 717.28186 180.18333 715.625 180.18333C713.96814 180.18333 712.625 178.8402 712.625 177.18333C712.625 175.52647 713.96814 174.18333 715.625 174.18333C717.28186 174.18333 718.625 175.52647 718.625 177.18333Z" fill-rule="nonzero"/><path fill="#000000" fill-opacity="0.0" clip-path="url(#id_0)" d="M757.5568 127.71667C757.5568 129.37352 756.2137 130.71666 754.5568 130.71666C752.89996 130.71666 751.5568 129.37352 751.5568 127.71667C751.5568 126.059814 752.89996 124.71667 754.5568 124.71667C756.2137 124.71667 757.5568 126.059814 757.5568 127.71667Z" fill-rule="nonzero"/><path fill="#000000" fill-opacity="0.0" clip-path="url(#id_0)" d="M796.48865 226.65C796.48865 228.30685 795.1455 229.65 793.48865 229.65C791.8318 229.65 790.48865 228.30685 790.48865 226.65C790.48865 224.99315 791.8318 223.65 793.48865 223.65C795.1455 223.65 796.48865 224.99315 796.48865 226.65Z" fill-rule="nonzero"/><path fill="#000000" fill-opacity="0.0" clip-path="url(#id_0)" d="M835.4205 263.75C835.4205 265.40686 834.07733 266.75 832.4205 266.75C830.7636 266.75 829.4205 265.40686 829.4205 263.75C829.4205 262.09314 830.7636 260.75 832.4205 260.75C834.07733 260.75 835.4205 262.09314 835.4205 263.75Z" fill-rule="nonzero"/><path fill="#000000" fill-opacity="0.0" clip-path="url(#id_0)" d="M874.3523 164.81667C874.3523 166.47353 873.00916 167.81667 871.3523 167.81667C869.69543 167.81667 868.3523 166.47353 868.3523 164.81667C868.3523 163.1598 869.69543 161.81667 871.3523 161.81667C873.00916 161.81667 874.3523 163.1598 874.3523 164.81667Z" fill-rule="nonzero"/><path fill="#000000" fill-opacity="0.0" clip-path="url(#id_0)" d="M913.2841 177.18333C913.2841 178.8402 911.9409 180.18333 910.2841 180.18333C908.62726 180.18333 907.2841 178.8402 907.2841 177.18333C907.2841 175.52647 908.62726 174.18333 910.2841 174.18333C911.9409 174.18333 913.2841 175.52647 913.2841 177.18333Z" fill-rule="nonzero"/><path fill="#000000" fill-opacity="0.0" clip-path="url(#id_0)" d="M95.71591 164.81667C95.71591 166.47353 94.372765 167.81667 92.71591 167.81667C91.05905 167.81667 89.71591 166.47353 89.71591 164.81667C89.71591 163.1598 91.05905 161.81667 92.71591 161.81667C94.372765 161.81667 95.71591 163.1598 95.71591 164.81667Z" fill-rule="nonzero"/><path fill="#000000" fill-opacity="0.0" clip-path="url(#id_0)" d="M134.64772 115.35C134.64772 117.00685 133.30458 118.35 131.64772 118.35C129.99088 118.35 128.64772 117.00685 128.64772 115.35C128.64772 113.693146 129.99088 112.35 131.64772 112.35C133.30458 112.35 134.64772 113.693146 134.64772 115.35Z" fill-rule="nonzero"/><path fill="#000000" fill-opacity="0.0" clip-path="url(#id_0)" d="M173.57954 102.98333C173.57954 104.64019 172.2364 105.98333 170.57954 105.98333C168.92268 105.98333 167.57954 104.64019 167.57954 102.98333C167.57954 101.32648 168.92268 99.98333 170.57954 99.98333C172.2364 99.98333 173.57954 101.32648 173.57954 102.98333Z" fill-rule="nonzero"/><path fill="#000000" fill-opacity="0.0" clip-path="url(#id_0)" d="M212.51137 226.65C212.51137 228.30685 211.16821 229.65 209.51137 229.65C207.8545 229.65 206.51137 228.30685 206.51137 226.65C206.51137 224.99315 207.8545 223.65 209.51137 223.65C211.16821 223.65 212.51137 224.99315 212.51137 226.65Z" fill-rule="nonzero"/><path fill="#000000" fill-opacity="0.0" clip-path="url(#id_0)" d="M251.44318 152.45C251.44318 154.10686 250.10004 155.45 248.44318 155.45C246.78633 155.45 245.44318 154.10686 245.44318 152.45C245.44318 150.79315 246.78633 149.45 248.44318 149.45C250.10004 149.45 251.44318 150.79315 251.44318 152.45Z" fill-rule="nonzero"/><path fill="#000000" fill-opacity="0.0" clip-path="url(#id_0)" d="M290.375 102.98333C290.375 104.64019 289.03186 105.98333 287.375 105.98333C285.71814 105.98333 284.375 104.64019 284.375 102.98333C284.375 101.32648 285.71814 99.98333 287.375 99.98333C289.03186 99.98333 290.375 101.32648 290.375 102.98333Z" fill-rule="nonzero"/><path fill="#000000" fill-opacity="0.0" clip-path="url(#id_0)" d="M329.30682 115.35C329.30682 117.00685 327.96368 118.35 326.30682 118.35C324.64996 118.35 323.30682 117.00685 323.30682 115.35C323.30682 113.693146 324.64996 112.35 326.30682 112.35C327.96368 112.35 329.30682 113.693146 329.30682 115.35Z" fill-rule="nonzero"/><path fill="#000000" fill-opacity="0.0" clip-path="url(#id_0)" d="M368.23865 251.38333C368.23865 253.04019 366.89548 254.38333 365.23865 254.38333C363.5818 254.38333 362.23865 253.04019 362.23865 251.38333C362.23865 249.72649 363.5818 248.38333 365.23865 248.38333C366.89548 248.38333 368.23865 249.72649 368.23865 251.38333Z" fill-rule="nonzero"/><path fill="#000000" fill-opacity="0.0" clip-path="url(#id_0)" d="M407.17044 251.38333C407.17044 253.04019 405.8273 254.38333 404.17044 254.38333C402.5136 254.38333 401.17044 253.04019 401.17044 251.38333C401.17044 249.72649 402.5136 248.38333 404.17044 248.38333C405.8273 248.38333 407.17044 249.72649 407.17044 251.38333Z" fill-rule="nonzero"/><path fill="#000000" fill-opacity="0.0" clip-path="url(#id_0)" d="M446.10226 152.45C446.10226 154.10686 444.75912 155.45 443.10226 155.45C441.4454 155.45 440.10226 154.10686 440.10226 152.45C440.10226 150.79315 441.4454 149.45 443.10226 149.45C444.75912 149.45 446.10226 150.79315 446.10226 152.45Z" fill-rule="nonzero"/><path fill="#000000" fill-opacity="0.0" clip-path="url(#id_0)" d="M485.0341 152.45C485.0341 154.10686 483.69095 155.45 482.0341 155.45C480.37723 155.45 479.0341 154.10686 479.0341 152.45C479.0341 150.79315 480.37723 149.45 482.0341 149.45C483.69095 149.45 485.0341 150.79315 485.0341 152.45Z" fill-rule="nonzero"/><path fill="#000000" fill-opacity="0.0" clip-path="url(#id_0)" d="M523.9659 115.35C523.9659 117.00685 522.62274 118.35 520.9659 118.35C519.3091 118.35 517.9659 117.00685 517.9659 115.35C517.9659 113.693146 519.3091 112.35 520.9659 112.35C522.62274 112.35 523.9659 113.693146 523.9659 115.35Z" fill-rule="nonzero"/><path fill="#000000" fill-opacity="0.0" clip-path="url(#id_0)" d="M562.8977 102.98333C562.8977 104.64019 561.55457 105.98333 559.8977 105.98333C558.24084 105.98333 556.8977 104.64019 556.8977 102.98333C556.8977 101.32648 558.24084 99.98333 559.8977 99.98333C561.55457 99.98333 562.8977 101.32648 562.8977 102.98333Z" fill-rule="nonzero"/><path fill="#000000" fill-opacity="0.0" clip-path="url(#id_0)" d="M601.8295 226.65C601.8295 228.30685 600.4864 229.65 598.8295 229.65C597.17267 229.65 595.8295 228.30685 595.8295 226.65C595.8295 224.99315 597.17267 223.65 598.8295 223.65C600.4864 223.65 601.8295 224.99315 601.8295 226.65Z" fill-rule="nonzero"/><path fill="#000000" fill-opacity="0.0" clip-path="url(#id_0)" d="M640.76135 239.01666C640.76135 240.67352 639.4182 242.01666 637.76135 242.01666C636.1045 242.01666 634.76135 240.67352 634.76135 239.01666C634.76135 237.35982 636.1045 236.01666 637.76135 236.01666C639.4182 236.01666 640.76135 237.35982 640.76135 239.01666Z" fill-rule="nonzero"/><path fill="#000000" fill-opacity="0.0" clip-path="url(#id_0)" d="M679.6932 177.18333C679.6932 178.8402 678.35004 180.18333 676.6932 180.18333C675.0363 180.18333 673.6932 178.8402 673.6932 177.18333C673.6932 175.52647 675.0363 174.18333 676.6932 174.18333C678.35004 174.18333 679.6932 175.52647 679.6932 177.18333Z" fill-rule="nonzero"/><path fill="#000000" fill-opacity="0.0" clip-path="url(#id_0)" d="M718.625 127.71667C718.625 129.37352 717.28186 130.71666 715.625 130.71666C713.96814 130.71666 712.625 129.37352 712.625 127.71667C712.625 126.059814 713.96814 124.71667 715.625 124.71667C717.28186 124.71667 718.625 126.059814 718.625 127.71667Z" fill-rule="nonzero"/><path fill="#000000" fill-opacity="0.0" clip-path="url(#id_0)" d="M757.5568 177.18333C757.5568 178.8402 756.2137 180.18333 754.5568 180.18333C752.89996 180.18333 751.5568 178.8402 751.5568 177.18333C751.5568 175.52647 752.89996 174.18333 754.5568 174.18333C756.2137 174.18333 757.5568 175.52647 757.5568 177.18333Z" fill-rule="nonzero"/><path fill="#000000" fill-opacity="0.0" clip-path="url(#id_0)" d="M796.48865 115.35C796.48865 117.00685 795.1455 118.35 793.48865 118.35C791.8318 118.35 790.48865 117.00685 790.48865 115.35C790.48865 113.693146 791.8318 112.35 793.48865 112.35C795.1455 112.35 796.48865 113.693146 796.48865 115.35Z" fill-rule="nonzero"/><path fill="#000000" fill-opacity="0.0" clip-path="url(#id_0)" d="M835.4205 78.25C835.4205 79.90685 834.07733 81.25 832.4205 81.25C830.7636 81.25 829.4205 79.90685 829.4205 78.25C829.4205 76.59315 830.7636 75.25 832.4205 75.25C834.07733 75.25 835.4205 76.59315 835.4205 78.25Z" fill-rule="nonzero"/><path fill="#000000" fill-opacity="0.0" clip-path="url(#id_0)" d="M874.3523 115.35C874.3523 117.00685 873.00916 118.35 871.3523 118.35C869.69543 118.35 868.3523 117.00685 868.3523 115.35C868.3523 113.693146 869.69543 112.35 871.3523 112.35C873.00916 112.35 874.3523 113.693146 874.3523 115.35Z" fill-rule="nonzero"/><path fill="#000000" fill-opacity="0.0" clip-path="url(#id_0)" d="M913.2841 102.98333C913.2841 104.64019 911.9409 105.98333 910.2841 105.98333C908.62726 105.98333 907.2841 104.64019 907.2841 102.98333C907.2841 101.32648 908.62726 99.98333 910.2841 99.98333C911.9409 99.98333 913.2841 101.32648 913.2841 102.98333Z" fill-rule="nonzero"/><path fill="#000000" d="M25.25 199.125L16.65625 199.125L16.65625 197.98438L24.234375 197.98438L24.234375 193.75L25.25 193.75L25.25 199.125ZM22.140625 192.59375Q20.40625 192.59375 19.578125 191.64062Q18.890625 190.84375 18.890625 189.6875Q18.890625 188.40625 19.734375 187.59375Q20.5625 186.76562 22.046875 186.76562Q23.25 186.76562 23.9375 187.125Q24.625 187.48438 25.015625 188.1875Q25.390625 188.875 25.390625 189.6875Q25.390625 190.98438 24.5625 191.79688Q23.71875 192.59375 22.140625 192.59375ZM22.140625 191.51562Q23.328125 191.51562 23.921875 191.0Q24.515625 190.46875 24.515625 189.6875Q24.515625 188.89062 23.921875 188.375Q23.328125 187.85938 22.109375 187.85938Q20.953125 187.85938 20.359375 188.39062Q19.765625 188.90625 19.765625 189.6875Q19.765625 190.46875 20.359375 191.0Q20.9375 191.51562 22.140625 191.51562ZM25.25 184.0625L19.03125 185.96875L19.03125 184.875L22.625 183.89062L23.953125 183.51562Q23.859375 183.48438 22.671875 183.1875L19.03125 182.20312L19.03125 181.125L22.640625 180.1875L23.828125 179.875L22.625 179.51562L19.03125 178.45312L19.03125 177.42188L25.25 179.375L25.25 180.46875L21.515625 181.45312L20.46875 181.70312L25.25 182.95312L25.25 184.0625ZM27.78125 172.89062L16.515625 172.89062L16.515625 171.98438L27.78125 171.98438L27.78125 172.89062ZM25.25 167.03125L16.65625 167.03125L16.65625 165.90625L20.1875 165.90625L20.1875 161.4375L16.65625 161.4375L16.65625 160.29688L25.25 160.29688L25.25 161.4375L21.203125 161.4375L21.203125 165.90625L25.25 165.90625L25.25 167.03125ZM17.875 158.20312L16.65625 158.20312L16.65625 157.14062L17.875 157.14062L17.875 158.20312ZM25.25 158.20312L19.03125 158.20312L19.03125 157.14062L25.25 157.14062L25.25 158.20312ZM25.765625 155.40625L25.921875 154.375Q26.390625 154.3125 26.609375 154.01562Q26.90625 153.625 26.90625 152.95312Q26.90625 152.21875 26.609375 151.82812Q26.3125 151.42188 25.796875 151.28125Q25.46875 151.1875 24.4375 151.20312Q25.25 151.89062 25.25 152.92188Q25.25 154.20312 24.328125 154.90625Q23.390625 155.60938 22.109375 155.60938Q21.21875 155.60938 20.46875 155.29688Q19.703125 154.96875 19.296875 154.35938Q18.890625 153.75 18.890625 152.92188Q18.890625 151.8125 19.78125 151.09375L19.03125 151.09375L19.03125 150.125L24.40625 150.125Q25.859375 150.125 26.46875 150.42188Q27.078125 150.71875 27.421875 151.35938Q27.78125 152.0 27.78125 152.9375Q27.78125 154.04688 27.28125 154.73438Q26.78125 155.42188 25.765625 155.40625ZM22.03125 154.53125Q23.25 154.53125 23.8125 154.04688Q24.375 153.5625 24.375 152.82812Q24.375 152.09375 23.8125 151.60938Q23.25 151.10938 22.0625 151.10938Q20.921875 151.10938 20.34375 151.625Q19.765625 152.125 19.765625 152.84375Q19.765625 153.54688 20.34375 154.04688Q20.90625 154.53125 22.03125 154.53125ZM25.25 148.20312L16.65625 148.20312L16.65625 147.15625L19.734375 147.15625Q18.890625 146.42188 18.890625 145.29688Q18.890625 144.59375 19.171875 144.09375Q19.4375 143.57812 19.921875 143.35938Q20.390625 143.14062 21.3125 143.14062L25.25 143.14062L25.25 144.1875L21.3125 144.1875Q20.515625 144.1875 20.15625 144.53125Q19.796875 144.875 19.796875 145.5Q19.796875 145.96875 20.046875 146.39062Q20.28125 146.79688 20.703125 146.98438Q21.109375 147.15625 21.84375 147.15625L25.25 147.15625L25.25 148.20312Z" fill-rule="nonzero"/><path fill="#000000" d="M56.625 265.17188L56.625 264.10938L59.875 264.10938L59.875 265.17188L56.625 265.17188ZM60.75 265.5L61.859375 265.40625Q61.984375 266.21875 62.421875 266.625Q62.875 267.03125 63.515625 267.03125Q64.265625 267.03125 64.796875 266.45312Q65.328125 265.875 65.328125 264.9375Q65.328125 264.03125 64.8125 263.51562Q64.3125 262.98438 63.484375 262.98438Q62.984375 262.98438 62.5625 263.21875Q62.15625 263.45312 61.921875 263.8125L60.9375 263.6875L61.765625 259.28125L66.046875 259.28125L66.046875 260.28125L62.609375 260.28125L62.15625 262.59375Q62.921875 262.04688 63.765625 262.04688Q64.890625 262.04688 65.65625 262.82812Q66.4375 263.60938 66.4375 264.84375Q66.4375 266.0 65.765625 266.85938Q64.9375 267.89062 63.515625 267.89062Q62.34375 267.89062 61.59375 267.23438Q60.859375 266.57812 60.75 265.5Z" fill-rule="nonzero"/><path fill="#000000" d="M60.75 201.6823Q60.75 200.15105 61.0625 199.22917Q61.375 198.29167 61.984375 197.79167Q62.609375 197.29167 63.546875 197.29167Q64.234375 197.29167 64.75 197.57292Q65.28125 197.85417 65.625 198.38542Q65.96875 198.90105 66.15625 199.65105Q66.34375 200.40105 66.34375 201.6823Q66.34375 203.19792 66.03125 204.1198Q65.734375 205.04167 65.109375 205.5573Q64.5 206.0573 63.546875 206.0573Q62.3125 206.0573 61.59375 205.16667Q60.75 204.10417 60.75 201.6823ZM61.828125 201.6823Q61.828125 203.79167 62.328125 204.4948Q62.828125 205.19792 63.546875 205.19792Q64.28125 205.19792 64.765625 204.4948Q65.265625 203.79167 65.265625 201.6823Q65.265625 199.5573 64.765625 198.8698Q64.28125 198.16667 63.53125 198.16667Q62.8125 198.16667 62.375 198.77605Q61.828125 199.5573 61.828125 201.6823Z" fill-rule="nonzero"/><path fill="#000000" d="M60.75 141.83333L61.859375 141.73958Q61.984375 142.55208 62.421875 142.95833Q62.875 143.36458 63.515625 143.36458Q64.265625 143.36458 64.796875 142.78645Q65.328125 142.20833 65.328125 141.27083Q65.328125 140.36458 64.8125 139.84895Q64.3125 139.3177 63.484375 139.3177Q62.984375 139.3177 62.5625 139.55208Q62.15625 139.78645 61.921875 140.14583L60.9375 140.02083L61.765625 135.61458L66.046875 135.61458L66.046875 136.61458L62.609375 136.61458L62.15625 138.92708Q62.921875 138.3802 63.765625 138.3802Q64.890625 138.3802 65.65625 139.16145Q66.4375 139.9427 66.4375 141.17708Q66.4375 142.33333 65.765625 143.1927Q64.9375 144.22395 63.515625 144.22395Q62.34375 144.22395 61.59375 143.5677Q60.859375 142.91145 60.75 141.83333Z" fill-rule="nonzero"/><path fill="#000000" d="M57.71875 82.25L56.671875 82.25L56.671875 75.53125Q56.28125 75.890625 55.65625 76.265625Q55.046875 76.625 54.5625 76.796875L54.5625 75.78125Q55.4375 75.359375 56.09375 74.78125Q56.765625 74.1875 57.046875 73.625L57.71875 73.625L57.71875 82.25ZM60.75 78.015625Q60.75 76.484375 61.0625 75.5625Q61.375 74.625 61.984375 74.125Q62.609375 73.625 63.546875 73.625Q64.234375 73.625 64.75 73.90625Q65.28125 74.1875 65.625 74.71875Q65.96875 75.234375 66.15625 75.984375Q66.34375 76.734375 66.34375 78.015625Q66.34375 79.53125 66.03125 80.453125Q65.734375 81.375 65.109375 81.890625Q64.5 82.390625 63.546875 82.390625Q62.3125 82.390625 61.59375 81.5Q60.75 80.4375 60.75 78.015625ZM61.828125 78.015625Q61.828125 80.125 62.328125 80.828125Q62.828125 81.53125 63.546875 81.53125Q64.28125 81.53125 64.765625 80.828125Q65.265625 80.125 65.265625 78.015625Q65.265625 75.890625 64.765625 75.203125Q64.28125 74.5 63.53125 74.5Q62.8125 74.5 62.375 75.109375Q61.828125 75.890625 61.828125 78.015625Z" fill-rule="nonzero"/><path stroke="#4285f4" stroke-width="4.0" stroke-linecap="butt" d="M387.0 54.75L399.0 54.75" fill-rule="nonzero"/><path fill="#1a1a1a" d="M407.89062 58.75L407.89062 50.15625L409.60938 50.15625L411.64062 56.234375Q411.92188 57.09375 412.04688 57.515625Q412.1875 57.046875 412.5 56.140625L414.5625 50.15625L416.09375 50.15625L416.09375 58.75L415.0 58.75L415.0 51.5625L412.5 58.75L411.46875 58.75L408.98438 51.4375L408.98438 58.75L407.89062 58.75ZM422.04688 56.75L423.14062 56.875Q422.89062 57.828125 422.1875 58.359375Q421.48438 58.890625 420.40625 58.890625Q419.04688 58.890625 418.23438 58.046875Q417.4375 57.203125 417.4375 55.6875Q417.4375 54.125 418.25 53.265625Q419.0625 52.390625 420.34375 52.390625Q421.59375 52.390625 422.375 53.234375Q423.17188 54.078125 423.17188 55.625Q423.17188 55.71875 423.17188 55.90625L418.53125 55.90625Q418.59375 56.9375 419.10938 57.484375Q419.625 58.015625 420.40625 58.015625Q420.98438 58.015625 421.39062 57.71875Q421.8125 57.40625 422.04688 56.75ZM418.59375 55.046875L422.0625 55.046875Q422.0 54.25 421.67188 53.859375Q421.15625 53.25 420.35938 53.25Q419.625 53.25 419.125 53.734375Q418.64062 54.21875 418.59375 55.046875Z" fill-rule="nonzero"/><path stroke="#ea4335" stroke-width="4.0" stroke-linecap="butt" d="M440.0 54.75L452.0 54.75" fill-rule="nonzero"/><path fill="#1a1a1a" d="M460.54688 55.984375L461.60938 55.890625Q461.6875 56.546875 461.96875 56.953125Q462.25 57.359375 462.82812 57.625Q463.42188 57.875 464.15625 57.875Q464.79688 57.875 465.29688 57.6875Q465.79688 57.484375 466.03125 57.15625Q466.28125 56.8125 466.28125 56.421875Q466.28125 56.015625 466.04688 55.71875Q465.8125 55.40625 465.28125 55.203125Q464.92188 55.0625 463.73438 54.78125Q462.5625 54.5 462.09375 54.25Q461.46875 53.921875 461.17188 53.453125Q460.875 52.96875 460.875 52.375Q460.875 51.734375 461.23438 51.171875Q461.60938 50.59375 462.3125 50.3125Q463.03125 50.015625 463.89062 50.015625Q464.84375 50.015625 465.57812 50.328125Q466.3125 50.625 466.70312 51.234375Q467.09375 51.828125 467.125 52.578125L466.03125 52.65625Q465.9375 51.84375 465.42188 51.4375Q464.92188 51.015625 463.9375 51.015625Q462.90625 51.015625 462.4375 51.390625Q461.96875 51.765625 461.96875 52.296875Q461.96875 52.765625 462.29688 53.0625Q462.625 53.359375 464.0 53.671875Q465.39062 53.984375 465.90625 54.21875Q466.65625 54.578125 467.01562 55.109375Q467.375 55.625 467.375 56.328125Q467.375 57.015625 466.98438 57.625Q466.59375 58.21875 465.85938 58.5625Q465.125 58.890625 464.20312 58.890625Q463.03125 58.890625 462.23438 58.5625Q461.45312 58.21875 461.0 57.53125Q460.5625 56.84375 460.54688 55.984375ZM471.09375 57.8125L471.25 58.734375Q470.79688 58.828125 470.45312 58.828125Q469.875 58.828125 469.5625 58.65625Q469.25 58.46875 469.10938 58.171875Q468.98438 57.875 468.98438 56.921875L468.98438 53.34375L468.21875 53.34375L468.21875 52.53125L468.98438 52.53125L468.98438 50.984375L470.03125 50.359375L470.03125 52.53125L471.09375 52.53125L471.09375 53.34375L470.03125 53.34375L470.03125 56.984375Q470.03125 57.4375 470.07812 57.5625Q470.14062 57.6875 470.26562 57.765625Q470.39062 57.84375 470.625 57.84375Q470.8125 57.84375 471.09375 57.8125ZM471.79688 51.375L471.79688 50.15625L472.85938 50.15625L472.85938 51.375L471.79688 51.375ZM471.79688 58.75L471.79688 52.53125L472.85938 52.53125L472.85938 58.75L471.79688 58.75ZM474.79688 58.75L474.79688 52.53125L475.73438 52.53125L475.73438 53.40625Q476.42188 52.390625 477.71875 52.390625Q478.28125 52.390625 478.75 52.59375Q479.23438 52.796875 479.46875 53.125Q479.70312 53.453125 479.79688 53.890625Q479.84375 54.1875 479.84375 54.921875L479.84375 58.75L478.79688 58.75L478.79688 54.96875Q478.79688 54.3125 478.67188 54.0Q478.54688 53.6875 478.23438 53.5Q477.92188 53.296875 477.5 53.296875Q476.82812 53.296875 476.32812 53.734375Q475.84375 54.15625 475.84375 55.34375L475.84375 58.75L474.79688 58.75ZM486.04688 56.75L487.14062 56.875Q486.89062 57.828125 486.1875 58.359375Q485.48438 58.890625 484.40625 58.890625Q483.04688 58.890625 482.23438 58.046875Q481.4375 57.203125 481.4375 55.6875Q481.4375 54.125 482.25 53.265625Q483.0625 52.390625 484.34375 52.390625Q485.59375 52.390625 486.375 53.234375Q487.17188 54.078125 487.17188 55.625Q487.17188 55.71875 487.17188 55.90625L482.53125 55.90625Q482.59375 56.9375 483.10938 57.484375Q483.625 58.015625 484.40625 58.015625Q484.98438 58.015625 485.39062 57.71875Q485.8125 57.40625 486.04688 56.75ZM482.59375 55.046875L486.0625 55.046875Q486.0 54.25 485.67188 53.859375Q485.15625 53.25 484.35938 53.25Q483.625 53.25 483.125 53.734375Q482.64062 54.21875 482.59375 55.046875Z" fill-rule="nonzero"/><path stroke="#fbbc04" stroke-width="4.0" stroke-linecap="butt" d="M504.0 54.75L516.0 54.75" fill-rule="nonzero"/><path fill="#1a1a1a" d="M524.5469 55.984375L525.6094 55.890625Q525.6875 56.546875 525.96875 56.953125Q526.25 57.359375 526.8281 57.625Q527.4219 57.875 528.15625 57.875Q528.7969 57.875 529.2969 57.6875Q529.7969 57.484375 530.03125 57.15625Q530.28125 56.8125 530.28125 56.421875Q530.28125 56.015625 530.0469 55.71875Q529.8125 55.40625 529.28125 55.203125Q528.9219 55.0625 527.7344 54.78125Q526.5625 54.5 526.09375 54.25Q525.46875 53.921875 525.1719 53.453125Q524.875 52.96875 524.875 52.375Q524.875 51.734375 525.2344 51.171875Q525.6094 50.59375 526.3125 50.3125Q527.03125 50.015625 527.8906 50.015625Q528.84375 50.015625 529.5781 50.328125Q530.3125 50.625 530.7031 51.234375Q531.09375 51.828125 531.125 52.578125L530.03125 52.65625Q529.9375 51.84375 529.4219 51.4375Q528.9219 51.015625 527.9375 51.015625Q526.90625 51.015625 526.4375 51.390625Q525.96875 51.765625 525.96875 52.296875Q525.96875 52.765625 526.2969 53.0625Q526.625 53.359375 528.0 53.671875Q529.3906 53.984375 529.90625 54.21875Q530.65625 54.578125 531.0156 55.109375Q531.375 55.625 531.375 56.328125Q531.375 57.015625 530.9844 57.625Q530.59375 58.21875 529.8594 58.5625Q529.125 58.890625 528.2031 58.890625Q527.03125 58.890625 526.2344 58.5625Q525.4531 58.21875 525.0 57.53125Q524.5625 56.84375 524.5469 55.984375ZM537.3906 52.890625L537.96875 52.140625L538.53125 52.5625L537.90625 53.359375Q538.2656 53.875 538.40625 54.28125Q538.59375 54.859375 538.59375 55.640625Q538.59375 57.40625 537.59375 58.234375Q536.7969 58.890625 535.65625 58.890625Q534.7344 58.890625 534.0156 58.421875L533.40625 59.21875L532.84375 58.796875L533.4844 57.96875Q533.1406 57.578125 532.9844 57.171875Q532.75 56.53125 532.75 55.71875Q532.75 53.96875 533.6094 53.1875Q534.4844 52.390625 535.6406 52.390625Q536.125 52.390625 536.5156 52.515625Q536.9219 52.625 537.3906 52.890625ZM536.7969 53.671875Q536.2656 53.265625 535.6719 53.265625Q534.8906 53.265625 534.3594 53.859375Q533.84375 54.453125 533.84375 55.640625Q533.84375 56.515625 534.1406 57.109375L536.7969 53.671875ZM537.2344 54.234375L534.6094 57.65625Q535.0625 58.015625 535.6406 58.015625Q536.4531 58.015625 536.9844 57.421875Q537.5156 56.828125 537.5156 55.625Q537.5156 55.1875 537.4375 54.859375Q537.3906 54.609375 537.2344 54.234375ZM539.78125 58.75L539.78125 52.53125L540.7344 52.53125L540.7344 53.46875Q541.09375 52.8125 541.3906 52.609375Q541.7031 52.390625 542.0781 52.390625Q542.6094 52.390625 543.15625 52.71875L542.7969 53.703125Q542.40625 53.46875 542.03125 53.46875Q541.6719 53.46875 541.3906 53.6875Q541.125 53.890625 541.0156 54.265625Q540.8281 54.828125 540.8281 55.484375L540.8281 58.75L539.78125 58.75ZM548.0469 56.75L549.1406 56.875Q548.8906 57.828125 548.1875 58.359375Q547.4844 58.890625 546.40625 58.890625Q545.0469 58.890625 544.2344 58.046875Q543.4375 57.203125 543.4375 55.6875Q543.4375 54.125 544.25 53.265625Q545.0625 52.390625 546.34375 52.390625Q547.59375 52.390625 548.375 53.234375Q549.1719 54.078125 549.1719 55.625Q549.1719 55.71875 549.1719 55.90625L544.53125 55.90625Q544.59375 56.9375 545.1094 57.484375Q545.625 58.015625 546.40625 58.015625Q546.9844 58.015625 547.3906 57.71875Q547.8125 57.40625 548.0469 56.75ZM544.59375 55.046875L548.0625 55.046875Q548.0 54.25 547.6719 53.859375Q547.15625 53.25 546.3594 53.25Q545.625 53.25 545.125 53.734375Q544.6406 54.21875 544.59375 55.046875ZM550.7969 58.75L550.7969 52.53125L551.7344 52.53125L551.7344 53.40625Q552.4219 52.390625 553.71875 52.390625Q554.28125 52.390625 554.75 52.59375Q555.2344 52.796875 555.46875 53.125Q555.7031 53.453125 555.7969 53.890625Q555.84375 54.1875 555.84375 54.921875L555.84375 58.75L554.7969 58.75L554.7969 54.96875Q554.7969 54.3125 554.6719 54.0Q554.5469 53.6875 554.2344 53.5Q553.9219 53.296875 553.5 53.296875Q552.8281 53.296875 552.3281 53.734375Q551.84375 54.15625 551.84375 55.34375L551.84375 58.75L550.7969 58.75Z" fill-rule="nonzero"/><path fill="#757575" d="M15.734375 33.25L15.734375 18.9375L18.59375 18.9375L21.96875 29.0625Q22.4375 30.484375 22.65625 31.1875Q22.90625 30.40625 23.421875 28.890625L26.84375 18.9375L29.390625 18.9375L29.390625 33.25L27.578125 33.25L27.578125 21.265625L23.40625 33.25L21.703125 33.25L17.5625 21.0625L17.5625 33.25L15.734375 33.25ZM31.921875 28.0625Q31.921875 25.1875 33.515625 23.796875Q34.859375 22.640625 36.78125 22.640625Q38.921875 22.640625 40.265625 24.046875Q41.625 25.453125 41.625 27.921875Q41.625 29.921875 41.03125 31.078125Q40.4375 32.21875 39.28125 32.859375Q38.140625 33.484375 36.78125 33.484375Q34.59375 33.484375 33.25 32.09375Q31.921875 30.6875 31.921875 28.0625ZM33.71875 28.0625Q33.71875 30.0625 34.578125 31.046875Q35.453125 32.03125 36.78125 32.03125Q38.09375 32.03125 38.953125 31.046875Q39.828125 30.046875 39.828125 28.0Q39.828125 26.078125 38.953125 25.09375Q38.078125 24.09375 36.78125 24.09375Q35.453125 24.09375 34.578125 25.09375Q33.71875 26.078125 33.71875 28.0625ZM47.40625 31.671875L47.65625 33.234375Q46.921875 33.390625 46.328125 33.390625Q45.375 33.390625 44.84375 33.09375Q44.328125 32.78125 44.109375 32.296875Q43.890625 31.796875 43.890625 30.21875L43.890625 24.25L42.609375 24.25L42.609375 22.875L43.890625 22.875L43.890625 20.3125L45.640625 19.25L45.640625 22.875L47.40625 22.875L47.40625 24.25L45.640625 24.25L45.640625 30.3125Q45.640625 31.0625 45.734375 31.28125Q45.828125 31.484375 46.03125 31.625Q46.25 31.75 46.640625 31.75Q46.921875 31.75 47.40625 31.671875ZM49.578125 20.953125L49.578125 18.9375L51.34375 18.9375L51.34375 20.953125L49.578125 20.953125ZM49.578125 33.25L49.578125 22.875L51.34375 22.875L51.34375 33.25L49.578125 33.25ZM56.453125 33.25L52.5 22.875L54.359375 22.875L56.59375 29.09375Q56.953125 30.09375 57.25 31.171875Q57.484375 30.359375 57.90625 29.203125L60.203125 22.875L62.015625 22.875L58.09375 33.25L56.453125 33.25ZM70.34375 31.96875Q69.359375 32.796875 68.453125 33.140625Q67.546875 33.484375 66.515625 33.484375Q64.8125 33.484375 63.890625 32.65625Q62.96875 31.8125 62.96875 30.515625Q62.96875 29.75 63.3125 29.125Q63.671875 28.5 64.234375 28.125Q64.796875 27.734375 65.5 27.53125Q66.015625 27.40625 67.0625 27.265625Q69.1875 27.015625 70.1875 26.671875Q70.203125 26.3125 70.203125 26.203125Q70.203125 25.140625 69.703125 24.6875Q69.03125 24.09375 67.703125 24.09375Q66.453125 24.09375 65.859375 24.53125Q65.28125 24.96875 65.0 26.078125L63.28125 25.84375Q63.515625 24.734375 64.046875 24.0625Q64.578125 23.375 65.59375 23.015625Q66.609375 22.640625 67.953125 22.640625Q69.28125 22.640625 70.109375 22.953125Q70.9375 23.265625 71.328125 23.75Q71.71875 24.21875 71.875 24.9375Q71.96875 25.390625 71.96875 26.5625L71.96875 28.90625Q71.96875 31.359375 72.078125 32.015625Q72.1875 32.65625 72.53125 33.25L70.6875 33.25Q70.421875 32.703125 70.34375 31.96875ZM70.1875 28.046875Q69.234375 28.4375 67.3125 28.703125Q66.234375 28.859375 65.78125 29.0625Q65.34375 29.25 65.09375 29.625Q64.84375 30.0 64.84375 30.46875Q64.84375 31.171875 65.375 31.640625Q65.90625 32.109375 66.9375 32.109375Q67.953125 32.109375 68.734375 31.671875Q69.53125 31.21875 69.90625 30.453125Q70.1875 29.84375 70.1875 28.6875L70.1875 28.046875ZM78.40625 31.671875L78.65625 33.234375Q77.921875 33.390625 77.328125 33.390625Q76.375 33.390625 75.84375 33.09375Q75.328125 32.78125 75.109375 32.296875Q74.890625 31.796875 74.890625 30.21875L74.890625 24.25L73.609375 24.25L73.609375 22.875L74.890625 22.875L74.890625 20.3125L76.640625 19.25L76.640625 22.875L78.40625 22.875L78.40625 24.25L76.640625 24.25L76.640625 30.3125Q76.640625 31.0625 76.734375 31.28125Q76.828125 31.484375 77.03125 31.625Q77.25 31.75 77.640625 31.75Q77.921875 31.75 78.40625 31.671875ZM80.578125 20.953125L80.578125 18.9375L82.34375 18.9375L82.34375 20.953125L80.578125 20.953125ZM80.578125 33.25L80.578125 22.875L82.34375 22.875L82.34375 33.25L80.578125 33.25ZM83.921875 28.0625Q83.921875 25.1875 85.515625 23.796875Q86.859375 22.640625 88.78125 22.640625Q90.921875 22.640625 92.265625 24.046875Q93.625 25.453125 93.625 27.921875Q93.625 29.921875 93.03125 31.078125Q92.4375 32.21875 91.28125 32.859375Q90.140625 33.484375 88.78125 33.484375Q86.59375 33.484375 85.25 32.09375Q83.921875 30.6875 83.921875 28.0625ZM85.71875 28.0625Q85.71875 30.0625 86.578125 31.046875Q87.453125 32.03125 88.78125 32.03125Q90.09375 32.03125 90.953125 31.046875Q91.828125 30.046875 91.828125 28.0Q91.828125 26.078125 90.953125 25.09375Q90.078125 24.09375 88.78125 24.09375Q87.453125 24.09375 86.578125 25.09375Q85.71875 26.078125 85.71875 28.0625ZM95.5625 33.25L95.5625 22.875L97.15625 22.875L97.15625 24.359375Q98.296875 22.640625 100.453125 22.640625Q101.390625 22.640625 102.171875 22.984375Q102.96875 23.3125 103.359375 23.859375Q103.75 24.40625 103.90625 25.15625Q104.0 25.65625 104.0 26.875L104.0 33.25L102.234375 33.25L102.234375 26.9375Q102.234375 25.859375 102.03125 25.328125Q101.828125 24.796875 101.296875 24.484375Q100.78125 24.171875 100.078125 24.171875Q98.953125 24.171875 98.140625 24.890625Q97.328125 25.59375 97.328125 27.578125L97.328125 33.25L95.5625 33.25ZM112.53125 33.25L112.53125 18.9375L114.28125 18.9375L114.28125 33.25L112.53125 33.25ZM123.671875 29.90625L125.484375 30.140625Q125.0625 31.71875 123.890625 32.609375Q122.734375 33.484375 120.921875 33.484375Q118.65625 33.484375 117.3125 32.09375Q115.984375 30.6875 115.984375 28.15625Q115.984375 25.53125 117.328125 24.09375Q118.671875 22.640625 120.828125 22.640625Q122.90625 22.640625 124.21875 24.0625Q125.546875 25.46875 125.546875 28.046875Q125.546875 28.203125 125.53125 28.515625L117.796875 28.515625Q117.890625 30.21875 118.765625 31.125Q119.640625 32.03125 120.9375 32.03125Q121.90625 32.03125 122.578125 31.53125Q123.265625 31.015625 123.671875 29.90625ZM117.890625 27.0625L123.6875 27.0625Q123.578125 25.765625 123.03125 25.109375Q122.1875 24.09375 120.84375 24.09375Q119.640625 24.09375 118.8125 24.90625Q117.984375 25.703125 117.890625 27.0625ZM130.45312 33.25L126.5 22.875L128.35938 22.875L130.59375 29.09375Q130.95312 30.09375 131.25 31.171875Q131.48438 30.359375 131.90625 29.203125L134.20312 22.875L136.01562 22.875L132.09375 33.25L130.45312 33.25ZM144.67188 29.90625L146.48438 30.140625Q146.0625 31.71875 144.89062 32.609375Q143.73438 33.484375 141.92188 33.484375Q139.65625 33.484375 138.3125 32.09375Q136.98438 30.6875 136.98438 28.15625Q136.98438 25.53125 138.32812 24.09375Q139.67188 22.640625 141.82812 22.640625Q143.90625 22.640625 145.21875 24.0625Q146.54688 25.46875 146.54688 28.046875Q146.54688 28.203125 146.53125 28.515625L138.79688 28.515625Q138.89062 30.21875 139.76562 31.125Q140.64062 32.03125 141.9375 32.03125Q142.90625 32.03125 143.57812 31.53125Q144.26562 31.015625 144.67188 29.90625ZM138.89062 27.0625L144.6875 27.0625Q144.57812 25.765625 144.03125 25.109375Q143.1875 24.09375 141.84375 24.09375Q140.64062 24.09375 139.8125 24.90625Q138.98438 25.703125 138.89062 27.0625ZM148.53125 33.25L148.53125 18.9375L150.28125 18.9375L150.28125 33.25L148.53125 33.25ZM151.85938 30.15625L153.60938 29.875Q153.75 30.921875 154.42188 31.484375Q155.09375 32.03125 156.29688 32.03125Q157.5 32.03125 158.07812 31.546875Q158.67188 31.046875 158.67188 30.390625Q158.67188 29.796875 158.15625 29.453125Q157.79688 29.21875 156.35938 28.859375Q154.42188 28.359375 153.67188 28.015625Q152.9375 27.65625 152.54688 27.03125Q152.15625 26.390625 152.15625 25.625Q152.15625 24.9375 152.46875 24.34375Q152.79688 23.75 153.34375 23.359375Q153.75 23.0625 154.45312 22.859375Q155.17188 22.640625 155.98438 22.640625Q157.20312 22.640625 158.125 23.0Q159.04688 23.34375 159.48438 23.953125Q159.92188 24.546875 160.09375 25.546875L158.375 25.78125Q158.25 24.984375 157.6875 24.546875Q157.125 24.09375 156.10938 24.09375Q154.89062 24.09375 154.375 24.5Q153.85938 24.890625 153.85938 25.421875Q153.85938 25.765625 154.07812 26.046875Q154.28125 26.328125 154.75 26.515625Q155.01562 26.609375 156.29688 26.953125Q158.17188 27.453125 158.90625 27.78125Q159.64062 28.09375 160.0625 28.703125Q160.48438 29.296875 160.48438 30.203125Q160.48438 31.078125 159.96875 31.859375Q159.45312 32.640625 158.48438 33.0625Q157.51562 33.484375 156.29688 33.484375Q154.28125 33.484375 153.21875 32.640625Q152.15625 31.796875 151.85938 30.15625Z" fill-rule="nonzero"/></svg>