<svg version="1.1" viewBox="0.0 0.0 944.0 285.0" fill="none" stroke="none" stroke-linecap="square" stroke-miterlimit="10" width="944" height="285" xmlns:xlink="http://www.w3.org/1999/xlink" xmlns="http://www.w3.org/2000/svg"><path fill="#ffffff" d="M0 0L944.0 0L944.0 285.0L0 285.0L0 0Z" fill-rule="nonzero"/><path stroke="#cccccc" stroke-width="1.0" stroke-linecap="butt" d="M73.5 263.5L929.5 263.5" fill-rule="nonzero"/><path stroke="#333333" stroke-width="1.0" stroke-linecap="butt" d="M73.5 201.5L929.5 201.5" fill-rule="nonzero"/><path stroke="#cccccc" stroke-width="1.0" stroke-linecap="butt" d="M73.5 140.5L929.5 140.5" fill-rule="nonzero"/><path stroke="#cccccc" stroke-width="1.0" stroke-linecap="butt" d="M73.5 78.5L929.5 78.5" fill-rule="nonzero"/><clipPath id="id_0"><path d="M73.25 78.25L929.75 78.25L929.75 263.75L73.25 263.75L73.25 78.25Z" clip-rule="nonzero"/></clipPath><path stroke="#4285f4" stroke-width="2.0" stroke-linecap="butt" clip-path="url(#id_0)" d="M92.71591 78.25C92.71591 78.25 118.670456 249.32222 131.64772 263.75C144.625 278.17776 157.60228 195.73334 170.57954 164.81667C183.55682 133.9 196.53409 63.822224 209.51137 78.25C222.48863 92.67778 235.46591 228.7111 248.44318 251.38333C261.42044 274.05554 274.39774 232.83333 287.375 214.28334C300.35226 195.73334 313.32956 162.75555 326.30682 140.08333C339.2841 117.41111 352.26135 57.63889 365.23865 78.25C378.2159 98.861115 391.19318 263.75 404.17044 263.75C417.14774 263.75 430.125 78.25 443.10226 78.25C456.07956 78.25 469.05682 263.75 482.0341 263.75C495.01135 263.75 507.98865 78.25 520.9659 78.25C533.9432 78.25 546.9205 249.32222 559.8977 263.75C572.875 278.17776 585.8523 195.73334 598.8295 164.81667C611.8068 133.9 624.7841 63.822224 637.76135 78.25C650.73865 92.67778 663.7159 228.7111 676.6932 251.38333C689.6705 274.05554 702.6477 232.83333 715.625 214.28334C728.6023 195.73334 741.5795 162.75555 754.5568 140.08333C767.5341 117.41111 780.51135 57.63889 793.48865 78.25C806.4659 98.861115 819.4432 263.75 832.4205 263.75C845.3977 263.75 858.375 78.25 871.3523 78.25C884.3295 78.25 910.2841 263.75 910.2841 263.75" fill-rule="nonzero"/><path stroke="#ea4335" stroke-width="2.0" stroke-linecap="butt" clip-path="url(#id_0)" d="M92.71591 170.50534C92.71591 170.50534 118.670456 170.50534 131.64772 170.50534C144.625 170.50534 157.60228 170.50534 170.57954 170.50534C183.55682 170.50534 196.53409 170.50534 209.51137 170.50534C222.48863 170.50534 235.46591 170.50534 248.44318 170.50534C261.42044 170.50534 274.39774 170.50534 287.375 170.50534C300.35226 170.50534 313.32956 170.50534 326.30682 170.50534C339.2841 170.50534 352.26135 170.50534 365.23865 170.50534C378.2159 170.50534 391.19318 170.50534 404.17044 170.50534C417.14774 170.50534 430.125 170.50534 443.10226 170.50534C456.07956 170.50534 469.05682 170.50534 482.0341 170.50534C495.01135 170.50534 507.98865 170.50534 520.9659 170.50534C533.9432 170.50534 546.9205 170.50534 559.8977 170.50534C572.875 170.50534 585.8523 170.50534 598.8295 170.50534C611.8068 170.50534 624.7841 170.50534 637.76135 170.50534C650.73865 170.50534 663.7159 170.50534 676.6932 170.50534C689.6705 170.50534 702.6477 170.50534 715.625 170.50534C728.6023 170.50534 741.5795 170.50534 754.5568 170.50534C767.5341 170.50534 780.51135 170.50534 793.48865 170.50534C806.4659 170.50534 819.4432 170.50534 832.4205 170.50534C845.3977 170.50534 858.375 170.50534 871.3523 170.50534C884.3295 170.50534 910.2841 170.50534 910.2841 170.50534" fill-rule="nonzero"/><path fill="#000000" fill-opacity="0.0" clip-path="url(#id_0)" d="M95.71591 78.25C95.71591 79.90685 94.372765 81.25 92.71591 81.25C91.05905 81.25 89.71591 79.90685 89.71591 78.25C89.71591 76.59315 91.05905 75.25 92.71591 75.25C94.372765 75.25 95.71591 76.59315 95.71591 78.25Z" fill-rule="nonzero"/><path fill="#000000" fill-opacity="0.0" clip-path="url(#id_0)" d="M134.64772 263.75C134.64772 265.40686 133.30458 266.75 131.64772 266.75C129.99088 266.75 128.64772 265.40686 128.64772 263.75C128.64772 262.09314 129.99088 260.75 131.64772 260.75C133.30458 260.75 134.64772 262.09314 134.64772 263.75Z" fill-rule="nonzero"/><path fill="#000000" fill-opacity="0.0" clip-path="url(#id_0)" d="M173.57954 164.81667C173.57954 166.47353 172.2364 167.81667 170.57954 167.81667C168.92268 167.81667 167.57954 166.47353 167.57954 164.81667C167.57954 163.1598 168.92268 161.81667 170.57954 161.81667C172.2364 161.81667 173.57954 163.1598 173.57954 164.81667Z" fill-rule="nonzero"/><path fill="#000000" fill-opacity="0.0" clip-path="url(#id_0)" d="M212.51137 78.25C212.51137 79.90685 211.16821 81.25 209.51137 81.25C207.8545 81.25 206.51137 79.90685 206.51137 78.25C206.51137 76.59315 207.8545 75.25 209.51137 75.25C211.16821 75.25 212.51137 76.59315 212.51137 78.25Z" fill-rule="nonzero"/><path fill="#000000" fill-opacity="0.0" clip-path="url(#id_0)" d="M251.44318 251.38333C251.44318 253.04019 250.10004 254.38333 248.44318 254.38333C246.78633 254.38333 245.44318 253.04019 245.44318 251.38333C245.44318 249.72649 246.78633 248.38333 248.44318 248.38333C250.10004 248.38333 251.44318 249.72649 251.44318 251.38333Z" fill-rule="nonzero"/><path fill="#000000" fill-opacity="0.0" clip-path="url(#id_0)" d="M290.375 214.28334C290.375 215.94019 289.03186 217.28334 287.375 217.28334C285.71814 217.28334 284.375 215.94019 284.375 214.28334C284.375 212.62648 285.71814 211.28334 287.375 211.28334C289.03186 211.28334 290.375 212.62648 290.375 214.28334Z" fill-rule="nonzero"/><path fill="#000000" fill-opacity="0.0" clip-path="url(#id_0)" d="M329.30682 140.08333C329.30682 141.74019 327.96368 143.08333 326.30682 143.08333C324.64996 143.08333 323.30682 141.74019 323.30682 140.08333C323.30682 138.42648 324.64996 137.08333 326.30682 137.08333C327.96368 137.08333 329.30682 138.42648 329.30682 140.08333Z" fill-rule="nonzero"/><path fill="#000000" fill-opacity="0.0" clip-path="url(#id_0)" d="M368.23865 78.25C368.23865 79.90685 366.89548 81.25 365.23865 81.25C363.5818 81.25 362.23865 79.90685 362.23865 78.25C362.23865 76.59315 363.5818 75.25 365.23865 75.25C366.89548 75.25 368.23865 76.59315 368.23865 78.25Z" fill-rule="nonzero"/><path fill="#000000" fill-opacity="0.0" clip-path="url(#id_0)" d="M407.17044 263.75C407.17044 265.40686 405.8273 266.75 404.17044 266.75C402.5136 266.75 401.17044 265.40686 401.17044 263.75C401.17044 262.09314 402.5136 260.75 404.17044 260.75C405.8273 260.75 407.17044 262.09314 407.17044 263.75Z" fill-rule="nonzero"/><path fill="#000000" fill-opacity="0.0" clip-path="url(#id_0)" d="M446.10226 78.25C446.10226 79.90685 444.75912 81.25 443.10226 81.25C441.4454 81.25 440.10226 79.90685 440.10226 78.25C440.10226 76.59315 441.4454 75.25 443.10226 75.25C444.75912 75.25 446.10226 76.59315 446.10226 78.25Z" fill-rule="nonzero"/><path fill="#000000" fill-opacity="0.0" clip-path="url(#id_0)" d="M485.0341 263.75C485.0341 265.40686 483.69095 266.75 482.0341 266.75C480.37723 266.75 479.0341 265.40686 479.0341 263.75C479.0341 262.09314 480.37723 260.75 482.0341 260.75C483.69095 260.75 485.0341 262.09314 485.0341 263.75Z" fill-rule="nonzero"/><path fill="#000000" fill-opacity="0.0" clip-path="url(#id_0)" d="M523.9659 78.25C523.9659 79.90685 522.62274 81.25 520.9659 81.25C519.3091 81.25 517.9659 79.90685 517.9659 78.25C517.9659 76.59315 519.3091 75.25 520.9659 75.25C522.62274 75.25 523.9659 76.59315 523.9659 78.25Z" fill-rule="nonzero"/><path fill="#000000" fill-opacity="0.0" clip-path="url(#id_0)" d="M562.8977 263.75C562.8977 265.40686 561.55457 266.75 559.8977 266.75C558.24084 266.75 556.8977 265.40686 556.8977 263.75C556.8977 262.09314 558.24084 260.75 559.8977 260.75C561.55457 260.75 562.8977 262.09314 562.8977 263.75Z" fill-rule="nonzero"/><path fill="#000000" fill-opacity="0.0" clip-path="url(#id_0)" d="M601.8295 164.81667C601.8295 166.47353 600.4864 167.81667 598.8295 167.81667C597.17267 167.81667 595.8295 166.47353 595.8295 164.81667C595.8295 163.1598 597.17267 161.81667 598.8295 161.81667C600.4864 161.81667 601.8295 163.1598 601.8295 164.81667Z" fill-rule="nonzero"/><path fill="#000000" fill-opacity="0.0" clip-path="url(#id_0)" d="M640.76135 78.25C640.76135 79.90685 639.4182 81.25 637.76135 81.25C636.1045 81.25 634.76135 79.90685 634.76135 78.25C634.76135 76.59315 636.1045 75.25 637.76135 75.25C639.4182 75.25 640.76135 76.59315 640.76135 78.25Z" fill-rule="nonzero"/><path fill="#000000" fill-opacity="0.0" clip-path="url(#id_0)" d="M679.6932 251.38333C679.6932 253.04019 678.35004 254.38333 676.6932 254.38333C675.0363 254.38333 673.6932 253.04019 673.6932 251.38333C673.6932 249.72649 675.0363 248.38333 676.6932 248.38333C678.35004 248.38333 679.6932 249.72649 679.6932 251.38333Z" fill-rule="nonzero"/><path fill="#000000" fill-opacity="0.0" clip-path="url(#id_0)" d="M718.625 214.28334C718.625 215.94019 717.28186 217.28334 715.625 217.28334C713.96814 217.28334 712.625 215.94019 712.625 214.28334C712.625 212.62648 713.96814 211.28334 715.625 211.28334C717.28186 211.28334 718.625 212.62648 718.625 214.28334Z" fill-rule="nonzero"/><path fill="#000000" fill-opacity="0.0" clip-path="url(#id_0)" d="M757.5568 140.08333C757.5568 141.74019 756.2137 143.08333 754.5568 143.08333C752.89996 143.08333 751.5568 141.74019 751.5568 140.08333C751.5568 138.42648 752.89996 137.08333 754.5568 137.08333C756.2137 137.08333 757.5568 138.42648 757.5568 140.08333Z" fill-rule="nonzero"/><path fill="#000000" fill-opacity="0.0" clip-path="url(#id_0)" d="M796.48865 78.25C796.48865 79.90685 795.1455 81.25 793.48865 81.25C791.8318 81.25 790.48865 79.90685 790.48865 78.25C790.48865 76.59315 791.8318 75.25 793.48865 75.25C795.1455 75.25 796.48865 76.59315 796.48865 78.25Z" fill-rule="nonzero"/><path fill="#000000" fill-opacity="0.0" clip-path="url(#id_0)" d="M835.4205 263.75C835.4205 265.40686 834.07733 266.75 832.4205 266.75C830.7636 266.75 829.4205 265.40686 829.4205 263.75C829.4205 262.09314 830.7636 260.75 832.4205 260.75C834.07733 260.75 835.4205 262.09314 835.4205 263.75Z" fill-rule="nonzero"/><path fill="#000000" fill-opacity="0.0" clip-path="url(#id_0)" d="M874.3523 78.25C874.3523 79.90685 873.00916 81.25 871.3523 81.25C869.69543 81.25 868.3523 79.90685 868.3523 78.25C868.3523 76.59315 869.69543 75.25 871.3523 75.25C873.00916 75.25 874.3523 76.59315 874.3523 78.25Z" fill-rule="nonzero"/><path fill="#000000" fill-opacity="0.0" clip-path="url(#id_0)" d="M913.2841 263.75C913.2841 265.40686 911.9409 266.75 910.2841 266.75C908.62726 266.75 907.2841 265.40686 907.2841 263.75C907.2841 262.09314 908.62726 260.75 910.2841 260.75C911.9409 260.75 913.2841 262.09314 913.2841 263.75Z" fill-rule="nonzero"/><path fill="#000000" fill-opacity="0.0" clip-path="url(#id_0)" d="M95.71591 170.50534C95.71591 172.16219 94.372765 173.50534 92.71591 173.50534C91.05905 173.50534 89.71591 172.16219 89.71591 170.50534C89.71591 168.84848 91.05905 167.50534 92.71591 167.50534C94.372765 167.50534 95.71591 168.84848 95.71591 170.50534Z" fill-rule="nonzero"/><path fill="#000000" fill-opacity="0.0" clip-path="url(#id_0)" d="M134.64772 170.50534C134.64772 172.16219 133.30458 173.50534 131.64772 173.50534C129.99088 173.50534 128.64772 172.16219 128.64772 170.50534C128.64772 168.84848 129.99088 167.50534 131.64772 167.50534C133.30458 167.50534 134.64772 168.84848 134.64772 170.50534Z" fill-rule="nonzero"/><path fill="#000000" fill-opacity="0.0" clip-path="url(#id_0)" d="M173.57954 170.50534C173.57954 172.16219 172.2364 173.50534 170.57954 173.50534C168.92268 173.50534 167.57954 172.16219 167.57954 170.50534C167.57954 168.84848 168.92268 167.50534 170.57954 167.50534C172.2364 167.50534 173.57954 168.84848 173.57954 170.50534Z" fill-rule="nonzero"/><path fill="#000000" fill-opacity="0.0" clip-path="url(#id_0)" d="M212.51137 170.50534C212.51137 172.16219 211.16821 173.50534 209.51137 173.50534C207.8545 173.50534 206.51137 172.16219 206.51137 170.50534C206.51137 168.84848 207.8545 167.50534 209.51137 167.50534C211.16821 167.50534 212.51137 168.84848 212.51137 170.50534Z" fill-rule="nonzero"/><path fill="#000000" fill-opacity="0.0" clip-path="url(#id_0)" d="M251.44318 170.50534C251.44318 172.16219 250.10004 173.50534 248.44318 173.50534C246.78633 173.50534 245.44318 172.16219 245.44318 170.50534C245.44318 168.84848 246.78633 167.50534 248.44318 167.50534C250.10004 167.50534 251.44318 168.84848 251.44318 170.50534Z" fill-rule="nonzero"/><path fill="#000000" fill-opacity="0.0" clip-path="url(#id_0)" d="M290.375 170.50534C290.375 172.16219 289.03186 173.50534 287.375 173.50534C285.71814 173.50534 284.375 172.16219 284.375 170.50534C284.375 168.84848 285.71814 167.50534 287.375 167.50534C289.03186 167.50534 290.375 168.84848 290.375 170.50534Z" fill-rule="nonzero"/><path fill="#000000" fill-opacity="0.0" clip-path="url(#id_0)" d="M329.30682 170.50534C329.30682 172.16219 327.96368 173.50534 326.30682 173.50534C324.64996 173.50534 323.30682 172.16219 323.30682 170.50534C323.30682 168.84848 324.64996 167.50534 326.30682 167.50534C327.96368 167.50534 329.30682 168.84848 329.30682 170.50534Z" fill-rule="nonzero"/><path fill="#000000" fill-opacity="0.0" clip-path="url(#id_0)" d="M368.23865 170.50534C368.23865 172.16219 366.89548 173.50534 365.23865 173.50534C363.5818 173.50534 362.23865 172.16219 362.23865 170.50534C362.23865 168.84848 363.5818 167.50534 365.23865 167.50534C366.89548 167.50534 368.23865 168.84848 368.23865 170.50534Z" fill-rule="nonzero"/><path fill="#000000" fill-opacity="0.0" clip-path="url(#id_0)" d="M407.17044 170.50534C407.17044 172.16219 405.8273 173.50534 404.17044 173.50534C402.5136 173.50534 401.17044 172.16219 401.17044 170.50534C401.17044 168.84848 402.5136 167.50534 404.17044 167.50534C405.8273 167.50534 407.17044 168.84848 407.17044 170.50534Z" fill-rule="nonzero"/><path fill="#000000" fill-opacity="0.0" clip-path="url(#id_0)" d="M446.10226 170.50534C446.10226 172.16219 444.75912 173.50534 443.10226 173.50534C441.4454 173.50534 440.10226 172.16219 440.10226 170.50534C440.10226 168.84848 441.4454 167.50534 443.10226 167.50534C444.75912 167.50534 446.10226 168.84848 446.10226 170.50534Z" fill-rule="nonzero"/><path fill="#000000" fill-opacity="0.0" clip-path="url(#id_0)" d="M485.0341 170.50534C485.0341 172.16219 483.69095 173.50534 482.0341 173.50534C480.37723 173.50534 479.0341 172.16219 479.0341 170.50534C479.0341 168.84848 480.37723 167.50534 482.0341 167.50534C483.69095 167.50534 485.0341 168.84848 485.0341 170.50534Z" fill-rule="nonzero"/><path fill="#000000" fill-opacity="0.0" clip-path="url(#id_0)" d="M523.9659 170.50534C523.9659 172.16219 522.62274 173.50534 520.9659 173.50534C519.3091 173.50534 517.9659 172.16219 517.9659 170.50534C517.9659 168.84848 519.3091 167.50534 520.9659 167.50534C522.62274 167.50534 523.9659 168.84848 523.9659 170.50534Z" fill-rule="nonzero"/><path fill="#000000" fill-opacity="0.0" clip-path="url(#id_0)" d="M562.8977 170.50534C562.8977 172.16219 561.55457 173.50534 559.8977 173.50534C558.24084 173.50534 556.8977 172.16219 556.8977 170.50534C556.8977 168.84848 558.24084 167.50534 559.8977 167.50534C561.55457 167.50534 562.8977 168.84848 562.8977 170.50534Z" fill-rule="nonzero"/><path fill="#000000" fill-opacity="0.0" clip-path="url(#id_0)" d="M601.8295 170.50534C601.8295 172.16219 600.4864 173.50534 598.8295 173.50534C597.17267 173.50534 595.8295 172.16219 595.8295 170.50534C595.8295 168.84848 597.17267 167.50534 598.8295 167.50534C600.4864 167.50534 601.8295 168.84848 601.8295 170.50534Z" fill-rule="nonzero"/><path fill="#000000" fill-opacity="0.0" clip-path="url(#id_0)" d="M640.76135 170.50534C640.76135 172.16219 639.4182 173.50534 637.76135 173.50534C636.1045 173.50534 634.76135 172.16219 634.76135 170.50534C634.76135 168.84848 636.1045 167.50534 637.76135 167.50534C639.4182 167.50534 640.76135 168.84848 640.76135 170.50534Z" fill-rule="nonzero"/><path fill="#000000" fill-opacity="0.0" clip-path="url(#id_0)" d="M679.6932 170.50534C679.6932 172.16219 678.35004 173.50534 676.6932 173.50534C675.0363 173.50534 673.6932 172.16219 673.6932 170.50534C673.6932 168.84848 675.0363 167.50534 676.6932 167.50534C678.35004 167.50534 679.6932 168.84848 679.6932 170.50534Z" fill-rule="nonzero"/><path fill="#000000" fill-opacity="0.0" clip-path="url(#id_0)" d="M718.625 170.50534C718.625 172.16219 717.28186 173.50534 715.625 173.50534C713.96814 173.50534 712.625 172.16219 712.625 170.50534C712.625 168.84848 713.96814 167.50534 715.625 167.50534C717.28186 167.50534 718.625 168.84848 718.625 170.50534Z" fill-rule="nonzero"/><path fill="#000000" fill-opacity="0.0" clip-path="url(#id_0)" d="M757.5568 170.50534C757.5568 172.16219 756.2137 173.50534 754.5568 173.50534C752.89996 173.50534 751.5568 172.16219 751.5568 170.50534C751.5568 168.84848 752.89996 167.50534 754.5568 167.50534C756.2137 167.50534 757.5568 168.84848 757.5568 170.50534Z" fill-rule="nonzero"/><path fill="#000000" fill-opacity="0.0" clip-path="url(#id_0)" d="M796.48865 170.50534C796.48865 172.16219 795.1455 173.50534 793.48865 173.50534C791.8318 173.50534 790.48865 172.16219 790.48865 170.50534C790.48865 168.84848 791.8318 167.50534 793.48865 167.50534C795.1455 167.50534 796.48865 168.84848 796.48865 170.50534Z" fill-rule="nonzero"/><path fill="#000000" fill-opacity="0.0" clip-path="url(#id_0)" d="M835.4205 170.50534C835.4205 172.16219 834.07733 173.50534 832.4205 173.50534C830.7636 173.50534 829.4205 172.16219 829.4205 170.50534C829.4205 168.84848 830.7636 167.50534 832.4205 167.50534C834.07733 167.50534 835.4205 168.84848 835.4205 170.50534Z" fill-rule="nonzero"/><path fill="#000000" fill-opacity="0.0" clip-path="url(#id_0)" d="M874.3523 170.50534C874.3523 172.16219 873.00916 173.50534 871.3523 173.50534C869.69543 173.50534 868.3523 172.16219 868.3523 170.50534C868.3523 168.84848 869.69543 167.50534 871.3523 167.50534C873.00916 167.50534 874.3523 168.84848 874.3523 170.50534Z" fill-rule="nonzero"/><path fill="#000000" fill-opacity="0.0" clip-path="url(#id_0)" d="M913.2841 170.50534C913.2841 172.16219 911.9409 173.50534 910.2841 173.50534C908.62726 173.50534 907.2841 172.16219 907.2841 170.50534C907.2841 168.84848 908.62726 167.50534 910.2841 167.50534C911.9409 167.50534 913.2841 168.84848 913.2841 170.50534Z" fill-rule="nonzero"/><path fill="#000000" d="M25.25 199.125L16.65625 199.125L16.65625 197.98438L24.234375 197.98438L24.234375 193.75L25.25 193.75L25.25 199.125ZM22.140625 192.59375Q20.40625 192.59375 19.578125 191.64062Q18.890625 190.84375 18.890625 189.6875Q18.890625 188.40625 19.734375 187.59375Q20.5625 186.76562 22.046875 186.76562Q23.25 186.76562 23.9375 187.125Q24.625 187.48438 25.015625 188.1875Q25.390625 188.875 25.390625 189.6875Q25.390625 190.98438 24.5625 191.79688Q23.71875 192.59375 22.140625 192.59375ZM22.140625 191.51562Q23.328125 191.51562 23.921875 191.0Q24.515625 190.46875 24.515625 189.6875Q24.515625 188.89062 23.921875 188.375Q23.328125 187.85938 22.109375 187.85938Q20.953125 187.85938 20.359375 188.39062Q19.765625 188.90625 19.765625 189.6875Q19.765625 190.46875 20.359375 191.0Q20.9375 191.51562 22.140625 191.51562ZM25.25 184.0625L19.03125 185.96875L19.03125 184.875L22.625 183.89062L23.953125 183.51562Q23.859375 183.48438 22.671875 183.1875L19.03125 182.20312L19.03125 181.125L22.640625 180.1875L23.828125 179.875L22.625 179.51562L19.03125 178.45312L19.03125 177.42188L25.25 179.375L25.25 180.46875L21.515625 181.45312L20.46875 181.70312L25.25 182.95312L25.25 184.0625ZM27.78125 172.89062L16.515625 172.89062L16.515625 171.98438L27.78125 171.98438L27.78125 172.89062ZM25.25 167.03125L16.65625 167.03125L16.65625 165.90625L20.1875 165.90625L20.1875 161.4375L16.65625 161.4375L16.65625 160.29688L25.25 160.29688L25.25 161.4375L21.203125 161.4375L21.203125 165.90625L25.25 165.90625L25.25 167.03125ZM17.875 158.20312L16.65625 158.20312L16.65625 157.14062L17.875 157.14062L17.875 158.20312ZM25.25 158.20312L19.03125 158.20312L19.03125 157.14062L25.25 157.14062L25.25 158.20312ZM25.765625 155.40625L25.921875 154.375Q26.390625 154.3125 26.609375 154.01562Q26.90625 153.625 26.90625 152.95312Q26.90625 152.21875 26.609375 151.82812Q26.3125 151.42188 25.796875 151.28125Q25.46875 151.1875 24.4375 151.20312Q25.25 151.89062 25.25 152.92188Q25.25 154.20312 24.328125 154.90625Q23.390625 155.60938 22.109375 155.60938Q21.21875 155.60938 20.46875 155.29688Q19.703125 154.96875 19.296875 154.35938Q18.890625 153.75 18.890625 152.92188Q18.890625 151.8125 19.78125 151.09375L19.03125 151.09375L19.03125 150.125L24.40625 150.125Q25.859375 150.125 26.46875 150.42188Q27.078125 150.71875 27.421875 151.35938Q27.78125 152.0 27.78125 152.9375Q27.78125 154.04688 27.28125 154.73438Q26.78125 155.42188 25.765625 155.40625ZM22.03125 154.53125Q23.25 154.53125 23.8125 154.04688Q24.375 153.5625 24.375 152.82812Q24.375 152.09375 23.8125 151.60938Q23.25 151.10938 22.0625 151.10938Q20.921875 151.10938 20.34375 151.625Q19.765625 152.125 19.765625 152.84375Q19.765625 153.54688 20.34375 154.04688Q20.90625 154.53125 22.03125 154.53125ZM25.25 148.20312L16.65625 148.20312L16.65625 147.15625L19.734375 147.15625Q18.890625 146.42188 18.890625 145.29688Q18.890625 144.59375 19.171875 144.09375Q19.4375 143.57812 19.921875 143.35938Q20.390625 143.14062 21.3125 143.14062L25.25 143.14062L25.25 144.1875L21.3125 144.1875Q20.515625 144.1875 20.15625 144.53125Q19.796875 144.875 19.796875 145.5Q19.796875 145.96875 20.046875 146.39062Q20.28125 146.79688 20.703125 146.98438Q21.109375 147.15625 21.84375 147.15625L25.25 147.15625L25.25 148.20312Z" fill-rule="nonzero"/><path fill="#000000" d="M56.625 265.17188L56.625 264.10938L59.875 264.10938L59.875 265.17188L56.625 265.17188ZM60.75 265.5L61.859375 265.40625Q61.984375 266.21875 62.421875 266.625Q62.875 267.03125 63.515625 267.03125Q64.265625 267.03125 64.796875 266.45312Q65.328125 265.875 65.328125 264.9375Q65.328125 264.03125 64.8125 263.51562Q64.3125 262.98438 63.484375 262.98438Q62.984375 262.98438 62.5625 263.21875Q62.15625 263.45312 61.921875 263.8125L60.9375 263.6875L61.765625 259.28125L66.046875 259.28125L66.046875 260.28125L62.609375 260.28125L62.15625 262.59375Q62.921875 262.04688 63.765625 262.04688Q64.890625 262.04688 65.65625 262.82812Q66.4375 263.60938 66.4375 264.84375Q66.4375 266.0 65.765625 266.85938Q64.9375 267.89062 63.515625 267.89062Q62.34375 267.89062 61.59375 267.23438Q60.859375 266.57812 60.75 265.5Z" fill-rule="nonzero"/><path fill="#000000" d="M60.75 201.6823Q60.75 200.15105 61.0625 199.22917Q61.375 198.29167 61.984375 197.79167Q62.609375 197.29167 63.546875 197.29167Q64.234375 197.29167 64.75 197.57292Q65.28125 197.85417 65.625 198.38542Q65.96875 198.90105 66.15625 199.65105Q66.34375 200.40105 66.34375 201.6823Q66.34375 203.19792 66.03125 204.1198Q65.734375 205.04167 65.109375 205.5573Q64.5 206.0573 63.546875 206.0573Q62.3125 206.0573 61.59375 205.16667Q60.75 204.10417 60.75 201.6823ZM61.828125 201.6823Q61.828125 203.79167 62.328125 204.4948Q62.828125 205.19792 63.546875 205.19792Q64.28125 205.19792 64.765625 204.4948Q65.265625 203.79167 65.265625 201.6823Q65.265625 199.5573 64.765625 198.8698Q64.28125 198.16667 63.53125 198.16667Q62.8125 198.16667 62.375 198.77605Q61.828125 199.5573 61.828125 201.6823Z" fill-rule="nonzero"/><path fill="#000000" d="M60.75 141.83333L61.859375 141.73958Q61.984375 142.55208 62.421875 142.95833Q62.875 143.36458 63.515625 143.36458Q64.265625 143.36458 64.796875 142.78645Q65.328125 142.20833 65.328125 141.27083Q65.328125 140.36458 64.8125 139.84895Q64.3125 139.3177 63.484375 139.3177Q62.984375 139.3177 62.5625 139.55208Q62.15625 139.78645 61.921875 140.14583L60.9375 140.02083L61.765625 135.61458L66.046875 135.61458L66.046875 136.61458L62.609375 136.61458L62.15625 138.92708Q62.921875 138.3802 63.765625 138.3802Q64.890625 138.3802 65.65625 139.16145Q66.4375 139.9427 66.4375 141.17708Q66.4375 142.33333 65.765625 143.1927Q64.9375 144.22395 63.515625 144.22395Q62.34375 144.22395 61.59375 143.5677Q60.859375 142.91145 60.75 141.83333Z" fill-rule="nonzero"/><path fill="#000000" d="M57.71875 82.25L56.671875 82.25L56.671875 75.53125Q56.28125 75.890625 55.65625 76.265625Q55.046875 76.625 54.5625 76.796875L54.5625 75.78125Q55.4375 75.359375 56.09375 74.78125Q56.765625 74.1875 57.046875 73.625L57.71875 73.625L57.71875 82.25ZM60.75 78.015625Q60.75 76.484375 61.0625 75.5625Q61.375 74.625 61.984375 74.125Q62.609375 73.625 63.546875 73.625Q64.234375 73.625 64.75 73.90625Q65.28125 74.1875 65.625 74.71875Q65.96875 75.234375 66.15625 75.984375Q66.34375 76.734375 66.34375 78.015625Q66.34375 79.53125 66.03125 80.453125Q65.734375 81.375 65.109375 81.890625Q64.5 82.390625 63.546875 82.390625Q62.3125 82.390625 61.59375 81.5Q60.75 80.4375 60.75 78.015625ZM61.828125 78.015625Q61.828125 80.125 62.328125 80.828125Q62.828125 81.53125 63.546875 81.53125Q64.28125 81.53125 64.765625 80.828125Q65.265625 80.125 65.265625 78.015625Q65.265625 75.890625 64.765625 75.203125Q64.28125 74.5 63.53125 74.5Q62.8125 74.5 62.375 75.109375Q61.828125 75.890625 61.828125 78.015625Z" fill-rule="nonzero"/><path stroke="#4285f4" stroke-width="4.0" stroke-linecap="butt" d="M403.0 54.75L415.0 54.75" fill-rule="nonzero"/><path fill="#1a1a1a" d="M423.89062 58.75L423.89062 50.15625L425.60938 50.15625L427.64062 56.234375Q427.92188 57.09375 428.04688 57.515625Q428.1875 57.046875 428.5 56.140625L430.5625 50.15625L432.09375 50.15625L432.09375 58.75L431.0 58.75L431.0 51.5625L428.5 58.75L427.46875 58.75L424.98438 51.4375L424.98438 58.75L423.89062 58.75ZM438.04688 56.75L439.14062 56.875Q438.89062 57.828125 438.1875 58.359375Q437.48438 58.890625 436.40625 58.890625Q435.04688 58.890625 434.23438 58.046875Q433.4375 57.203125 433.4375 55.6875Q433.4375 54.125 434.25 53.265625Q435.0625 52.390625 436.34375 52.390625Q437.59375 52.390625 438.375 53.234375Q439.17188 54.078125 439.17188 55.625Q439.17188 55.71875 439.17188 55.90625L434.53125 55.90625Q434.59375 56.9375 435.10938 57.484375Q435.625 58.015625 436.40625 58.015625Q436.98438 58.015625 437.39062 57.71875Q437.8125 57.40625 438.04688 56.75ZM434.59375 55.046875L438.0625 55.046875Q438.0 54.25 437.67188 53.859375Q437.15625 53.25 436.35938 53.25Q435.625 53.25 435.125 53.734375Q434.64062 54.21875 434.59375 55.046875Z" fill-rule="nonzero"/><path stroke="#ea4335" stroke-width="4.0" stroke-linecap="butt" d="M456.0 54.75L468.0 54.75" fill-rule="nonzero"/><path fill="#1a1a1a" d="M476.89062 58.75L476.89062 50.15625L478.60938 50.15625L480.64062 56.234375Q480.92188 57.09375 481.04688 57.515625Q481.1875 57.046875 481.5 56.140625L483.5625 50.15625L485.09375 50.15625L485.09375 58.75L484.0 58.75L484.0 51.5625L481.5 58.75L480.46875 58.75L477.98438 51.4375L477.98438 58.75L476.89062 58.75ZM486.75 61.140625L486.625 60.15625Q486.96875 60.25 487.23438 60.25Q487.57812 60.25 487.78125 60.125Q488.0 60.015625 488.14062 59.8125Q488.23438 59.640625 488.46875 59.015625Q488.48438 58.9375 488.5625 58.765625L486.1875 52.53125L487.32812 52.53125L488.625 56.125Q488.875 56.8125 489.07812 57.578125Q489.26562 56.84375 489.51562 56.15625L490.84375 52.53125L491.89062 52.53125L489.53125 58.859375Q489.14062 59.875 488.9375 60.265625Q488.65625 60.796875 488.28125 61.03125Q487.92188 61.28125 487.42188 61.28125Q487.125 61.28125 486.75 61.140625ZM494.98438 58.75L498.28125 50.15625L499.5 50.15625L503.01562 58.75L501.73438 58.75L500.71875 56.140625L497.14062 56.140625L496.1875 58.75L494.98438 58.75ZM497.46875 55.21875L500.375 55.21875L499.48438 52.84375Q499.0625 51.765625 498.875 51.0625Q498.70312 51.890625 498.40625 52.703125L497.46875 55.21875ZM505.51562 58.75L503.15625 52.53125L504.26562 52.53125L505.60938 56.25Q505.8125 56.859375 506.0 57.5Q506.14062 57.015625 506.39062 56.328125L507.78125 52.53125L508.85938 52.53125L506.5 58.75L505.51562 58.75ZM514.0469 56.75L515.1406 56.875Q514.8906 57.828125 514.1875 58.359375Q513.4844 58.890625 512.40625 58.890625Q511.04688 58.890625 510.23438 58.046875Q509.4375 57.203125 509.4375 55.6875Q509.4375 54.125 510.25 53.265625Q511.0625 52.390625 512.34375 52.390625Q513.59375 52.390625 514.375 53.234375Q515.1719 54.078125 515.1719 55.625Q515.1719 55.71875 515.1719 55.90625L510.53125 55.90625Q510.59375 56.9375 511.10938 57.484375Q511.625 58.015625 512.40625 58.015625Q512.9844 58.015625 513.3906 57.71875Q513.8125 57.40625 514.0469 56.75ZM510.59375 55.046875L514.0625 55.046875Q514.0 54.25 513.6719 53.859375Q513.15625 53.25 512.3594 53.25Q511.625 53.25 511.125 53.734375Q510.64062 54.21875 510.59375 55.046875ZM516.78125 58.75L516.78125 52.53125L517.7344 52.53125L517.7344 53.46875Q518.09375 52.8125 518.3906 52.609375Q518.7031 52.390625 519.0781 52.390625Q519.6094 52.390625 520.15625 52.71875L519.7969 53.703125Q519.40625 53.46875 519.03125 53.46875Q518.6719 53.46875 518.3906 53.6875Q518.125 53.890625 518.0156 54.265625Q517.8281 54.828125 517.8281 55.484375L517.8281 58.75L516.78125 58.75ZM524.8594 57.984375Q524.2656 58.484375 523.71875 58.6875Q523.1875 58.890625 522.5625 58.890625Q521.53125 58.890625 520.9844 58.390625Q520.4375 57.890625 520.4375 57.109375Q520.4375 56.65625 520.6406 56.28125Q520.84375 55.890625 521.1875 55.671875Q521.53125 55.4375 521.9531 55.328125Q522.25 55.234375 522.8906 55.15625Q524.15625 55.015625 524.7656 54.796875Q524.7656 54.578125 524.7656 54.53125Q524.7656 53.875 524.46875 53.609375Q524.0625 53.265625 523.2656 53.265625Q522.53125 53.265625 522.1719 53.53125Q521.8125 53.78125 521.6406 54.4375L520.6094 54.296875Q520.75 53.640625 521.0781 53.234375Q521.40625 52.828125 522.0156 52.609375Q522.625 52.390625 523.4219 52.390625Q524.21875 52.390625 524.71875 52.578125Q525.21875 52.765625 525.4531 53.046875Q525.6875 53.328125 525.78125 53.765625Q525.8281 54.03125 525.8281 54.734375L525.8281 56.140625Q525.8281 57.609375 525.8906 58.0Q525.96875 58.390625 526.1719 58.75L525.0625 58.75Q524.90625 58.421875 524.8594 57.984375ZM524.7656 55.625Q524.1875 55.859375 523.0469 56.03125Q522.3906 56.125 522.125 56.25Q521.8594 56.359375 521.7031 56.578125Q521.5625 56.796875 521.5625 57.078125Q521.5625 57.5 521.875 57.78125Q522.2031 58.0625 522.8125 58.0625Q523.4219 58.0625 523.8906 57.796875Q524.375 57.53125 524.59375 57.0625Q524.7656 56.703125 524.7656 56.015625L524.7656 55.625ZM527.59375 59.265625L528.625 59.421875Q528.6875 59.890625 528.9844 60.109375Q529.375 60.40625 530.0469 60.40625Q530.78125 60.40625 531.1719 60.109375Q531.5781 59.8125 531.71875 59.296875Q531.8125 58.96875 531.7969 57.9375Q531.1094 58.75 530.0781 58.75Q528.7969 58.75 528.09375 57.828125Q527.3906 56.890625 527.3906 55.609375Q527.3906 54.71875 527.7031 53.96875Q528.03125 53.203125 528.6406 52.796875Q529.25 52.390625 530.0781 52.390625Q531.1875 52.390625 531.90625 53.28125L531.90625 52.53125L532.875 52.53125L532.875 57.90625Q532.875 59.359375 532.5781 59.96875Q532.28125 60.578125 531.6406 60.921875Q531.0 61.28125 530.0625 61.28125Q528.9531 61.28125 528.2656 60.78125Q527.5781 60.28125 527.59375 59.265625ZM528.46875 55.53125Q528.46875 56.75 528.9531 57.3125Q529.4375 57.875 530.1719 57.875Q530.90625 57.875 531.3906 57.3125Q531.8906 56.75 531.8906 55.5625Q531.8906 54.421875 531.375 53.84375Q530.875 53.265625 530.15625 53.265625Q529.4531 53.265625 528.9531 53.84375Q528.46875 54.40625 528.46875 55.53125ZM539.0469 56.75L540.1406 56.875Q539.8906 57.828125 539.1875 58.359375Q538.4844 58.890625 537.40625 58.890625Q536.0469 58.890625 535.2344 58.046875Q534.4375 57.203125 534.4375 55.6875Q534.4375 54.125 535.25 53.265625Q536.0625 52.390625 537.34375 52.390625Q538.59375 52.390625 539.375 53.234375Q540.1719 54.078125 540.1719 55.625Q540.1719 55.71875 540.1719 55.90625L535.53125 55.90625Q535.59375 56.9375 536.1094 57.484375Q536.625 58.015625 537.40625 58.015625Q537.9844 58.015625 538.3906 57.71875Q538.8125 57.40625 539.0469 56.75ZM535.59375 55.046875L539.0625 55.046875Q539.0 54.25 538.6719 53.859375Q538.15625 53.25 537.3594 53.25Q536.625 53.25 536.125 53.734375Q535.6406 54.21875 535.59375 55.046875Z" fill-rule="nonzero"/><path fill="#757575" d="M15.734375 33.25L15.734375 18.9375L18.59375 18.9375L21.96875 29.0625Q22.4375 30.484375 22.65625 31.1875Q22.90625 30.40625 23.421875 28.890625L26.84375 18.9375L29.390625 18.9375L29.390625 33.25L27.578125 33.25L27.578125 21.265625L23.40625 33.25L21.703125 33.25L17.5625 21.0625L17.5625 33.25L15.734375 33.25ZM31.921875 28.0625Q31.921875 25.1875 33.515625 23.796875Q34.859375 22.640625 36.78125 22.640625Q38.921875 22.640625 40.265625 24.046875Q41.625 25.453125 41.625 27.921875Q41.625 29.921875 41.03125 31.078125Q40.4375 32.21875 39.28125 32.859375Q38.140625 33.484375 36.78125 33.484375Q34.59375 33.484375 33.25 32.09375Q31.921875 30.6875 31.921875 28.0625ZM33.71875 28.0625Q33.71875 30.0625 34.578125 31.046875Q35.453125 32.03125 36.78125 32.03125Q38.09375 32.03125 38.953125 31.046875Q39.828125 30.046875 39.828125 28.0Q39.828125 26.078125 38.953125 25.09375Q38.078125 24.09375 36.78125 24.09375Q35.453125 24.09375 34.578125 25.09375Q33.71875 26.078125 33.71875 28.0625ZM47.40625 31.671875L47.65625 33.234375Q46.921875 33.390625 46.328125 33.390625Q45.375 33.390625 44.84375 33.09375Q44.328125 32.78125 44.109375 32.296875Q43.890625 31.796875 43.890625 30.21875L43.890625 24.25L42.609375 24.25L42.609375 22.875L43.890625 22.875L43.890625 20.3125L45.640625 19.25L45.640625 22.875L47.40625 22.875L47.40625 24.25L45.640625 24.25L45.640625 30.3125Q45.640625 31.0625 45.734375 31.28125Q45.828125 31.484375 46.03125 31.625Q46.25 31.75 46.640625 31.75Q46.921875 31.75 47.40625 31.671875ZM49.578125 20.953125L49.578125 18.9375L51.34375 18.9375L51.34375 20.953125L49.578125 20.953125ZM49.578125 33.25L49.578125 22.875L51.34375 22.875L51.34375 33.25L49.578125 33.25ZM56.453125 33.25L52.5 22.875L54.359375 22.875L56.59375 29.09375Q56.953125 30.09375 57.25 31.171875Q57.484375 30.359375 57.90625 29.203125L60.203125 22.875L62.015625 22.875L58.09375 33.25L56.453125 33.25ZM70.34375 31.96875Q69.359375 32.796875 68.453125 33.140625Q67.546875 33.484375 66.515625 33.484375Q64.8125 33.484375 63.890625 32.65625Q62.96875 31.8125 62.96875 30.515625Q62.96875 29.75 63.3125 29.125Q63.671875 28.5 64.234375 28.125Q64.796875 27.734375 65.5 27.53125Q66.015625 27.40625 67.0625 27.265625Q69.1875 27.015625 70.1875 26.671875Q70.203125 26.3125 70.203125 26.203125Q70.203125 25.140625 69.703125 24.6875Q69.03125 24.09375 67.703125 24.09375Q66.453125 24.09375 65.859375 24.53125Q65.28125 24.96875 65.0 26.078125L63.28125 25.84375Q63.515625 24.734375 64.046875 24.0625Q64.578125 23.375 65.59375 23.015625Q66.609375 22.640625 67.953125 22.640625Q69.28125 22.640625 70.109375 22.953125Q70.9375 23.265625 71.328125 23.75Q71.71875 24.21875 71.875 24.9375Q71.96875 25.390625 71.96875 26.5625L71.96875 28.90625Q71.96875 31.359375 72.078125 32.015625Q72.1875 32.65625 72.53125 33.25L70.6875 33.25Q70.421875 32.703125 70.34375 31.96875ZM70.1875 28.046875Q69.234375 28.4375 67.3125 28.703125Q66.234375 28.859375 65.78125 29.0625Q65.34375 29.25 65.09375 29.625Q64.84375 30.0 64.84375 30.46875Q64.84375 31.171875 65.375 31.640625Q65.90625 32.109375 66.9375 32.109375Q67.953125 32.109375 68.734375 31.671875Q69.53125 31.21875 69.90625 30.453125Q70.1875 29.84375 70.1875 28.6875L70.1875 28.046875ZM78.40625 31.671875L78.65625 33.234375Q77.921875 33.390625 77.328125 33.390625Q76.375 33.390625 75.84375 33.09375Q75.328125 32.78125 75.109375 32.296875Q74.890625 31.796875 74.890625 30.21875L74.890625 24.25L73.609375 24.25L73.609375 22.875L74.890625 22.875L74.890625 20.3125L76.640625 19.25L76.640625 22.875L78.40625 22.875L78.40625 24.25L76.640625 24.25L76.640625 30.3125Q76.640625 31.0625 76.734375 31.28125Q76.828125 31.484375 77.03125 31.625Q77.25 31.75 77.640625 31.75Q77.921875 31.75 78.40625 31.671875ZM80.578125 20.953125L80.578125 18.9375L82.34375 18.9375L82.34375 20.953125L80.578125 20.953125ZM80.578125 33.25L80.578125 22.875L82.34375 22.875L82.34375 33.25L80.578125 33.25ZM83.921875 28.0625Q83.921875 25.1875 85.515625 23.796875Q86.859375 22.640625 88.78125 22.640625Q90.921875 22.640625 92.265625 24.046875Q93.625 25.453125 93.625 27.921875Q93.625 29.921875 93.03125 31.078125Q92.4375 32.21875 91.28125 32.859375Q90.140625 33.484375 88.78125 33.484375Q86.59375 33.484375 85.25 32.09375Q83.921875 30.6875 83.921875 28.0625ZM85.71875 28.0625Q85.71875 30.0625 86.578125 31.046875Q87.453125 32.03125 88.78125 32.03125Q90.09375 32.03125 90.953125 31.046875Q91.828125 30.046875 91.828125 28.0Q91.828125 26.078125 90.953125 25.09375Q90.078125 24.09375 88.78125 24.09375Q87.453125 24.09375 86.578125 25.09375Q85.71875 26.078125 85.71875 28.0625ZM95.5625 33.25L95.5625 22.875L97.15625 22.875L97.15625 24.359375Q98.296875 22.640625 100.453125 22.640625Q101.390625 22.640625 102.171875 22.984375Q102.96875 23.3125 103.359375 23.859375Q103.75 24.40625 103.90625 25.15625Q104.0 25.65625 104.0 26.875L104.0 33.25L102.234375 33.25L102.234375 26.9375Q102.234375 25.859375 102.03125 25.328125Q101.828125 24.796875 101.296875 24.484375Q100.78125 24.171875 100.078125 24.171875Q98.953125 24.171875 98.140625 24.890625Q97.328125 25.59375 97.328125 27.578125L97.328125 33.25L95.5625 33.25ZM112.53125 33.25L112.53125 18.9375L114.28125 18.9375L114.28125 33.25L112.53125 33.25ZM123.671875 29.90625L125.484375 30.140625Q125.0625 31.71875 123.890625 32.609375Q122.734375 33.484375 120.921875 33.484375Q118.65625 33.484375 117.3125 32.09375Q115.984375 30.6875 115.984375 28.15625Q115.984375 25.53125 117.328125 24.09375Q118.671875 22.640625 120.828125 22.640625Q122.90625 22.640625 124.21875 24.0625Q125.546875 25.46875 125.546875 28.046875Q125.546875 28.203125 125.53125 28.515625L117.796875 28.515625Q117.890625 30.21875 118.765625 31.125Q119.640625 32.03125 120.9375 32.03125Q121.90625 32.03125 122.578125 31.53125Q123.265625 31.015625 123.671875 29.90625ZM117.890625 27.0625L123.6875 27.0625Q123.578125 25.765625 123.03125 25.109375Q122.1875 24.09375 120.84375 24.09375Q119.640625 24.09375 118.8125 24.90625Q117.984375 25.703125 117.890625 27.0625ZM130.45312 33.25L126.5 22.875L128.35938 22.875L130.59375 29.09375Q130.95312 30.09375 131.25 31.171875Q131.48438 30.359375 131.90625 29.203125L134.20312 22.875L136.01562 22.875L132.09375 33.25L130.45312 33.25ZM144.67188 29.90625L146.48438 30.140625Q146.0625 31.71875 144.89062 32.609375Q143.73438 33.484375 141.92188 33.484375Q139.65625 33.484375 138.3125 32.09375Q136.98438 30.6875 136.98438 28.15625Q136.98438 25.53125 138.32812 24.09375Q139.67188 22.640625 141.82812 22.640625Q143.90625 22.640625 145.21875 24.0625Q146.54688 25.46875 146.54688 28.046875Q146.54688 28.203125 146.53125 28.515625L138.79688 28.515625Q138.89062 30.21875 139.76562 31.125Q140.64062 32.03125 141.9375 32.03125Q142.90625 32.03125 143.57812 31.53125Q144.26562 31.015625 144.67188 29.90625ZM138.89062 27.0625L144.6875 27.0625Q144.57812 25.765625 144.03125 25.109375Q143.1875 24.09375 141.84375 24.09375Q140.64062 24.09375 139.8125 24.90625Q138.98438 25.703125 138.89062 27.0625ZM148.53125 33.25L148.53125 18.9375L150.28125 18.9375L150.28125 33.25L148.53125 33.25ZM151.85938 30.15625L153.60938 29.875Q153.75 30.921875 154.42188 31.484375Q155.09375 32.03125 156.29688 32.03125Q157.5 32.03125 158.07812 31.546875Q158.67188 31.046875 158.67188 30.390625Q158.67188 29.796875 158.15625 29.453125Q157.79688 29.21875 156.35938 28.859375Q154.42188 28.359375 153.67188 28.015625Q152.9375 27.65625 152.54688 27.03125Q152.15625 26.390625 152.15625 25.625Q152.15625 24.9375 152.46875 24.34375Q152.79688 23.75 153.34375 23.359375Q153.75 23.0625 154.45312 22.859375Q155.17188 22.640625 155.98438 22.640625Q157.20312 22.640625 158.125 23.0Q159.04688 23.34375 159.48438 23.953125Q159.92188 24.546875 160.09375 25.546875L158.375 25.78125Q158.25 24.984375 157.6875 24.546875Q157.125 24.09375 156.10938 24.09375Q154.89062 24.09375 154.375 24.5Q153.85938 24.890625 153.85938 25.421875Q153.85938 25.765625 154.07812 26.046875Q154.28125 26.328125 154.75 26.515625Q155.01562 26.609375 156.29688 26.953125Q158.17188 27.453125 158.90625 27.78125Q159.64062 28.09375 160.0625 28.703125Q160.48438 29.296875 160.48438 30.203125Q160.48438 31.078125 159.96875 31.859375Q159.45312 32.640625 158.48438 33.0625Q157.51562 33.484375 156.29688 33.484375Q154.28125 33.484375 153.21875 32.640625Q152.15625 31.796875 151.85938 30.15625Z" fill-rule="nonzero"/></svg>